<svg xmlns="http://www.w3.org/2000/svg" width="230" height="68" viewBox="0 0 230 68" fill="none">
	<g clipPath="url(#clip0_28_125842)">
		<path d="M58.213 0.334929H64.4201L60.8972 13.5665H69.2852L67.7754 18.9261H53.1802L58.213 0.334929Z" fill="white" />
		<path d="M75.1571 0.334929H90.9266L89.5845 5.35956H79.8544L79.3511 7.20192H88.4102L87.2358 11.7241H78.1767L77.6735 13.7339H87.5713L86.2293 18.7586H70.292L75.1571 0.334929Z" fill="white" />
		<path d="M96.9655 5.69459H91.4294L92.7715 0.502474H109.883L108.541 5.69459H103.005L99.482 18.9261H93.2748L96.9655 5.69459Z" fill="white" />
		<path d="M109.212 8.87686C111.225 8.70937 112.232 7.87193 112.735 6.53203H110.386L112.064 0.502474H118.271L116.761 5.86208C115.923 9.04435 114.245 10.8867 109.548 11.2217L109.212 8.87686Z" fill="white" />
		<path d="M117.433 15.9113L120.956 11.7241C123.136 13.5665 125.317 14.4039 127.163 14.4039C128.002 14.4039 128.505 14.069 128.505 13.5665C128.505 13.064 128.169 12.7291 125.485 11.7241C121.962 10.3842 120.452 9.21182 120.452 6.53202C120.452 3.01478 123.808 0 128.84 0C132.196 0 135.047 1.00493 137.061 2.84729L133.538 7.03448C132.196 5.86207 130.182 5.02463 128.169 5.02463C127.33 5.02463 126.827 5.19212 126.827 5.69458C126.827 6.19704 127.163 6.36453 129.847 7.36946C133.034 8.54187 135.047 9.88177 135.047 12.7291C135.047 16.4138 132.028 19.4286 126.659 19.4286C122.969 19.2611 119.781 17.9212 117.433 15.9113Z" fill="white" />
		<path d="M45.7987 36.1774L49.3217 23.4483H11.911L5.53611 47.2315C11.5755 48.5715 23.822 51.0838 39.9271 52.2562L42.779 42.0394H21.8089L23.3187 36.3448H45.7987V36.1774ZM0 68H14.9307L18.7892 53.4286H32.3778C19.7958 52.2562 10.2334 50.2463 5.03282 49.0739L0 68Z" fill="white" />
		<path d="M87.4031 35.6749L90.7583 23.4483H52.6766L44.9596 52.4237C49.4891 52.5912 54.3542 52.7586 59.5548 52.5912L60.0581 50.9163H81.867L84.7189 40.1971H62.91L64.0843 35.6749H87.4031ZM59.0515 54.601C58.0449 54.601 57.0384 54.601 56.1996 54.601C52.1733 54.601 48.3148 54.4335 44.6241 54.266L40.9333 67.8325H79.1828L82.3703 55.6059H58.716L59.0515 54.601Z" fill="white" />
		<path d="M129.344 28.3055C126.324 25.2907 121.123 23.6158 112.903 23.6158H95.6237L88.41 50.4139C95.1204 49.4089 101.999 48.069 109.045 46.2267C116.929 44.2168 124.646 42.7094 132.363 41.872C132.699 40.5321 132.867 39.1922 132.867 37.6848C132.867 34.0001 131.86 30.8178 129.344 28.3055ZM110.219 44.7193H104.851L107.199 36.0099H112.4C114.413 36.0099 115.923 36.5124 116.762 37.3498C117.433 38.0198 117.768 38.8572 117.768 39.6947C117.768 42.3745 115.084 44.7193 110.219 44.7193ZM87.7389 52.4237L83.5449 68.0001H98.4756L101.999 55.271H105.689L110.722 68.0001H126.827L120.62 53.2612C126.659 51.4188 130.182 48.069 131.86 43.8818C124.479 44.7193 117.097 46.0592 109.716 48.069C102.166 49.9114 94.9526 51.4188 87.7389 52.4237Z" fill="white" />
		<path d="M174.806 28.3055C171.787 25.2907 166.586 23.6158 158.366 23.6158H140.919L136.054 41.537C141.254 41.0346 146.287 40.6996 151.152 40.6996L152.327 36.1774H157.695C159.876 36.1774 161.218 36.6799 162.057 37.5173C162.728 38.1873 163.063 39.0247 163.063 39.8621C163.063 40.1971 163.063 40.5321 162.895 40.8671C168.096 41.0346 172.961 41.3695 177.658 41.872C177.994 40.5321 178.162 39.1922 178.162 37.8523C178.329 34.0001 177.155 30.8178 174.806 28.3055ZM155.514 44.7193H150.146L150.817 42.5419C145.952 42.7094 140.751 42.8769 135.718 43.3794L129.008 68.0001H143.939L147.294 55.271H150.984L156.017 68.0001H172.122L165.915 53.2612C172.122 51.4188 175.645 47.9016 177.323 43.5469C172.458 43.0444 167.425 42.7094 162.057 42.5419C160.715 43.8818 158.534 44.7193 155.514 44.7193Z" fill="white" />
		<path d="M187.892 44.7192C196.951 46.0591 204.668 47.5665 210.708 48.9064L196.28 68H177.826L191.247 50.2463L187.892 44.7192Z" fill="white" />
		<path d="M230 23.4483L212.05 47.2315C205.507 45.7242 196.951 43.8818 186.718 42.5419L175.478 23.4483H192.589L200.977 37.5173L211.714 23.4483H230Z" fill="white" />
	</g>
	<defs>
		<clipPath id="clip0_28_125842">
			<rect width="230" height="68" fill="white" />
		</clipPath>
	</defs>
</svg>
