<svg width="36" height="36" viewBox="0 0 36 36" fill="none" xmlns="http://www.w3.org/2000/svg">
<path d="M18 3.06C9.75 3.06 3 9.795 3 18.09C3 25.59 8.49 31.815 15.66 32.94V22.44H11.85V18.09H15.66V14.775C15.66 11.01 17.895 8.94 21.33 8.94C22.965 8.94 24.675 9.225 24.675 9.225V12.93H22.785C20.925 12.93 20.34 14.085 20.34 15.27V18.09H24.51L23.835 22.44H20.34V32.94C23.8747 32.3818 27.0933 30.5783 29.4149 27.8551C31.7365 25.1319 33.008 21.6685 33 18.09C33 9.795 26.25 3.06 18 3.06Z" fill="white"/>
</svg>
