<svg width="36" height="36" viewBox="0 0 36 36" fill="none" xmlns="http://www.w3.org/2000/svg">
<path d="M33.6886 9C32.5336 9.525 31.2886 9.87 29.9986 10.035C31.3186 9.24 32.3386 7.98 32.8186 6.465C31.5736 7.215 30.1936 7.74 28.7386 8.04C27.5536 6.75 25.8886 6 23.9986 6C20.4736 6 17.5936 8.88 17.5936 12.435C17.5936 12.945 17.6536 13.44 17.7586 13.905C12.4186 13.635 7.66359 11.07 4.49859 7.185C3.94359 8.13 3.62859 9.24 3.62859 10.41C3.62859 12.645 4.75359 14.625 6.49359 15.75C5.42859 15.75 4.43859 15.45 3.56859 15C3.56859 15 3.56859 15 3.56859 15.045C3.56859 18.165 5.78859 20.775 8.72859 21.36C8.18859 21.51 7.61859 21.585 7.03359 21.585C6.62859 21.585 6.22359 21.54 5.83359 21.465C6.64359 24 8.99859 25.89 11.8336 25.935C9.64359 27.675 6.86859 28.695 3.83859 28.695C3.32859 28.695 2.81859 28.665 2.30859 28.605C5.15859 30.435 8.54859 31.5 12.1786 31.5C23.9986 31.5 30.4936 21.69 30.4936 13.185C30.4936 12.9 30.4936 12.63 30.4786 12.345C31.7386 11.445 32.8186 10.305 33.6886 9Z" fill="white"/>
</svg>
