<svg xmlns="http://www.w3.org/2000/svg" viewBox="0 0 500 177.63"><defs><style>.a{fill:#25d366;}.b{fill:#fff;}</style></defs><path class="a" d="M486.84,338.82H13.16A13.2,13.2,0,0,1,0,325.66V174.34a13.2,13.2,0,0,1,13.16-13.16H486.84A13.2,13.2,0,0,1,500,174.34V325.66A13.2,13.2,0,0,1,486.84,338.82Z" transform="translate(0 -161.18)"/><path class="b" d="M98.82,184.47a59,59,0,0,0-51.58,88l-7.63,27.11a2.54,2.54,0,0,0,1.84,3.15,2.25,2.25,0,0,0,1.31,0l28.29-7a58.48,58.48,0,0,0,27.77,7.1,59.21,59.21,0,1,0,0-118.42Zm0,5.14A54.08,54.08,0,1,1,72.5,290.92a2.92,2.92,0,0,0-1.84-.26l-24.74,6.18,6.58-23.68a2.6,2.6,0,0,0-.26-2,54.09,54.09,0,0,1,46.58-81.57ZM77.24,212.76a8.12,8.12,0,0,0-5.92,2.77,19.87,19.87,0,0,0-6.06,14.21c0,8.68,6.06,16.18,6.71,17.1h0c-.13-.13.92,1.32,2.24,3a84,84,0,0,0,5.53,6.45c4.6,4.86,11.18,10.52,19.21,13.94,3.68,1.58,6.71,2.5,8.94,3.29a23.81,23.81,0,0,0,10.79.66,16.92,16.92,0,0,0,6.71-2.76c2.37-1.45,4.61-3.29,5.53-6.06a24.59,24.59,0,0,0,1.19-5.26,9.87,9.87,0,0,0,0-2,3.19,3.19,0,0,0-.53-2c-1.19-2-2.5-2-4-2.76-.79-.39-3-1.45-5.26-2.5s-4.21-2-5.4-2.5a6.62,6.62,0,0,0-3-.53,5,5,0,0,0-3.42,2.24c-.79,1.05-3.69,4.48-4.61,5.53l-.26-.13c-1-.53-2.5-1.06-4.48-2.11a40,40,0,0,1-7.23-5h0a37.17,37.17,0,0,1-7.77-9.6c0-.14,0,0,.14-.14h0c.92-.92,1.71-2,2.36-2.76a13,13,0,0,0,1.85-3,5.91,5.91,0,0,0-.14-5h0c0,.14-.26-.65-.65-1.44s-.79-2-1.32-3c-.92-2.37-2.1-4.87-2.63-6.45h0a6.39,6.39,0,0,0-3.16-3.68,4.1,4.1,0,0,0-2.5-.4h0A19.65,19.65,0,0,0,77.24,212.76Zm0,5.27h3.42a6,6,0,0,1,.52,1.05c.66,1.45,1.71,4.08,2.64,6.45.52,1.18.92,2.23,1.31,3.15s.53,1.32.79,1.85h0c.26.39.26.13.13.26a8.48,8.48,0,0,1-1.18,2c-.79.92-1.71,2-2.11,2.5a7.25,7.25,0,0,0-1.58,2.24,5.1,5.1,0,0,0,.53,4.08,47.85,47.85,0,0,0,9,11,38.15,38.15,0,0,0,8.16,5.66,40.29,40.29,0,0,0,4.6,2.1,4.79,4.79,0,0,0,3.29.66,5.75,5.75,0,0,0,3-1.71h0c.92-1,3.68-4.21,5-6l.52.13h0c.27.13,2.63,1.19,4.87,2.24s4.48,2.1,5.26,2.5c1.06.52,1.58.92,1.72.92v.79a19,19,0,0,1-.93,3.95c-.26.79-1.71,2.23-3.42,3.42a16.16,16.16,0,0,1-4.73,2.1,17.12,17.12,0,0,1-8.42-.52,88.7,88.7,0,0,1-8.43-3c-7.1-3-13.15-8.29-17.5-12.76A77.59,77.59,0,0,1,78.55,247c-1.18-1.58-1.71-2.5-2.23-3h0c-.79-1.06-5.66-7.9-5.66-13.95,0-6.45,3-9.08,4.6-10.79A2.32,2.32,0,0,1,77.24,218Z" transform="translate(0 -161.18)"/><path class="b" d="M197.24,231.45l5-25.92,8.42,18.68,8.42-18.68,4.6,25.92h-3.81L217.37,217l-7,15.66-7-15.66-2.5,14.61h-3.68Z" transform="translate(0 -161.18)"/><path class="b" d="M242.11,210.79H232.5v6.05h9.34v3.42H232.5v7.63h9.61v3.43H228.82V207.24h13.29Z" transform="translate(0 -161.18)"/><path class="b" d="M257.24,212.63a5.76,5.76,0,0,0-1.06-1.58,3.77,3.77,0,0,0-2.63-.92c-2.23,0-3.42,1.32-3.42,2.9,0,.65.26,2,2.63,2.89l2.37.92c4.48,1.84,5.66,4.34,5.66,7.11a7.46,7.46,0,0,1-7.76,7.76,7.11,7.11,0,0,1-5.66-2.37,7.59,7.59,0,0,1-2-4.73l3.69-.79a4.42,4.42,0,0,0,1,3,3.66,3.66,0,0,0,3.16,1.45,3.84,3.84,0,0,0,4-4.08c0-2.5-1.85-3.42-3.42-4.08l-2.37-.92c-2-.79-4.87-2.5-4.87-6.05,0-3.29,2.5-6.32,7.1-6.32a7.16,7.16,0,0,1,4.87,1.58,8.62,8.62,0,0,1,1.84,2.37Z" transform="translate(0 -161.18)"/><path class="b" d="M275.13,212.63a5.49,5.49,0,0,0-1.05-1.58,3.78,3.78,0,0,0-2.63-.92c-2.24,0-3.42,1.32-3.42,2.9,0,.65.26,2,2.63,2.89l2.37.92c4.47,1.84,5.65,4.34,5.65,7.11a7.46,7.46,0,0,1-7.76,7.76,7.14,7.14,0,0,1-5.66-2.37,7.57,7.57,0,0,1-2-4.73l3.68-.79a4.43,4.43,0,0,0,1.06,3,3.64,3.64,0,0,0,3.15,1.45,3.84,3.84,0,0,0,3.95-4.08c0-2.5-1.84-3.42-3.42-4.08l-2.37-.92c-2-.79-4.87-2.5-4.87-6.05,0-3.29,2.5-6.32,7.11-6.32a7.18,7.18,0,0,1,4.87,1.58,8.81,8.81,0,0,1,1.84,2.37Z" transform="translate(0 -161.18)"/><path class="b" d="M297.5,225.53H287.24l-2.63,5.79h-3.95l12-25.53,11.45,25.53h-3.95Zm-1.45-3.42L292.5,214l-3.68,8.16Z" transform="translate(0 -161.18)"/><path class="b" d="M319,218.82h9.87V219c0,4.08-1.19,7.5-3.56,9.73a11.31,11.31,0,0,1-8.15,3,10.31,10.31,0,0,1-8.16-3.29,13.19,13.19,0,0,1,0-18,12.94,12.94,0,0,1,9.08-3.55,13.62,13.62,0,0,1,6.31,1.58,13.47,13.47,0,0,1,4,3.55l-2.9,2.11a8.66,8.66,0,0,0-3-2.76,8,8,0,0,0-4.21-1.06,8.61,8.61,0,0,0-6.32,2.5,9.81,9.81,0,0,0-2.5,6.71,10,10,0,0,0,2.5,6.58,8,8,0,0,0,6.05,2.37,7.58,7.58,0,0,0,5.4-2.1,6.57,6.57,0,0,0,2-4.08h-6.05v-3.42Z" transform="translate(0 -161.18)"/><path class="b" d="M346.84,210.79h-9.6v6.05h9.34v3.42h-9.34v7.63h9.6v3.43H333.55V207.24h13.29Z" transform="translate(0 -161.18)"/><path class="b" d="M363.68,207.37v14.47a8,8,0,0,0,.79,4.21,5.26,5.26,0,0,0,8.95,0,9.52,9.52,0,0,0,.79-4.21V207.37h3.68v15.52a8.61,8.61,0,0,1-2.23,6.19,9.54,9.54,0,0,1-13.42,0,8.77,8.77,0,0,1-2.24-6.19V207.37Z" transform="translate(0 -161.18)"/><path class="b" d="M394.08,212.63a5.7,5.7,0,0,0-1.05-1.58,3.79,3.79,0,0,0-2.64-.92c-2.23,0-3.42,1.32-3.42,2.9,0,.65.27,2,2.64,2.89l2.36.92c4.48,1.84,5.66,4.34,5.66,7.11a7.46,7.46,0,0,1-7.76,7.76,7.13,7.13,0,0,1-5.66-2.37,7.52,7.52,0,0,1-2-4.73l3.68-.79a4.47,4.47,0,0,0,1.05,3,3.66,3.66,0,0,0,3.16,1.45,3.84,3.84,0,0,0,3.95-4.08c0-2.5-1.84-3.42-3.42-4.08l-2.37-.92c-2-.79-4.87-2.5-4.87-6.05,0-3.29,2.5-6.32,7.11-6.32a7.13,7.13,0,0,1,4.86,1.58,8.84,8.84,0,0,1,1.85,2.37Z" transform="translate(0 -161.18)"/><path class="b" d="M434.61,219.34a12.5,12.5,0,1,1-12.5-12.5A12.17,12.17,0,0,1,434.61,219.34Zm-3.69,0c0-5.39-3.68-9.08-8.81-9.08s-8.82,3.82-8.82,9.08,3.68,9.08,8.82,9.08S430.92,224.74,430.92,219.34Z" transform="translate(0 -161.18)"/><path class="b" d="M439.34,231.45V205.79l17.5,18.29V207.37h3.69v25.52L443,214.61v16.84Z" transform="translate(0 -161.18)"/><path class="b" d="M205.53,246.84l7.36,22.77,7.37-22.77h5.4L233,269.61l7.36-22.77h8.29L237,281.18h-6.71L223,260.39l-7.24,20.79h-6.71l-11.71-34.34Z" transform="translate(0 -161.18)"/><path class="b" d="M260.39,259.87h13.69v-13H282v34.34h-7.89v-14.6H260.39v14.6H252.5V246.84h7.89Z" transform="translate(0 -161.18)"/><path class="b" d="M309.74,274.61h-13l-2.63,6.44h-8.29l13.82-34.34h7.23l13.55,34.34h-8.28Zm-2.24-6.06L303.29,257l-4.21,11.58Z" transform="translate(0 -161.18)"/><path class="b" d="M334.21,253.55v27.63h-7.89V253.55h-7.5v-6.71h22.89v6.71Z" transform="translate(0 -161.18)"/><path class="b" d="M362.11,255.13c-2.64-2.37-4.74-2.5-5.79-2.5a4.09,4.09,0,0,0-3.29,1.19,3.06,3.06,0,0,0-.92,2.1,2.21,2.21,0,0,0,.78,1.84c.79.79,2,1.06,4.35,2l2.63.92a14.09,14.09,0,0,1,4.74,2.63,8.59,8.59,0,0,1,2.5,6.45,12.49,12.49,0,0,1-3,8.55c-3,3.16-7.5,3.55-9.74,3.55a15.14,15.14,0,0,1-6.84-1.45,21,21,0,0,1-5-3.81l4.08-5.66a18.34,18.34,0,0,0,3.16,2.63,8.26,8.26,0,0,0,4.34,1.19,5.5,5.5,0,0,0,3.55-1.19,3.4,3.4,0,0,0,1.19-2.76,3.26,3.26,0,0,0-1.19-2.5,12.45,12.45,0,0,0-4.08-1.84l-2.89-.92a11,11,0,0,1-4.74-2.77,8.22,8.22,0,0,1-2.1-5.92,10.52,10.52,0,0,1,3-7.76c2.37-2.5,5.27-3.16,8.55-3.16a16.18,16.18,0,0,1,10.14,3.42Z" transform="translate(0 -161.18)"/><path class="b" d="M391.84,274.61H379l-2.63,6.44H368l13.81-34.34h7.24l13.55,34.34h-8.29Zm-2.1-6.06L385.53,257l-4.21,11.58Z" transform="translate(0 -161.18)"/><path class="b" d="M418.68,246.84c3,0,6.32.4,8.95,2.9a10.57,10.57,0,0,1,3.29,8.29,11.25,11.25,0,0,1-2.89,8c-2.77,2.77-6.32,3-8.82,3h-4.74v12.1h-7.89V246.84Zm-4.21,15.79h2.9c1.05,0,3,0,4.21-1.31a4.86,4.86,0,0,0,1.31-3.43,4.21,4.21,0,0,0-1.31-3.28c-1.19-1.19-2.9-1.32-4.47-1.32h-2.64v9.34Z" transform="translate(0 -161.18)"/><path class="b" d="M448.16,246.84c3,0,6.31.4,8.95,2.9a10.6,10.6,0,0,1,3.28,8.29,11.25,11.25,0,0,1-2.89,8c-2.76,2.77-6.32,3-8.82,3h-4.86v12.1h-7.9V246.84ZM444,262.63h2.89c1.05,0,3,0,4.21-1.31a4.86,4.86,0,0,0,1.32-3.43,4.22,4.22,0,0,0-1.32-3.28c-1.18-1.19-2.89-1.32-4.47-1.32H444v9.34Z" transform="translate(0 -161.18)"/></svg>