<svg width="16" height="19" viewBox="0 0 16 19" fill="none" xmlns="http://www.w3.org/2000/svg">
<path d="M8.00288 9.36584C8.50046 9.36584 8.92585 9.18867 9.27905 8.83434C9.63225 8.48001 9.80885 8.05405 9.80885 7.55646C9.80885 7.05888 9.63169 6.63349 9.27735 6.28029C8.92302 5.92709 8.49706 5.75049 7.99948 5.75049C7.50189 5.75049 7.0765 5.92766 6.7233 6.28199C6.3701 6.63632 6.1935 7.06228 6.1935 7.55986C6.1935 8.05745 6.37067 8.48284 6.725 8.83604C7.07933 9.18924 7.50529 9.36584 8.00288 9.36584ZM8.00118 17.0139C9.95758 15.2627 11.4547 13.5829 12.4925 11.9745C13.5303 10.3662 14.0493 8.95752 14.0493 7.74854C14.0493 5.92547 13.4701 4.42676 12.3118 3.25239C11.1534 2.07802 9.71656 1.49084 8.00118 1.49084C6.28579 1.49084 4.84893 2.07802 3.6906 3.25239C2.53227 4.42676 1.9531 5.92547 1.9531 7.74854C1.9531 8.95752 2.47201 10.3662 3.50983 11.9745C4.54766 13.5829 6.04478 15.2627 8.00118 17.0139ZM8.00118 19.01C5.48453 16.8293 3.59735 14.7998 2.33965 12.9216C1.08197 11.0434 0.453125 9.31906 0.453125 7.74854C0.453125 5.44087 1.1996 3.57261 2.69255 2.14376C4.18548 0.714914 5.95503 0.000488281 8.00118 0.000488281C10.0473 0.000488281 11.8169 0.714914 13.3098 2.14376C14.8028 3.57261 15.5492 5.44087 15.5492 7.74854C15.5492 9.31906 14.9204 11.0434 13.6627 12.9216C12.405 14.7998 10.5178 16.8293 8.00118 19.01Z" fill="#8589A8"/>
</svg>
