<svg width="40" height="41" viewBox="0 0 40 41" fill="none" xmlns="http://www.w3.org/2000/svg">
<mask id="mask0_5442_23802" style="mask-type:alpha" maskUnits="userSpaceOnUse" x="0" y="0" width="40" height="41">
<rect y="0.257812" width="40" height="40" fill="#D9D9D9"/>
</mask>
<g mask="url(#mask0_5442_23802)">
<path d="M26.8883 14.5229V9.36045H13.1105V14.5229H11.7002V7.9502H28.2986V14.5229H26.8883ZM29.5977 20.025C30.0272 20.025 30.3928 19.874 30.6944 19.5722C30.996 19.2703 31.1469 18.9083 31.1469 18.4862C31.1469 18.064 30.9959 17.7022 30.6941 17.4005C30.3923 17.0989 30.0304 16.9481 29.6084 16.9481C29.1718 16.9481 28.8062 17.099 28.5117 17.4009C28.2172 17.7028 28.0699 18.0648 28.0699 18.4869C28.0699 18.909 28.2172 19.2709 28.5117 19.5725C28.8062 19.8742 29.1682 20.025 29.5977 20.025ZM26.8883 32.181V24.1981H13.1105V32.181H26.8883ZM28.2986 33.5912H11.7002V26.7152H5.96094V17.6596C5.96094 16.7826 6.2647 16.0406 6.87223 15.4335C7.47978 14.8264 8.22872 14.5229 9.11902 14.5229H30.8797C31.7745 14.5229 32.5246 14.8264 33.1299 15.4335C33.7352 16.0406 34.0379 16.7826 34.0379 17.6596V26.7152H28.2986V33.5912ZM32.6276 25.3049V17.6537C32.6276 17.1726 32.4601 16.7655 32.1251 16.4326C31.7901 16.0996 31.375 15.9331 30.8797 15.9331H9.11902C8.6238 15.9331 8.20869 16.1017 7.87369 16.4388C7.53869 16.776 7.37119 17.1829 7.37119 17.6596V25.3049H11.7002V22.7878H28.2986V25.3049H32.6276Z" fill="#001E57"/>
</g>
</svg>
