<?xml version="1.0" encoding="utf-8"?>
<!-- Generator: Adobe Illustrator 21.0.2, SVG Export Plug-In . SVG Version: 6.00 Build 0)  -->
<svg version="1.1" id="Layer_1" xmlns="http://www.w3.org/2000/svg" xmlns:xlink="http://www.w3.org/1999/xlink" x="0px" y="0px"
	 viewBox="-232.2 345.6 107.1 101.9" style="enable-background:new -232.2 345.6 107.1 101.9;" xml:space="preserve">
<style type="text/css">
	.st0{fill:#3A424E;}
	.st1{fill:#05869A;}
	.st2{fill:#FFFFFF;}
</style>
<g>
	<path class="st0" d="M-143.7,419.2c-6.1,0-11.2,3.8-13.2,9.2c-0.5,1.5-0.9,3.2-0.9,5c0,7.8,6.3,14.1,14.1,14.1
		c7.8,0,14.1-6.3,14.1-14.1C-129.6,425.6-135.9,419.2-143.7,419.2z M-143.7,439c-3.1,0-5.7-2.5-5.7-5.7c0-3.1,2.5-5.7,5.7-5.7
		c3.1,0,5.7,2.5,5.7,5.7C-138,436.5-140.6,439-143.7,439z"/>
	<path class="st0" d="M-213.1,419.2c-7.8,0-14.1,6.3-14.1,14.1c0,7.8,6.3,14.1,14.1,14.1c6.1,0,11.2-3.8,13.2-9.2
		c0.5-1.5,0.9-3.2,0.9-5C-198.9,425.6-205.3,419.2-213.1,419.2z M-213.1,439c-3.1,0-5.7-2.5-5.7-5.7c0-3.1,2.5-5.7,5.7-5.7
		c3.2,0,5.7,2.5,5.7,5.7C-207.4,436.5-210,439-213.1,439z"/>
	<path class="st1" d="M-227,368.4v-8.9c0-4.8,3.9-8.6,8.6-8.6h39.6c2.6,0,5.2,1.3,7,3.5l11.3,14h6.9l-14-17.4
		c-2.8-3.5-6.9-5.5-11.1-5.5h-39.6c-7.7,0-14,6.3-14,14v22.6h0.2V374C-232.1,370.8-230.1,368.6-227,368.4z"/>
	<path class="st1" d="M-132.6,376.8l-20.4-8.5h-0.7h-6.9h-66c-0.2,0-0.4,0-0.5,0c-3.1,0.2-5.1,2.4-5.1,5.6v8.1v14.8
		c0,3.4,2.3,5.7,5.7,5.7h2.8c0-7.9,6.2-14.1,14.1-14.1c7.9,0,14.1,6.2,14.1,14.1h33.9c0-7.9,6.2-14.1,14.1-14.1
		c7.9,0,14.1,6.2,14.1,14.1h2.8c3.4,0,5.7-2.3,5.7-5.7v-9.4C-124.7,383-128.1,378.5-132.6,376.8z"/>
	<path class="st0" d="M-160.3,427.7h-11.8c-1.6-1.7-3.8-2.8-6.3-2.8s-4.8,1.1-6.3,2.8h-11.8c0.8,1.7,1.1,3.7,1.1,5.7
		c0,1.7-0.4,3.4-0.9,5c-0.1,0.2-0.1,0.5-0.2,0.7h11.8c1.6,1.7,3.8,2.8,6.3,2.8s4.8-1.1,6.3-2.8h11.8c-0.8-1.7-1.1-3.7-1.1-5.7
		c0-1.7,0.4-3.4,0.9-5C-160.4,428.2-160.4,427.9-160.3,427.7z"/>
	<circle class="st2" cx="-213.1" cy="433.4" r="6.7"/>
	<circle class="st2" cx="-143.7" cy="433.4" r="6.7"/>
</g>
</svg>
