<?xml version="1.0" encoding="utf-8"?>
<!-- Generator: Adobe Illustrator 21.0.2, SVG Export Plug-In . SVG Version: 6.00 Build 0)  -->
<svg version="1.1" id="Layer_1" xmlns="http://www.w3.org/2000/svg" xmlns:xlink="http://www.w3.org/1999/xlink" x="0px" y="0px"
	 viewBox="0 0 76.1 73.3" style="enable-background:new 0 0 76.1 73.3;" xml:space="preserve">
<style type="text/css">
	.st0{fill:#80C6E7;}
	.st1{fill:#6699CC;}
	.st2{fill:#C62229;}
	.st3{opacity:0.52;fill:#01AFB0;}
	.st4{fill:#FFFFFF;}
</style>
<g>
	<polygon id="XMLID_4920_" class="st0" points="14.9,56.3 12.7,59.1 12.7,59.1 	"/>
	<polygon id="XMLID_4919_" class="st1" points="15.6,68.1 15.6,68.1 6.6,61.2 	"/>
	<polygon id="XMLID_4918_" class="st1" points="12.7,59.1 9.9,57 12.7,59.1 	"/>
	<polygon id="XMLID_4917_" class="st1" points="12.7,59.1 12.7,59.1 12.7,59.1 	"/>
	<polygon id="XMLID_4916_" class="st2" points="16.7,51 13.5,55.2 14.9,56.3 12.7,59.1 12.7,59.1 12.7,59.1 12.7,59.1 12.7,59.1 
		12.7,59.1 9.9,57 6.6,61.2 15.6,68.1 24.3,56.8 	"/>
	<polygon id="XMLID_4915_" class="st0" points="63.5,55.9 65.9,58.6 65.9,58.6 	"/>
	<polygon id="XMLID_4914_" class="st1" points="63.5,67.7 63.5,67.7 72.1,60.2 	"/>
	<polygon id="XMLID_4913_" class="st1" points="65.9,58.6 68.6,56.2 65.9,58.6 	"/>
	<polygon id="XMLID_4912_" class="st1" points="65.9,58.6 65.9,58.6 65.9,58.6 	"/>
	<path id="XMLID_4745_" class="st3" d="M68.5,4.2C61.1-1.5,51.5-1.4,47,4.4c-4.1,5.3-2.5,13.4,3.2,19.1l-0.5,0.6l0,0L24.3,56.9
		L16.7,51l7.6,5.8l-8.7,11.3l0,0L14,70.3l4.2,3.3l36.3-46.6c7,4.1,15.2,3.5,19.3-1.8C78.3,19.3,75.9,9.9,68.5,4.2z M68.1,14.4
		C67.4,15.6,64.2,15,61,13c-3.2-1.9-5.2-4.5-4.4-5.7c0.7-1.2,3.9-0.6,7.1,1.3C66.8,10.6,68.8,13.2,68.1,14.4z"/>
	<polygon id="XMLID_4921_" class="st4" points="32.6,42.8 39,49.5 43.3,43.5 37.5,36.8 	"/>
	<polygon id="XMLID_4867_" class="st2" points="61.3,50.7 64.9,54.7 63.5,55.9 65.9,58.6 65.9,58.6 65.9,58.6 65.9,58.6 65.9,58.6 
		65.9,58.6 68.6,56.2 72.1,60.2 63.5,67.7 54.1,57 	"/>
	<path id="XMLID_4852_" class="st3" d="M63.5,67.7L63.5,67.7L54.1,57l7.2-6.3L54.1,57l-27.5-31l0,0l-0.5-0.6
		c5.4-6.1,6.4-14.3,2-19.3c-4.9-5.5-14.5-5-21.5,1.1c-7,6.2-8.8,15.7-3.9,21.2c4.4,5,12.6,5.1,19.4,0.5l39.2,44.2l4-3.5L63.5,67.7z
		 M12.9,15.4C10.1,17.9,7.1,19,6.2,18c-0.9-1.1,0.6-3.9,3.4-6.3c2.8-2.4,5.8-3.6,6.8-2.5C17.3,10.2,15.7,13,12.9,15.4z"/>
</g>
</svg>
