<?xml version="1.0" encoding="utf-8"?>
<!-- Generator: Adobe Illustrator 21.0.2, SVG Export Plug-In . SVG Version: 6.00 Build 0)  -->
<svg version="1.1" id="Layer_1" xmlns="http://www.w3.org/2000/svg" xmlns:xlink="http://www.w3.org/1999/xlink" x="0px" y="0px"
	 viewBox="0 0 233.2 350.8" style="enable-background:new 0 0 233.2 350.8;" xml:space="preserve">
<style type="text/css">
	.st0{fill-rule:evenodd;clip-rule:evenodd;fill:#8CA8BE;}
	.st1{fill-rule:evenodd;clip-rule:evenodd;fill:#5184B3;}
	.st2{fill-rule:evenodd;clip-rule:evenodd;fill:#FFDC2E;}
	.st3{fill-rule:evenodd;clip-rule:evenodd;fill:#E1E8F0;}
	.st4{fill-rule:evenodd;clip-rule:evenodd;fill:#6C98BB;}
	.st5{fill-rule:evenodd;clip-rule:evenodd;fill:#BDDFDF;}
	.st6{fill-rule:evenodd;clip-rule:evenodd;fill:#2AC9DE;}
	.st7{fill-rule:evenodd;clip-rule:evenodd;fill:#F4F4F6;}
</style>
<g>
	<polygon id="XMLID_4911_" class="st0" points="150.9,128.2 104.1,107.7 104.1,350.8 150.9,350.8 	"/>
	<polygon id="XMLID_4910_" class="st1" points="104.1,107.7 0,133 0,350.8 104.1,350.8 	"/>
	<path id="XMLID_4901_" class="st2" d="M104.1,120.1v1.8L0,142.9l0-1.8L104.1,120.1z M0,350.4l104.1-21v1.8L6.5,350.8H0L0,350.4z
		 M104.1,150v1.8L0,172.8l0-1.8L104.1,150z M104.1,179.9v1.8L0,202.7l0-1.8L104.1,179.9z M104.1,209.8v1.8L0,232.6l0-1.8
		L104.1,209.8z M104.1,239.7v1.8L0,262.5l0-1.8L104.1,239.7z M104.1,269.6v1.8L0,292.4l0-1.8L104.1,269.6z M104.1,299.5v1.8L0,322.3
		l0-1.8L104.1,299.5z"/>
	<polygon id="XMLID_4900_" class="st3" points="93.1,109.8 88.6,110.8 88.6,350.8 93.1,350.8 	"/>
	<polygon id="XMLID_4899_" class="st4" points="97.8,108.8 93.1,109.8 93.1,350.8 97.8,350.8 	"/>
	<polygon id="XMLID_4898_" class="st3" points="72.5,114.2 68,115.2 68,350.8 72.5,350.8 	"/>
	<polygon id="XMLID_4897_" class="st4" points="77.3,113.2 72.5,114.2 72.5,350.8 77.3,350.8 	"/>
	<polygon id="XMLID_4896_" class="st3" points="51.9,118.7 47.5,119.7 47.5,350.8 51.9,350.8 	"/>
	<polygon id="XMLID_4895_" class="st4" points="56.7,117.7 51.9,118.7 51.9,350.8 56.7,350.8 	"/>
	<polygon id="XMLID_4894_" class="st3" points="31.4,123.1 26.9,124.1 26.9,350.8 31.4,350.8 	"/>
	<polygon id="XMLID_4893_" class="st4" points="36.2,122.1 31.4,123.1 31.4,350.8 36.2,350.8 	"/>
	<polygon id="XMLID_4892_" class="st3" points="10.8,127.6 6.3,128.5 6.3,350.8 10.8,350.8 	"/>
	<polygon id="XMLID_4891_" class="st4" points="15.6,126.5 10.8,127.6 10.8,350.8 15.6,350.8 	"/>
	<polygon id="XMLID_4890_" class="st1" points="190.7,121.8 140.4,121.8 140.7,26.6 190.7,0 190.7,0 	"/>
	<polygon id="XMLID_4889_" class="st5" points="233.1,121.8 190.7,121.8 190.7,0 233.1,15.5 	"/>
	<polygon id="XMLID_4888_" class="st6" points="110.1,350.8 109.2,64.3 176.9,41.3 176.9,350.8 	"/>
	<path id="XMLID_4869_" class="st7" d="M172.1,324.9v7.7l-36.7,18.1h-15.7L172.1,324.9z M172.1,341.9v7.7l-2.3,1.1h-15.7
		L172.1,341.9z M172.1,315.7V308l-61.9,30.5v7.8L172.1,315.7z M172.1,298.7V291l-61.9,30.5v7.7L172.1,298.7z M172.1,281.8V274
		l-61.9,30.5v7.7L172.1,281.8z M172.1,264.8v-7.7l-61.9,30.5v7.7L172.1,264.8z M172.1,247.8v-7.7l-61.9,30.5v7.7L172.1,247.8z
		 M172.1,230.9v-7.7l-61.9,30.5v7.7L172.1,230.9z M172.1,213.9v-7.7l-61.9,30.5v7.7L172.1,213.9z M172.1,196.9v-7.7l-61.9,30.5v7.7
		L172.1,196.9z M172.1,179.9v-7.7l-61.9,30.5v7.7L172.1,179.9z M172.1,163v-7.8l-61.9,30.5v7.7L172.1,163z M172.1,146v-7.7
		l-61.9,30.5v7.7L172.1,146z M172.1,129v-7.7l-61.9,30.5v7.7L172.1,129z M172.1,112.1v-7.8l-61.9,30.5v7.7L172.1,112.1z M172.1,95.1
		v-7.7l-61.9,30.5v7.7L172.1,95.1z M172.1,78.1v-7.7l-61.9,30.5v7.7L172.1,78.1z M172.1,61.1v-7.7l-61.9,32.9v5.4L172.1,61.1z"/>
	<polygon id="XMLID_4868_" class="st5" points="176.9,350.8 176.9,41.3 233.2,56.8 233.2,350.8 	"/>
</g>
</svg>
