<?xml version="1.0" encoding="utf-8"?>
<!-- Generator: Adobe Illustrator 21.0.2, SVG Export Plug-In . SVG Version: 6.00 Build 0)  -->
<svg version="1.1" id="Layer_1" xmlns="http://www.w3.org/2000/svg" xmlns:xlink="http://www.w3.org/1999/xlink" x="0px" y="0px"
	 viewBox="0 0 344.7 313.3" style="enable-background:new 0 0 344.7 313.3;" xml:space="preserve">
<style type="text/css">
	.st0{fill-rule:evenodd;clip-rule:evenodd;fill:#00879A;}
	.st1{fill-rule:evenodd;clip-rule:evenodd;fill:#B3D6F4;}
	.st2{fill:#FFF7E7;}
	.st3{fill:#2AC9DE;}
	.st4{fill:#C62229;}
	.st5{fill:#F6D1AC;}
	.st6{fill:#F9B843;}
	.st7{fill:#EECF66;}
</style>
<g>
	
		<ellipse id="XMLID_3349_" transform="matrix(0.9798 -0.2002 0.2002 0.9798 -27.9269 37.102)" class="st0" cx="169.5" cy="156.6" rx="156.6" ry="156.6"/>
	<path id="XMLID_3431_" class="st1" d="M148.4,311.8c-11.6-1.6-22.9-4.4-33.6-8.5c-1.4-7.7-3-15.5-5.5-23c-3.8-5.1-9.1-3.5-13.7-7.3
		c-4.4-3.6-8.4-14.7-14.5-16.7c0.1-7.5-4.4-11.6,2.1-17.2c-4-9.8-1.1-14.9,3.3-19c-0.5-0.9-1.4-1-1.7-2.2c-1.3,0.8-2,1.9-1.4,4
		c-4.2-0.5-6.9-3.3-11.5-3.1c-2.4-9.8-14.4-4.3-19.2-10.1c-7.6,4-14.4-1.5-22-2c-1.7-6.4-7.8-10.1-13.6-14c-0.4-1.6-0.7-3.2-1.1-4.8
		c-7.3-35.5-1.9-70.7,13.1-100.8c0.8-0.3,1.6-0.6,2.3-1c-1-0.7-0.5-1.9-0.5-2.6c0.8-1.4,1.5-2.8,2.3-4.2c1.7,1.9-1.6,3.8,0.2,7.2
		c3.3-3.4,2.4-6.4,4.9-8.1c-0.8-1.3-2.8-0.6-4.4-0.4c1.4-2.5,2.9-4.9,4.5-7.3c0.8,4.4,2.4,2.7,4,7.2c1.8-0.6,2.1-2.3,4-2.8
		c2,1.4-1.1,4,1.3,5.7c5.5-2.9,2.1-8.8,5.7-10.9c-3.3-1.7-5,0.9-8.2,0.7c3.1-5.3-1.7-1.7-2.1-2.8c-0.3-1.1-0.4-2.5,0-3.9
		c1.8-2.4,3.6-4.7,5.5-7c0.4-0.2,0.8-0.4,1.3-0.5c-2,3.6-0.5,8.5,1.3,9.4c-0.3-1.2-1.9-11,5.6-12.3c1.6,2.3,2.2,1.5,1.3,5.8
		c4.4-1.4,2.7-4.2,8.8-5.9c0.7,2.3,3.2,1.3,1.3,4.6c3.2-2.8,7.9,0.1,13.6,0.4c-1,3.4,0.8,2.7-1.5,5.7c3.8,1.1,7.5,2.7,12.1,2.7
		c1,3.8-2.4,4.2-2.4,7.3c-3.7,0.9-4.5-3.3-7.9-2.8c0.2,7.1,6.9,5.9,6.6,9.7c-1.5,4.5-4.8-0.6-7.6,1c1.2,1.4,3.1,1.6,4.7,2.5
		c-8.6,7-10.8-8.3-20.7,0.1c2.3-6.3,7.7-4.7,8.5-13.1c-1.2-3.2-3.4-4.6-7.6-2.5c2.7-4.7-3-2-3.5-5.1c0,3.8-2.8,2.2-6.9,5.1
		c4.6,3.8-1.6,3.3,2.7,9.1c-5.3,4.4-2.4,2.3-8.2,4.3c2.7,3.1,6.6,4.3,11,4.9c-4.3,2.3-6.3,5.1-11.4,5.2c1-2,0.7-4.9,1.7-6.8
		c-0.1-2.2-4.8,3.7-6.3,1.1c0.4,2,1.9,2.1,4.3,0.9c-5.6,8-9.4,11.3-12.6,21.8c0.8,3.2,5.7-0.2,4.8,5.7c8-3.8,9.4,3.3,17.7-0.7
		c1.9,3.7,2.4,9.5,6.8,9.4c0.9-0.5,0.9-1.5,2-1.9c-0.9-2-1.2-4.9-3-5.5c0.4-3.5,4.6-4.1,4.7-7.8c0.1-4-1.9-4.6-3.9-5.2
		c2.6-4.8,0.3-6.4-0.2-12.7c7.3-3.3,9-0.5,15.4,0.3c0.2,1.7,0.4,3.3,0.6,5c0.4,1.3,2.2,0.2,2.5,1.9c4.8-0.5,2.7-6.2,6.9-7.2
		c4.3,9.6,8.3,12.5,17.1,16.4c-1.7,15-17.8,8.3-22.4,18.8c1.5,2.1,4-4.3,8.7-3.5c-2.6,4.6,0.2,7.3,4.8,7.9c3.4,0.9,1.7-7.3,4.1-3.6
		c1.8,3.3-5.9,7.8-9.9,10.3c-1.1-2.6,1.8-2.3,1.6-4.3c-5,0.7-5.2,5-9.5,6.2c0.3,1.6,0.5,3.3,0.8,4.9c-8.2,2.8-7.4,12.1-8.3,19.9
		c-4.6,1.7-5.4,6-7.8,9.3c1.7,4.8,6.4,7.2,4.9,12.7c-4.4-0.4-5.4-6.1-7.8-9.6c-2.4,4.1-10.4-3.4-11.2,3.7
		c-19.6-2.7-17.4,28-1.1,23.4c2.1-1.2,2.4-3.7,2.2-6.5c2.3-0.4,4.6-0.9,6.9-1.3c-1.3,2.8,0.8,7.9-1.3,10c2.7,2.1,9.1-1.6,11.1,1.7
		c-1.3,5.2,1.7,10.7,6.3,11.3c2.9,0,2-2.6,5.4-2.1c5.3,5.4,17.2,5.2,23.2,2.4c5,11.1,20.9,4,26,15c1.5,3.8-2.2,3.8-1.9,6.8
		c2.7,0.3,1-2.6,2.8-3c10.8,2,22.7,1.7,30.9,7.7c1.8,8.1-1.8,11.9-4.3,16.5c3.1,9.3,1.6,15,0.5,20.8c-6.2,0.2-7.4,4.2-10.5,6.7
		c2.2,6.1,1.2,13.4-2.2,11.8C150.9,305.9,149.4,308.7,148.4,311.8z M216.7,107.5c2.2-1.6-1.9-7.2-3.2-8.5
		C215.9,102.5,211.3,108.2,216.7,107.5z M304,226.9c1.4-0.5,2.8-1,4.2-1.5c2.3-7.2,7.6-22.5,2.1-27.5c-1,4.8-3.8,8.4-7.9,11
		C305.2,216.1,300.6,220.3,304,226.9z M293.7,116.1c3.4,5.3,8.1,5.9,9.6,10.2c4.5-0.3,7.1-1.8,7.2-4.8c2.7,2.6,6,4.1,9.6,5.2
		c-2.4,11.8-15.6,17-24.6,25.2c-7.9-9.9-16.6-19.4-25.3-29.5c-0.9,0.9-1,3.6-2,1.6c5.3,10.7,17.2,24.2,26.8,31.6
		c5.5-1,8.8-3.6,13.2-5.4c0,15.8-12.1,24.2-17.4,37.3c0.3,8.3,6,13.6,5.1,22.2c-2.8,3.9-7.6,6.4-8.8,11.5c-0.5,3.7,1.8,2.7,1.7,5.8
		c0.5,4.1-2.7,5.6-4.7,7.9c1.6,11.2-8.1,23.8-21.1,27.4c-6.3-10-10.9-23.7-17.9-34.2c-1.4-5.9-0.2-9.8,1.3-13.5
		c-1.2-9.3-6.1-14.6-12.6-19.2c0.8-2.7,0.4-6.3,0.7-9.3c-3.8-5.6-8.9,1-12.8-5.1c-8.1,2.4-13.5,8.7-20.8,8.4
		c-9-0.3-13.6-9.6-20.7-14.3c-3.2-14-5.3-31.8,6.1-39.7c-5.1-6.1,4.3-9.4,3.9-15.3c-0.8-2.7-3.4-2.2-6.2-1.4
		c-2.2-5-2.9-11.1-2.4-16.7c3.6,0.1,9.3-3.4,11.5-0.8c2.3-0.7-1-5.6,0.8-6.7c-1.5-4.4-6.8-2.2-8.4-6.4c4.4-1,6.8-2.9,10-7
		c-3-2.6-8.8,1.5-10.8,3.2c-0.5-1.7-2-7.5,1-10.7c-3.1-3.7-2.8-3-7-5.4c-1.1-3.6-1.2-6.5,0.4-8c4.3-1.4-0.5,4.1,5,1.8
		c-0.6,8,10.9,11.1,11.1,17.8c8.3-4,2.2-7.3,11.5-9.6c-1.6-4.4-2.3-7.4-3.4-8.5c1.5-0.9,1-1.4,3.7-3.1c-2.3,13,10.9,10.2,20.8,5
		c-0.6-2-1.2-4-1.8-6.1c1.4-2.5,2.7-0.4,5.5-0.6c-0.1-3.5-2.5-3-2.9-5.9c3-3.2,8.5,0.9,9.1-3.3c-6.6-1.2-13.6,5.7-16.8-7.2
		c2.2-2.4,4.3-4.7,5.3-7.8c-8.8-7.1-5.9,8.9-11,10.9c-0.5,4.8,6.7,5,4.3,7.1c-2.7,3.9,0.1,12.2-6.5,13.4c-2.3-3.3-4.4-6.8-6.3-10.7
		c-3.8,0.6-2.7,5.1-7.8,4.9c-3.5-4.4-3.2-4.9-5.4-12.1c13.3-11.1,14-39,36.1-31.7c0.4,1.1-1,0.9-1.7,1.2c8,2.6,17.4,2.8,23.8,8.8
		c1.3,6.5-6.1,3.5-11,2.6c0.6,1.7,2.8,8.6,9.5,7.9c-1.1-1.1-2.9-1.1-3.4-3.4c2.4-0.6,3.1,2,5.9,1c1.4-0.5-1-1.5-1.3-3.4
		c3.7-0.5,2.8-3.1,7.1-1.3c-0.1-0.2-0.2-0.4-0.3-0.6c31.3,21.4,54.9,54.1,64,93.8c-3.9,1-7.3,1.2-9.7-2.3
		C304.1,125.5,300,112.1,293.7,116.1z M267.2,105.7c-4.4,3.7-8.7-1.9-10,2.8c-6.3-1.3-8.1-3.4-9.6-9.8c-3.7-0.4-3.8,1.9-6.5,2.2
		c-0.3,4,2.5,2.7,3.5,4.5c-2.7,0-0.4,3.7-2.5,4.2c-6-10.2-14.6-15.4-22.5-19.4c-1.2,7.9,10.2,8,13.9,13.2c-5.6-2.9-0.8,4.9-5.3,7.3
		c-2.2,0.2-4-0.2-5.1-1.7c2.8-0.3,5.5-0.7,6.5-2.4c-3.1-7-11.7-4.5-14.6-11.8c-4.9,0.8-5.4,4.9-11.8,4.6c3,4.9-2.1,3.1-3.4,5.8
		c-2,4.5,1.8,13.1-8.8,13.5c0.1,5,5.7,0.6,8.5,1c3.1-5.6,16.5-7.4,21.9-7.9c-0.7,2.8,1.8,4.7-0.6,7.9c7.6-0.2,12.1,4.8,20,4.2
		c-1-2.7-0.8-4.7,1.2-5.3c9.5,1.4,16.8,0.4,26-0.7C267.3,113.6,269.4,111.1,267.2,105.7z M275.5,92.4c-4.1-5.4-10.9-5.2-11.7-11.8
		c0.3,2.7-6.3,0.5-4.6,4.2c2.4,2.4,2.3-1.8,3.7,0.8c-1,1.1-2.6,1.9-5.3,1.9c-2.3-2.6-0.2-2.7-3.6-4.5c-4.5,1.9-6.7,11.1-2.1,13.9
		c-1.2,0.1-2.7,1-0.8,1.4C257,90.7,267.3,96.4,275.5,92.4z M291.8,99.8c3.5-1,3.6,3.1,7.5,1.3c0-0.9,0.6-1.4,2-1.4
		c-0.5-4.1-2.9-5.2-4.6-7.5c0.9-2.8,4.3,1.7,2.8-2.6c-3.8,0.9-5.8-3.5-10.1-5.8c1.8-1.5,4.8-2.1,4.3-5c-4.9-3-7.8,2.8-10.3,4.5
		C287,90.8,293.9,91.2,291.8,99.8z M87.7,23c14-8.6,29.6-15.1,46.4-18.9c0.5,1.3,0.8,2.9,1.1,4.9c0.2,1.2,1.5,0.7,2.2,0.8
		c0.2,1.2-1,1.2-1.7,1.7c2,3,7.6-1,8.2,4.9c-2.9,1.5-3.9-0.6-6.3,0c-0.8,1.2,1.2,4.4-0.8,6.8c1.9-2.4,3.6-4.8,7.3-5.5
		c-0.4,7.7-3.9,13-9.4,16.7c2,6.4-1.7,12.5-5.6,10.6c1.4,4.2-5.8,7.9-0.9,13.5c-1.3,0.8-1.3,2.7-2.7,3.3c2.7,3.9,0.9,6.2,2,11.5
		c-3.3,0.8-6.9,2.5-7.1-2.3c-5.6,7.3-11.2-0.9-16-3.7c-1.3-3.3,1.7-3.1,1.4-5.7c-3.6,5.9-7.2-4.2-7.7-9.7C99.1,49.5,105,45,101,42
		c-3.7,0.6,1.4,4.9-4.6,5.4c-2.2-1.8-0.5-3.2-0.8-6.4c2.3-1.1,3.9-1,5.2-0.3c-1.3-5.4-4-3.5-7.5-1.7C95,32.9,92.6,25.3,87.7,23z
		 M135.2,14.3c-2.2-3.4,0.2-5-3.2-6C130.5,11.2,133.6,12.5,135.2,14.3z M107.9,112.7c-1.2,3.6-2.4,7-2.8,11.2
		c6.7-1.3,7.9-2.3,11.6-0.2c-0.4-3.9-4.4-4.1-2.4-7.3C108,119.3,109.8,114.5,107.9,112.7z M158.6,40.2c-5.3-3.7-8.4-1.1-13.6,2.7
		c0.1-4.9-6.4-1.5-5.2,1.1c5.5-2.7,4.1,3,4.4,5.7C151.9,49.8,157,47.1,158.6,40.2z M68.4,193.6c6.5-4.8,11.8,2.6,19.3,1.3
		C84.1,191.2,71.9,187,68.4,193.6z M89.7,198.3c4.3-0.7,7.8-2,9.8-4.4c-2.6,0.2-9.2-1.3-9.4,0.5c0.7-0.1,1.4-0.1,1.4,1
		C91.8,197,89.7,196.9,89.7,198.3z M211.4,63.2c-0.7,0.1-1.5,0.2-2.2,0.3c0.2,0.8,0.4,1.6,0.7,2.5c0.7-0.1,1.5-0.2,2.2-0.3
		C211.8,64.8,211.6,64,211.4,63.2z M65.3,74.5c2.4-0.5,3.9-1.6,3.9-3.9C67.5,69.2,64.5,70.8,65.3,74.5z M176.5,69.9
		c0.1,1.6-1,1-2.2,0.4c0.7,2.3-0.4,3.2-2.7,3.1c1.3,4.6,2.6,4.6,2,8.9c4.2,0.1,3.6-3.5,7.2-3.9C179.7,74.8,179.7,69.5,176.5,69.9z
		 M59.3,45.3C57.2,47.5,55,49.7,53,52C55.8,50.8,58.3,49,59.3,45.3z M18.2,197.2c0.3,1.1,0.6,2.2,0.9,3.3c0.5-0.1,1-0.4,1.6-1
		C20,198.7,19.2,198,18.2,197.2z"/>
	<path id="XMLID_3081_" class="st2" d="M223.2,173.6c-33.4,42.3-79,81.2-134.1,88.9c-26.2,3.6-56.3-0.6-75.6-20.3
		c-16.7-17-18.9-44.6-0.6-61.3c-26.1,54.4,44.3,73.3,84.5,66.3C146.5,238.6,187.8,207.1,223.2,173.6z"/>
	<path id="XMLID_3080_" class="st2" d="M217.3,140.6c-0.5,0-1.7,0.3-2.5,1.1c-0.8,0.9-2.1,2.4-2.1,2.4l23.7,9.5
		c1.7-3.1,4.1-6.9,7-11.2L217.3,140.6z"/>
	<path id="XMLID_3072_" class="st2" d="M300.4,71.6l-26.8-5.4c-0.4,0.6-1,1.3-1.7,2.1c-4.4,4.9-12.4,11.1-14.2,9.5
		c-1.6-1.4,2.4-8.5,6.4-13.5l-18.7-3.8c-0.4,0.6-0.9,1.2-1.5,1.8c-4.4,4.9-12.5,11.1-14.2,9.5c-1.5-1.4,2.3-8.3,6.2-13.3l-26.4-5.3
		c-1.5-0.3-5.1,0.3-7,2.4c-2.1,2.4-5.6,6.3-5.6,6.3L280,94.8c4.7-5.6,9.4-11.1,13.8-16C296.1,76.1,298.3,73.7,300.4,71.6z"/>
	<path id="XMLID_3066_" class="st3" d="M273.6,59.9c-1.8-1.6-3.7-2.3-8.1,2.6c-0.5,0.5-0.9,1.1-1.4,1.7l9.5,1.9
		C275.9,62.8,275,61.3,273.6,59.9z"/>
	<path id="XMLID_3059_" class="st2" d="M257.7,77.8c1.8,1.6,9.8-4.6,14.2-9.5c0.7-0.8,1.2-1.5,1.7-2.1l-9.5-1.9
		C260.1,69.3,256.1,76.4,257.7,77.8z"/>
	<path id="XMLID_3057_" class="st4" d="M245.6,54c-1.8-1.6-3.7-2.3-8.1,2.6c-0.5,0.6-1.1,1.3-1.6,1.9l9.5,1.9
		C248,56.9,247.1,55.4,245.6,54z"/>
	<path id="XMLID_3044_" class="st2" d="M229.7,71.8c1.8,1.6,9.8-4.6,14.2-9.5c0.6-0.7,1.1-1.3,1.5-1.8l-9.5-1.9
		C232,63.6,228.1,70.4,229.7,71.8z"/>
	<path id="XMLID_3029_" class="st2" d="M249.6,144.2C249.6,144.2,249.6,144.2,249.6,144.2l78.3-87.8c0,0,0,0,0,0
		c-1.6-1.4-3.4-2.3-5.1-2.6c2.2-2,5.5-2.2,7.6-0.2l0,0l1.1-1.2c0,0,0,0,0,0c-4-3.5-9.7-3.7-31.2,19.3l4.3,0.9l-21.1,23.7l-3.5-1.4
		c-13.6,16.3-27.6,34.4-36.6,47.7l4.8,0.4L238,154.3l-1.6-0.6c-1.9,3.4-2.9,6-2.7,7.3c2.7-3.3,6.1-7.3,8.9-10.4
		C248.2,144.1,249.2,143.8,249.6,144.2z"/>
	<path id="XMLID_3028_" class="st2" d="M248.1,142.8l-4.8-0.4c-2.9,4.3-5.3,8.1-7,11.2l1.6,0.6L248.1,142.8z"/>
	<path id="XMLID_3027_" class="st2" d="M304.6,72.4l-4.3-0.9c-2,2.2-4.2,4.6-6.6,7.2c-4.4,4.9-9.1,10.4-13.8,16l3.5,1.4L304.6,72.4z
		"/>
	<path id="XMLID_3026_" class="st2" d="M249.6,144.2L234,161.7l-4.9,5.5c0.3,0.1,2.7-2.2,5.7-5.3c3-3.1,6.5-6.9,9.3-10
		C249.7,145.6,250,144.6,249.6,144.2z"/>
	<path id="XMLID_3020_" class="st2" d="M331.1,61.1c1.7-2.4,1.5-5.6-0.6-7.6l-2.5,2.8C329.5,57.7,330.6,59.4,331.1,61.1z"/>
	<path id="XMLID_3019_" class="st5" d="M253.9,180.8c0,0,1.3-1.5,2.1-2.4c0.7-0.8,0.9-2.1,0.9-2.6l-4.9-25.7
		c-3.9,3.4-7.4,6.2-10.3,8.2L253.9,180.8z"/>
	<path id="XMLID_3007_" class="st5" d="M295.2,108.3l42.1,78.8c0,0,3.5-3.9,5.6-6.3c1.9-2.1,2.1-5.9,1.6-7.3l-8.3-25.6
		c-4.5,4.5-10.9,9.1-12.5,7.7c-1.8-1.6,3.4-10.3,7.8-15.2c0.6-0.7,1.1-1.2,1.6-1.7l-5.9-18.1c-4.5,4.5-11.1,9.3-12.7,7.9
		c-1.8-1.6,3.4-10.3,7.8-15.2c0.7-0.8,1.3-1.4,1.9-1.9l-8.4-26c-1.9,2.3-4.1,4.7-6.4,7.3C305.1,97.7,300.3,103,295.2,108.3z"/>
	<path id="XMLID_3006_" class="st3" d="M328.8,119c4.4-4.9,3.4-6.7,1.7-8.3c-1.5-1.3-3.1-2.1-6.2,0.7l3,9.2
		C327.9,120.1,328.4,119.6,328.8,119z"/>
	<path id="XMLID_3005_" class="st5" d="M314.6,128.6c1.6,1.4,8.2-3.4,12.7-7.9l-3-9.2c-0.6,0.5-1.2,1.1-1.9,1.9
		C318.1,118.3,312.9,127,314.6,128.6z"/>
	<path id="XMLID_3004_" class="st4" d="M338,146.2c4.4-4.9,3.4-6.7,1.7-8.3c-1.5-1.4-3.2-2.1-6.4,0.9l3,9.2
		C336.8,147.4,337.4,146.8,338,146.2z"/>
	<path id="XMLID_3003_" class="st5" d="M323.7,155.7c1.5,1.4,8-3.2,12.5-7.7l-3-9.2c-0.5,0.5-1.1,1-1.6,1.7
		C327.2,145.4,322,154.1,323.7,155.7z"/>
	<path id="XMLID_3001_" class="st5" d="M293.5,105l21.1-23.7l1.3,4.1c20.4-23.9,19.6-29.6,15.6-33.2l-1.1,1.2
		c2.1,1.9,2.3,5.2,0.6,7.6c-0.5-1.7-1.6-3.3-3.1-4.8l-78.3,87.8c0.4,0.4,0.1,1.5-5.5,7.8c-2.8,3.1-6.4,7-9.3,10
		c1.3,0,3.7-1.3,6.9-3.6l-0.8-1.5l10.2-11.4l0.9,4.7c12.2-10.5,28.6-26.5,43.2-41.9L293.5,105z"/>
	<path id="XMLID_3000_" class="st5" d="M240.9,156.9l0.8,1.5c2.9-2,6.4-4.8,10.3-8.2l-0.9-4.7L240.9,156.9z"/>
	<path id="XMLID_2999_" class="st5" d="M293.5,105l1.7,3.3c5.1-5.3,9.9-10.6,14.3-15.5c2.3-2.6,4.5-5.1,6.4-7.3l-1.3-4.1L293.5,105z
		"/>
	<path id="XMLID_2957_" class="st6" d="M249.6,144.2c-0.4-0.4-1.4,0-7.1,6.4c-2.8,3.1-6.2,7.1-8.9,10.4c-2.8,3.4-4.8,6.1-4.6,6.3
		c0,0,0,0,0,0l4.9-5.5L249.6,144.2C249.6,144.2,249.6,144.2,249.6,144.2z"/>
	<path id="XMLID_2956_" class="st7" d="M322.8,53.7c1.7,0.3,3.5,1.2,5.1,2.6c0,0,0,0,0,0l2.5-2.8l0,0
		C328.3,51.6,325,51.7,322.8,53.7z"/>
</g>
</svg>
