<?xml version="1.0" encoding="utf-8"?>
<!-- Generator: Adobe Illustrator 21.0.2, SVG Export Plug-In . SVG Version: 6.00 Build 0)  -->
<svg version="1.1" id="Layer_1" xmlns="http://www.w3.org/2000/svg" xmlns:xlink="http://www.w3.org/1999/xlink" x="0px" y="0px"
	 viewBox="0 0 150.1 166.9" style="enable-background:new 0 0 150.1 166.9;" xml:space="preserve">
<style type="text/css">
	.st0{fill:#244065;}
	.st1{fill:#D3D4D5;}
	.st2{fill:#26C6DA;}
	.st3{fill:#8FD0BD;}
	.st4{fill:#FFDC2E;}
	.st5{fill:#005779;}
	.st6{fill:#90A4AE;}
	.st7{fill:#C64639;}
	.st8{fill:#FFFFFF;}
</style>
<g>
	<rect id="XMLID_1_" x="9" y="81.3" class="st0" width="136.8" height="63.9"/>
	<path id="XMLID_4742_" class="st1" d="M83.4,72.7h-3.5c-1-0.1-2-0.1-2.9-0.2c0-10.8,0-21.6,0-32.5c0-12.3,0.1-24.6,0-36.9
		c0-2.2,0.4-3.5,2.9-3.1c0,3.1,0,6.2,0,9.2c0,9.1,0.1,18.3-0.1,27.4c0,2.9,0.8,3.9,3.8,4c8.5,0.2,16.9,1.9,24.9,4.9
		c2.7,1,3.5,0.4,3.5-2.5c-0.2-7.5,0.1-15-0.1-22.4c-0.1-2.8,0.7-4,3.5-3.6c0,3.1,0,6.2,0.1,9.3c0,6.2,0.1,12.3-0.1,18.5
		c-0.1,2.4,0.7,3.6,2.8,4.6c11.2,4.9,20.8,12,29.3,20.8c0.7,0.7,1.3,1.6,2,2.5c-1.1,0-2.1,0-3.2,0h-3.2c-1.2,0-2.4,0-3.5,0
		c-1.1,0-2.2,0-3.2,0c-1.1,0-2.2,0-3.3,0c-1.2,0-2.3,0-3.4,0c-1.1,0-2.2,0-3.3,0h-3.2c-1.2,0-2.3,0-3.5,0c-1.1,0-2.2,0-3.3,0
		c-1.1,0-2.2,0-3.2,0c-1.1,0-2.3,0-3.4,0c-1.1,0-2.2,0-3.3,0h-3.2h-3.5h-3.2c-1.1,0-2.2,0-3.3,0c-1.1,0-2.3,0-3.4,0
		c-1.1,0-2.2,0-3.3,0H83.4z"/>
	<path id="XMLID_4741_" class="st2" d="M77,40.1c0,10.8,0,21.6,0,32.5l-0.2,0.2c-24.3,0-48.6-0.1-72.8-0.1
		c8.1-9.5,18-16.7,29.2-22.1c2.6-1.3,3.5-2.8,3.5-5.7c-0.2-8.5,0-17.1-0.1-25.6c0-2.3,0.5-3.6,3.1-2.2c0.4,3.1-0.6,6.3,0.6,9.4
		c-0.1,6-0.1,12.1-0.2,18.1c0,1.9,0.4,2.6,2.4,1.8c7.3-2.8,14.9-4.6,22.6-5.4C68.9,40.6,73,40.4,77,40.1"/>
	<path id="XMLID_4740_" class="st3" d="M55.5,17c-4.9-0.1-9.8-0.2-14.7-0.3C45.7,16.4,50.6,15.9,55.5,17"/>
	<rect id="XMLID_4727_" x="38.4" y="16.7" class="st2" width="18.3" height="9.7"/>
	<rect id="XMLID_4715_" x="79.5" y="0" class="st4" width="18.3" height="9.7"/>
	<rect id="XMLID_4592_" x="115.3" y="16.7" class="st5" width="18.3" height="9.7"/>
	<path id="XMLID_3632_" class="st6" d="M3.9,72.1l-0.5,0.5v72.3l0.5,0.5h22.1l0.5-0.5V93.5c0-1.3,0.5-2.5,1.4-3.3
		c0.9-0.9,2-1.4,3.3-1.4c1.3,0,2.5,0.5,3.3,1.4c0.9,0.9,1.4,2,1.4,3.3v51.5l0.5,0.5h34.8l0.5-0.5V93.5c0-1.3,0.5-2.5,1.4-3.3
		c0.9-0.9,2-1.4,3.3-1.4c1.3,0,2.5,0.5,3.3,1.4c0.9,0.9,1.4,2,1.4,3.3v51.5l0.5,0.5h34.8l0.5-0.5V93.5c0-1.3,0.5-2.5,1.4-3.3
		c0.9-0.9,2-1.4,3.3-1.4c1.3,0,2.5,0.5,3.3,1.4c0.9,0.9,1.4,2,1.4,3.3v51.5l0.5,0.5h22.4l0.5-0.5V72.6l-0.5-0.5v0.5L3.9,72.1z"/>
	<path id="XMLID_4743_" class="st7" d="M78.8,156h-6.7c-8.5,0-15.5-6.9-15.5-15.5v-39.9c0-8.5,6.9-15.5,15.5-15.5h6.7
		c8.5,0,15.5,6.9,15.5,15.5v39.9C94.2,149.1,87.3,156,78.8,156z"/>
	<rect id="XMLID_4744_" y="145.2" class="st8" width="150.1" height="21.6"/>
</g>
</svg>
