<?xml version="1.0" encoding="utf-8"?>
<!-- Generator: Adobe Illustrator 21.0.2, SVG Export Plug-In . SVG Version: 6.00 Build 0)  -->
<svg version="1.1" id="Objects" xmlns="http://www.w3.org/2000/svg" xmlns:xlink="http://www.w3.org/1999/xlink" x="0px" y="0px"
	 viewBox="0 0 271.4 177.9" style="enable-background:new 0 0 271.4 177.9;" xml:space="preserve">
<style type="text/css">
	.st0{opacity:0.77;fill:#BDBDBD;}
	.st1{fill:#F5F5F5;}
	.st2{fill:#E0E0E0;}
	.st3{fill:#BDBDBD;}
	.st4{fill:#C64639;}
	.st5{fill:#2AC9DE;}
</style>
<g>
	<circle class="st0" cx="138.6" cy="91.8" r="86"/>
	<path class="st0" d="M9.1,5.8C6.7,5.6,4.8,7.4,4.8,9.7V23v7.4c0,4.6,3.7,8.3,8.3,8.3h1v33.1H14V75h-0.1c-1.2,0-2.2,1-2.2,2.2v98.4
		c0,1.2,1,2.2,2.2,2.2h13c1.2,0,2.2-1,2.2-2.2V77.2c0-1.2-1-2.2-2.2-2.2h-0.1v-3.1h-0.1V38.8h1c4.6,0,8.3-3.7,8.3-8.3V9.7
		c0-2.3-2-4.1-4.3-3.8c-2,0.2-3.5,2-3.5,4.1V23h-3.9V9.9c0-2-1.5-3.9-3.5-4.1c-2.3-0.2-4.3,1.6-4.3,3.8V23h-3.9V9.9
		C12.5,7.9,11.1,6,9.1,5.8z"/>
	<path class="st0" d="M269,5.8c0,0-24.3,2.7-24.3,43c0,40.3,11.5,43,11.5,43v3.1h-0.1c-1.2,0-2.2,1-2.2,2.2v78.5
		c0,1.2,1,2.2,2.2,2.2h13c1.2,0,2.2-1,2.2-2.2V97.2c0-1.2-1-2.2-2.2-2.2H269v-3.1V5.8z"/>
	<g>
		<circle class="st1" cx="133.8" cy="86" r="86"/>
		<circle class="st2" cx="133.8" cy="86" r="60.8"/>
		<path class="st3" d="M133.8,33.5c32.2,0,58.6,25.1,60.7,56.8c0.1-1.4,0.2-2.9,0.2-4.3c0-33.6-27.2-60.8-60.8-60.8
			C100.2,25.2,73,52.4,73,86c0,1.4,0.1,2.9,0.2,4.3C75.2,58.6,101.6,33.5,133.8,33.5z"/>
	</g>
	<path class="st4" d="M22.1,69.2H9c-1.2,0-2.2,1-2.2,2.2v98.4c0,1.2,1,2.2,2.2,2.2h13c1.2,0,2.2-1,2.2-2.2V71.5
		C24.3,70.2,23.3,69.2,22.1,69.2z"/>
	<path class="st1" d="M26.8,0c-2,0.2-3.5,2-3.5,4.1v13.2h-3.9V4.1c0-2-1.5-3.9-3.5-4.1c-2.3-0.2-4.3,1.6-4.3,3.8v13.4H7.7V4.1
		c0-2-1.5-3.9-3.5-4.1C2-0.2,0,1.6,0,3.9v13.4v7.4C0,29.3,3.7,33,8.3,33h1v36.2h12.5V33h1c4.6,0,8.3-3.7,8.3-8.3V3.9
		C31.1,1.6,29.1-0.2,26.8,0z"/>
	<path class="st5" d="M264.4,89.1h-13c-1.2,0-2.2,1-2.2,2.2v78.5c0,1.2,1,2.2,2.2,2.2h13c1.2,0,2.2-1,2.2-2.2V91.4
		C266.6,90.1,265.6,89.1,264.4,89.1z"/>
	<rect x="251.5" y="86" class="st2" width="12.8" height="3.1"/>
	<path class="st1" d="M264.2,0c0,0-24.3,2.7-24.3,43s11.5,43,11.5,43h12.8V0z"/>
</g>
</svg>
