<?xml version="1.0" encoding="utf-8"?>
<!-- Generator: Adobe Illustrator 21.0.2, SVG Export Plug-In . SVG Version: 6.00 Build 0)  -->
<svg version="1.1" id="Layer_1" xmlns="http://www.w3.org/2000/svg" xmlns:xlink="http://www.w3.org/1999/xlink" x="0px" y="0px"
	 viewBox="0 0 191.1 210.5" style="enable-background:new 0 0 191.1 210.5;" xml:space="preserve">
<style type="text/css">
	.st0{opacity:0.77;}
	.st1{fill:#CCCCCC;stroke:#CCCCCC;stroke-width:3;stroke-miterlimit:10;}
	.st2{fill:#BDBDBD;}
	.st3{fill:#90A4AE;stroke:#90A4AE;stroke-width:3;stroke-miterlimit:10;}
	.st4{fill:#8FD0BD;}
	.st5{fill:#C62229;}
	.st6{fill:#FFFFFF;}
	.st7{fill:#80C6E7;}
	.st8{fill:#005779;}
	.st9{fill:#EECF66;}
</style>
<g>
	<g id="XMLID_3615_" class="st0">
		<path id="XMLID_3631_" class="st1" d="M64.7,166.1c0,0-0.9,4.5-0.9,10.5c0,6.2,0.9,14.1,4.7,20.5c1.9,3.2,4.6,6.1,8.2,8.1
			c3.6,2,8.2,3.3,13.9,3.2c0.5,0,1,0,1.5,0c5.9-0.2,10.6-1.6,14.3-3.9c5.6-3.4,8.9-8.9,10.7-15.1c1.8-6.2,2.3-13.3,2.3-20.3
			c0-6.8-0.4-13.6-0.5-19.4c0-0.5,0-0.9,0-1.4c0-8.9,1.3-17.9,5.1-24.7c1.9-3.4,4.4-6.1,7.7-8.1c3.3-2,7.5-3.1,12.7-3.1
			c5.9,0,10.3,1.4,13.6,3.4c4.9,3,7.5,7.7,8.8,11.8c1.3,4.1,1.4,7.7,1.4,8.5v0.1v0v0v18.4h2.3v-18.4h-1.2l1.2,0c0,0,0-0.1,0-0.2
			c0-1.2-0.1-7.6-3.5-13.8c-1.7-3.1-4.2-6.2-7.9-8.4c-3.7-2.3-8.5-3.7-14.8-3.7c-5.6,0-10.1,1.2-13.8,3.4
			c-5.6,3.3-9.1,8.6-11.2,14.8c-2.1,6.2-2.8,13.2-2.8,20c0,0.5,0,0.9,0,1.4c0.1,5.9,0.5,12.6,0.5,19.3c0,9.2-0.8,18.4-4.4,25.1
			c-1.8,3.4-4.2,6.2-7.5,8.3c-3.3,2-7.6,3.3-13.2,3.5c-0.5,0-0.9,0-1.4,0c-5.3,0-9.5-1.1-12.7-3c-4.9-2.7-7.8-7.1-9.5-12
			c-1.7-4.9-2.2-10.2-2.2-14.7c0-2.9,0.2-5.4,0.4-7.2c0.1-0.9,0.2-1.6,0.3-2.1c0-0.2,0.1-0.4,0.1-0.6c0-0.1,0-0.2,0-0.2L64.7,166.1z
			"/>
		<path id="XMLID_3630_" class="st2" d="M189.3,172.9h-1.8c0,5-2,9.5-5.3,12.8c-3.3,3.3-7.8,5.3-12.8,5.3c-5,0-9.5-2-12.8-5.3
			c-3.3-3.3-5.3-7.8-5.3-12.8c0-5,2-9.5,5.3-12.8c3.3-3.3,7.8-5.3,12.8-5.3c5,0,9.5,2,12.8,5.3c3.3,3.3,5.3,7.8,5.3,12.8H189.3h1.8
			c0-12-9.7-21.7-21.7-21.7c-12,0-21.7,9.7-21.7,21.7c0,12,9.7,21.7,21.7,21.7c12,0,21.7-9.7,21.7-21.7H189.3z"/>
		<path id="XMLID_3626_" class="st2" d="M169.6,160.3c-7.4-0.1-12.9,5.1-13.1,12.4c-0.1,6.4,6,12.6,12.7,12.7
			c6.7,0.1,13-6.1,13-12.8C182.2,165.8,176.6,160.4,169.6,160.3 M166.9,150.8c1.6,0.3,3.3,0.4,4.9,0c4.6,1.3,9.1,2.8,12.7,6.4
			c7,7.1,8.7,16.8,4.1,25.5c-4.5,8.6-14.7,13.3-23.9,11.1c-9.1-2.1-16.4-10.5-16.9-19.3c-0.6-10.3,5.2-19.1,14.6-22.3
			C163.8,151.7,165.4,151.3,166.9,150.8"/>
		<path id="XMLID_3623_" class="st2" d="M169.1,179c3.7,0.1,6.5-2.4,6.6-6c0.2-3.8-2.6-6.8-6.4-6.8c-3.5,0-6.3,2.8-6.4,6.4
			C162.9,176.2,165.5,178.9,169.1,179 M169.5,160.3c7.1,0.1,12.7,5.5,12.6,12.3c0,6.8-6.3,12.9-13,12.8c-6.6-0.1-12.8-6.3-12.7-12.7
			C156.7,165.5,162.1,160.3,169.5,160.3"/>
		<path id="XMLID_3622_" class="st1" d="M9.7,86.5c0-6.4-0.3-21-0.3-34c0-5.2,0-10.1,0.1-14.2c0.1-4,0.3-7.2,0.6-8.7
			c1.2-6.9,4.4-12.1,9-15.6c4.6-3.6,10.6-5.5,17.4-5.5c0.1,0,0.3,0,0.4,0l0-2.3c-0.1,0-0.3,0-0.4,0c-7.3,0-13.8,2-18.8,5.9
			c-5,3.9-8.6,9.7-9.8,17.1c-0.3,1.8-0.5,5-0.6,9c-0.1,4.1-0.2,9-0.2,14.2c0,13,0.3,27.7,0.3,34H9.7z"/>
		<path id="XMLID_3621_" class="st1" d="M123.4,86.5c0-6.3,0.3-21,0.3-34c0-5.2,0-10.2-0.2-14.2c-0.1-4.1-0.3-7.3-0.6-9
			c-1.3-7.3-4.8-13.1-9.8-17.1c-5-3.9-11.6-5.9-18.8-5.9c-0.1,0-0.3,0-0.4,0l0,2.3c0.1,0,0.3,0,0.4,0c6.8,0,12.9,1.9,17.4,5.5
			s7.8,8.8,9,15.6c0.3,1.5,0.5,4.7,0.6,8.7c0.1,4,0.1,9,0.1,14.2c0,13-0.3,27.6-0.3,34H123.4z"/>
		<path id="XMLID_3619_" class="st2" d="M169.1,179c-3.7-0.1-6.3-2.8-6.2-6.4c0.1-3.6,2.9-6.4,6.4-6.4c3.8,0,6.6,3,6.4,6.8
			C175.6,176.6,172.9,179.1,169.1,179"/>
		<path id="XMLID_3618_" class="st2" d="M102.8,9.8c0,4.3-3.5,7.7-7.7,7.7c-4.3,0-7.7-3.5-7.7-7.7c0-4.3,3.4-7.7,7.7-7.7
			C99.3,2,102.8,5.5,102.8,9.8"/>
		<path id="XMLID_3617_" class="st2" d="M45.1,9.8c0,4.3-3.4,7.7-7.7,7.7c-4.3,0-7.7-3.5-7.7-7.7c0-4.3,3.5-7.7,7.7-7.7
			C41.7,2,45.1,5.5,45.1,9.8"/>
		<path id="XMLID_3616_" class="st2" d="M5.9,83.2c0,0-6.2,30.7,46.9,66.9c0,0,8.6,6.3,8.3,18.7c0,0-0.3,2.7,3.4,2.7
			c3.7,0,6.1,0.5,5.9-3.1c-0.1-3.7,0.8-10.2,6.1-15.1c5.3-5,55.2-42.2,48.7-72.6c0,0-11.4-1.2-15.7,11.9
			c-4.4,13.1-17.4,32.7-38.8,33.5c-21.4,0.8-34.5-7.2-49-33.8C11.9,74,5.9,83.2,5.9,83.2"/>
	</g>
	<path id="XMLID_3611_" class="st3" d="M58.9,166.1c0,0-0.9,4.5-0.9,10.5c0,6.2,0.9,14.1,4.7,20.5c1.9,3.2,4.6,6.1,8.2,8.1
		c3.6,2,8.2,3.3,13.9,3.2c0.5,0,1,0,1.5,0c5.9-0.2,10.6-1.6,14.3-3.9c5.6-3.4,8.9-8.9,10.7-15.1c1.8-6.2,2.3-13.3,2.3-20.3
		c0-6.8-0.4-13.6-0.5-19.4c0-0.5,0-0.9,0-1.4c0-8.9,1.3-17.9,5.1-24.7c1.9-3.4,4.4-6.1,7.7-8.1c3.3-2,7.5-3.1,12.7-3.1
		c5.9,0,10.3,1.4,13.6,3.4c4.9,3,7.5,7.7,8.8,11.8c1.3,4.1,1.4,7.7,1.4,8.5v0.1v0v0v18.4h2.3v-18.4h-1.2l1.2,0c0,0,0-0.1,0-0.2
		c0-1.2-0.1-7.6-3.5-13.8c-1.7-3.1-4.2-6.2-7.9-8.4c-3.7-2.3-8.5-3.7-14.8-3.7c-5.6,0-10.1,1.2-13.8,3.4c-5.6,3.3-9.1,8.6-11.2,14.8
		c-2.1,6.2-2.8,13.2-2.8,20c0,0.5,0,0.9,0,1.4c0.1,5.9,0.5,12.6,0.5,19.3c0,9.2-0.8,18.4-4.4,25.1c-1.8,3.4-4.2,6.2-7.5,8.3
		c-3.3,2-7.6,3.3-13.2,3.5c-0.5,0-0.9,0-1.4,0c-5.3,0-9.5-1.1-12.7-3c-4.9-2.7-7.8-7.1-9.5-12c-1.7-4.9-2.2-10.2-2.2-14.7
		c0-2.9,0.2-5.4,0.4-7.2c0.1-0.9,0.2-1.6,0.3-2.1c0-0.2,0.1-0.4,0.1-0.6c0-0.1,0-0.2,0-0.2L58.9,166.1z"/>
	<path id="XMLID_3610_" class="st4" d="M183.6,172.9h-1.8c0,5-2,9.5-5.3,12.8c-3.3,3.3-7.8,5.3-12.8,5.3c-5,0-9.5-2-12.8-5.3
		c-3.3-3.3-5.3-7.8-5.3-12.8c0-5,2-9.5,5.3-12.8c3.3-3.3,7.8-5.3,12.8-5.3c5,0,9.5,2,12.8,5.3c3.3,3.3,5.3,7.8,5.3,12.8H183.6h1.8
		c0-12-9.7-21.7-21.7-21.7c-12,0-21.7,9.7-21.7,21.7c0,12,9.7,21.7,21.7,21.7c12,0,21.7-9.7,21.7-21.7H183.6z"/>
	<path id="XMLID_3684_" class="st5" d="M163.8,160.3c-7.4-0.1-12.9,5.1-13.1,12.4c-0.1,6.4,6,12.6,12.7,12.7c6.7,0.1,13-6.1,13-12.8
		C176.5,165.8,170.9,160.4,163.8,160.3 M161.2,150.8c1.6,0.3,3.3,0.4,4.9,0c4.6,1.3,9.1,2.8,12.7,6.4c7,7.1,8.7,16.8,4.1,25.5
		c-4.5,8.6-14.7,13.3-23.9,11.1c-9.1-2.1-16.4-10.5-16.9-19.3c-0.6-10.3,5.2-19.1,14.6-22.3C158.1,151.7,159.7,151.3,161.2,150.8"/>
	<path id="XMLID_3681_" class="st6" d="M163.4,179c3.7,0.1,6.5-2.4,6.6-6c0.2-3.8-2.6-6.8-6.4-6.8c-3.5,0-6.3,2.8-6.4,6.4
		C157.1,176.2,159.8,178.9,163.4,179 M163.8,160.3c7.1,0.1,12.7,5.5,12.6,12.3c0,6.8-6.3,12.9-13,12.8c-6.6-0.1-12.8-6.3-12.7-12.7
		C150.9,165.5,156.4,160.3,163.8,160.3"/>
	<path id="XMLID_3604_" class="st3" d="M4,86.5c0-6.4-0.3-21-0.3-34c0-5.2,0-10.1,0.1-14.2c0.1-4,0.3-7.2,0.6-8.7
		c1.2-6.9,4.4-12.1,9-15.6C18,10.4,24,8.5,30.9,8.5c0.1,0,0.3,0,0.4,0l0-2.3c-0.1,0-0.3,0-0.4,0c-7.3,0-13.8,2-18.8,5.9
		c-5,3.9-8.6,9.7-9.8,17.1c-0.3,1.8-0.5,5-0.6,9c-0.1,4.1-0.2,9-0.2,14.2c0,13,0.3,27.7,0.3,34H4z"/>
	<path id="XMLID_3603_" class="st3" d="M117.7,86.5c0-6.3,0.3-21,0.3-34c0-5.2,0-10.2-0.2-14.2c-0.1-4.1-0.3-7.3-0.6-9
		c-1.3-7.3-4.8-13.1-9.8-17.1c-5-3.9-11.6-5.9-18.8-5.9c-0.1,0-0.3,0-0.4,0l0,2.3c0.1,0,0.3,0,0.4,0c6.8,0,12.9,1.9,17.4,5.5
		s7.8,8.8,9,15.6c0.3,1.5,0.5,4.7,0.6,8.7c0.1,4,0.1,9,0.1,14.2c0,13-0.3,27.6-0.3,34H117.7z"/>
	<path id="XMLID_3602_" class="st7" d="M163.4,179c-3.7-0.1-6.3-2.8-6.2-6.4c0.1-3.6,2.9-6.4,6.4-6.4c3.8,0,6.6,3,6.4,6.8
		C169.9,176.6,167.2,179.1,163.4,179"/>
	<path id="XMLID_3593_" class="st8" d="M97.1,9.8c0,4.3-3.5,7.7-7.7,7.7c-4.3,0-7.7-3.5-7.7-7.7c0-4.3,3.4-7.7,7.7-7.7
		C93.6,2,97.1,5.5,97.1,9.8"/>
	<path id="XMLID_3354_" class="st8" d="M39.4,9.8c0,4.3-3.4,7.7-7.7,7.7c-4.3,0-7.7-3.5-7.7-7.7C24,5.5,27.5,2,31.7,2
		C36,2,39.4,5.5,39.4,9.8"/>
	<path id="XMLID_3353_" class="st9" d="M0.2,83.2c0,0-6.2,30.7,46.9,66.9c0,0,8.6,6.3,8.3,18.7c0,0-0.3,2.7,3.4,2.7
		c3.7,0,6.1,0.5,5.9-3.1c-0.1-3.7,0.8-10.2,6.1-15.1c5.3-5,55.2-42.2,48.7-72.6c0,0-11.4-1.2-15.7,11.9
		C99.5,105.6,86.4,125.2,65,126c-21.4,0.8-34.5-7.2-49-33.8C6.1,74,0.2,83.2,0.2,83.2"/>
</g>
</svg>
