<?xml version="1.0" encoding="utf-8"?>
<!-- Generator: Adobe Illustrator 21.0.2, SVG Export Plug-In . SVG Version: 6.00 Build 0)  -->
<svg version="1.1" id="Objects" xmlns="http://www.w3.org/2000/svg" xmlns:xlink="http://www.w3.org/1999/xlink" x="0px" y="0px"
	 viewBox="0 0 332.9 237.2" style="enable-background:new 0 0 332.9 237.2;" xml:space="preserve">
<style type="text/css">
	.st0{opacity:0.49;}
	.st1{fill:#BDBDBD;}
	.st2{fill:none;}
	.st3{font-family:'Roboto-Regular';}
	.st4{font-size:16px;}
	.st5{opacity:0.3;fill:#BDBDBD;}
	.st6{fill:#002C3D;}
	.st7{fill:#E3715D;}
	.st8{fill:#FFFFFF;}
	.st9{fill:#BDDFDF;}
	.st10{opacity:0.3;fill:#01AFB0;}
	.st11{fill:#2AC9DE;}
	.st12{fill:#244065;}
	.st13{fill:#01AFB0;}
	.st14{fill:#F4F4F6;}
</style>
<g>
	<g class="st0">
		<g>
			<rect x="142.1" y="34" class="st1" width="3.9" height="14"/>
			<rect x="195.1" y="34" class="st1" width="3.9" height="14"/>
		</g>
		<path class="st1" d="M209.3,31.7c0,2.4-1.7,4.3-3.9,4.3h-69.6c-2.2,0-3.9-1.9-3.9-4.3V4.3c0-2.4,1.7-4.3,3.9-4.3h69.6
			c2.2,0,3.9,1.9,3.9,4.3V31.7z"/>
		<rect x="136.4" y="6.8" class="st2" width="68.3" height="20.1"/>
		<text transform="matrix(1.1 0 0 0.9 138.6495 18.814)" class="st1 st3 st4" style="text-decoration: underline;">路hotel路</text>
		<path class="st1" d="M240.5,237.2V107.3c0-5.3,3.9-9.6,8.7-9.6h68.5c4.8,0,8.7,4.3,8.7,9.6v129.9"/>
		<path class="st1" d="M14.4,237.2V107.3c0-5.3,3.9-9.6,8.7-9.6h68.5c4.8,0,8.7,4.3,8.7,9.6v129.9"/>
		<path class="st5" d="M240.6,237.2V107.3c0-5.3,3.9-9.6,8.7-9.6h68.5c4.8,0,8.7,4.3,8.7,9.6v129.9"/>
		<path class="st5" d="M14.5,237.2V107.3c0-5.3,3.9-9.6,8.7-9.6h68.5c4.8,0,8.7,4.3,8.7,9.6v129.9"/>
		<path class="st1" d="M105.2,102.6c0,2.7-2,4.8-4.4,4.8H14.9c-2.4,0-4.4-2.1-4.4-4.8v-1.5c0-2.6,2-4.8,4.4-4.8h85.9
			c2.4,0,4.4,2.1,4.4,4.8V102.6z"/>
		<path class="st1" d="M330.5,102.6c0,2.7-2,4.8-4.4,4.8h-85.9c-2.4,0-4.4-2.1-4.4-4.8v-1.5c0-2.6,2-4.8,4.4-4.8h85.9
			c2.4,0,4.4,2.1,4.4,4.8V102.6z"/>
		<path class="st1" d="M100.4,237.2V54.1c0-5.3,3.9-9.6,8.7-9.6H232c4.8,0,8.7,4.3,8.7,9.6v183.1"/>
		<path class="st1" d="M245.8,174.4c0,2.8-2.1,5.2-4.7,5.2H100c-2.6,0-4.7-2.3-4.7-5.2l0,0c0-2.8,2.1-5.2,4.7-5.2h141.1
			C243.7,169.2,245.8,171.5,245.8,174.4L245.8,174.4z"/>
		<path class="st1" d="M245.4,48c0,2.7-2,4.8-4.4,4.8H100.1c-2.4,0-4.4-2.1-4.4-4.8v-0.6c0-2.7,2-4.8,4.4-4.8H241
			c2.4,0,4.4,2.1,4.4,4.8V48z"/>
		<g>
			<rect x="149.7" y="197.6" class="st1" width="41.7" height="39.6"/>
			<g>
				<path class="st1" d="M149.5,198.4c0-5.3,9.1-13.6,21.1-13.6c12,0,21.1,8.3,21.1,13.6"/>
				<rect x="149.5" y="197.6" class="st1" width="3.6" height="39.6"/>
				<rect x="188" y="197.6" class="st1" width="3.6" height="39.6"/>
				<rect x="167.8" y="197.6" class="st1" width="5.5" height="39.6"/>
			</g>
			<g>
				<g>
					<rect x="109.9" y="186.4" class="st1" width="12.1" height="45.5"/>
					<rect x="128" y="186.4" class="st1" width="12.1" height="45.5"/>
				</g>
				<g>
					<rect x="201.1" y="186.4" class="st1" width="12.1" height="45.5"/>
					<rect x="219.2" y="186.4" class="st1" width="12.1" height="45.5"/>
				</g>
			</g>
			<g>
				<g>
					<rect x="110" y="61.5" class="st1" width="20.5" height="20.8"/>
					<rect x="135.2" y="61.5" class="st1" width="20.5" height="20.8"/>
					<rect x="160.3" y="61.5" class="st1" width="20.5" height="20.8"/>
					<rect x="185.5" y="61.5" class="st1" width="20.5" height="20.8"/>
					<rect x="210.6" y="61.5" class="st1" width="20.5" height="20.8"/>
					<rect x="110" y="87.9" class="st1" width="20.5" height="20.8"/>
					<rect x="135.2" y="87.9" class="st1" width="20.5" height="20.8"/>
					<rect x="160.3" y="87.9" class="st1" width="20.5" height="20.8"/>
					<rect x="185.5" y="87.9" class="st1" width="20.5" height="20.8"/>
					<rect x="210.6" y="87.9" class="st1" width="20.5" height="20.8"/>
					<rect x="110" y="114.3" class="st1" width="20.5" height="20.8"/>
					<rect x="135.2" y="114.3" class="st1" width="20.5" height="20.8"/>
					<rect x="160.3" y="114.3" class="st1" width="20.5" height="20.8"/>
					<rect x="185.5" y="114.3" class="st1" width="20.5" height="20.8"/>
					<rect x="210.6" y="114.3" class="st1" width="20.5" height="20.8"/>
					<rect x="110" y="140.7" class="st1" width="20.5" height="20.8"/>
					<rect x="135.2" y="140.7" class="st1" width="20.5" height="20.8"/>
					<rect x="160.3" y="140.7" class="st1" width="20.5" height="20.8"/>
					<rect x="185.5" y="140.7" class="st1" width="20.5" height="20.8"/>
					<rect x="210.6" y="140.7" class="st1" width="20.5" height="20.8"/>
				</g>
				<g>
					<rect x="22.3" y="119.6" class="st1" width="20.5" height="22"/>
					<rect x="47.5" y="119.6" class="st1" width="20.5" height="22"/>
					<rect x="72.6" y="119.6" class="st1" width="20.5" height="22"/>
					<rect x="22.3" y="147.5" class="st1" width="20.5" height="22"/>
					<rect x="47.5" y="147.5" class="st1" width="20.5" height="22"/>
					<rect x="72.6" y="147.5" class="st1" width="20.5" height="22"/>
					<rect x="22.3" y="175.4" class="st1" width="20.5" height="22"/>
					<rect x="47.5" y="175.4" class="st1" width="20.5" height="22"/>
					<rect x="72.6" y="175.4" class="st1" width="20.5" height="22"/>
					<rect x="22.3" y="203.3" class="st1" width="20.5" height="22"/>
					<rect x="47.5" y="203.3" class="st1" width="20.5" height="22"/>
					<rect x="72.6" y="203.3" class="st1" width="20.5" height="22"/>
				</g>
				<g>
					<rect x="248" y="119.6" class="st1" width="20.5" height="22"/>
					<rect x="273.1" y="119.6" class="st1" width="20.5" height="22"/>
					<rect x="298.3" y="119.6" class="st1" width="20.5" height="22"/>
					<rect x="248" y="147.5" class="st1" width="20.5" height="22"/>
					<rect x="273.1" y="147.5" class="st1" width="20.5" height="22"/>
					<rect x="298.3" y="147.5" class="st1" width="20.5" height="22"/>
					<rect x="248" y="175.4" class="st1" width="20.5" height="22"/>
					<rect x="273.1" y="175.4" class="st1" width="20.5" height="22"/>
					<rect x="298.3" y="175.4" class="st1" width="20.5" height="22"/>
					<rect x="248" y="203.3" class="st1" width="20.5" height="22"/>
					<rect x="273.1" y="203.3" class="st1" width="20.5" height="22"/>
					<rect x="298.3" y="203.3" class="st1" width="20.5" height="22"/>
				</g>
			</g>
		</g>
	</g>
	<g>
		<rect x="133.8" y="34" class="st6" width="3.9" height="14"/>
		<rect x="186.9" y="34" class="st6" width="3.9" height="14"/>
	</g>
	<path class="st7" d="M201,31.7c0,2.4-1.7,4.3-3.9,4.3h-69.6c-2.2,0-3.9-1.9-3.9-4.3V4.3c0-2.4,1.7-4.3,3.9-4.3h69.6
		c2.2,0,3.9,1.9,3.9,4.3V31.7z"/>
	<rect x="128.2" y="6.8" class="st2" width="68.3" height="20.1"/>
	<text transform="matrix(1.1 0 0 0.9 130.4053 18.814)" class="st8 st3 st4" style="text-decoration: underline;">路hotel路</text>
	<path class="st9" d="M232.2,237.2V107.3c0-5.3,3.9-9.6,8.7-9.6h68.5c4.8,0,8.7,4.3,8.7,9.6v129.9"/>
	<path class="st9" d="M6.1,237.2V107.3c0-5.3,3.9-9.6,8.7-9.6h68.5c4.8,0,8.7,4.3,8.7,9.6v129.9"/>
	<path class="st10" d="M232.4,237.2V107.3c0-5.3,3.9-9.6,8.7-9.6h68.5c4.8,0,8.7,4.3,8.7,9.6v129.9"/>
	<path class="st10" d="M6.3,237.2V107.3c0-5.3,3.9-9.6,8.7-9.6h68.5c4.8,0,8.7,4.3,8.7,9.6v129.9"/>
	<path class="st11" d="M96.9,102.6c0,2.7-2,4.8-4.4,4.8H6.7c-2.4,0-4.4-2.1-4.4-4.8v-1.5c0-2.6,2-4.8,4.4-4.8h85.9
		c2.4,0,4.4,2.1,4.4,4.8V102.6z"/>
	<path class="st11" d="M322.3,102.6c0,2.7-2,4.8-4.4,4.8H232c-2.4,0-4.4-2.1-4.4-4.8v-1.5c0-2.6,2-4.8,4.4-4.8h85.9
		c2.4,0,4.4,2.1,4.4,4.8V102.6z"/>
	<path class="st9" d="M92.1,237.2V54.1c0-5.3,3.9-9.6,8.7-9.6h122.9c4.8,0,8.7,4.3,8.7,9.6v183.1"/>
	<path class="st11" d="M237.5,174.4c0,2.8-2.1,5.2-4.7,5.2H91.8c-2.6,0-4.7-2.3-4.7-5.2l0,0c0-2.8,2.1-5.2,4.7-5.2h141.1
		C235.5,169.2,237.5,171.5,237.5,174.4L237.5,174.4z"/>
	<path class="st11" d="M237.2,48c0,2.7-2,4.8-4.4,4.8H91.8c-2.4,0-4.4-2.1-4.4-4.8v-0.6c0-2.7,2-4.8,4.4-4.8h140.9
		c2.4,0,4.4,2.1,4.4,4.8V48z"/>
	<rect x="141.5" y="197.6" class="st11" width="41.7" height="39.6"/>
	<g>
		<g>
			<path class="st12" d="M141.2,198.4c0-5.3,9.1-13.6,21.1-13.6c12,0,21.1,8.3,21.1,13.6"/>
			<rect x="141.2" y="197.6" class="st12" width="3.6" height="39.6"/>
			<rect x="179.7" y="197.6" class="st12" width="3.6" height="39.6"/>
			<rect x="159.6" y="197.6" class="st12" width="5.5" height="39.6"/>
		</g>
	</g>
	<g>
		<g>
			<rect x="101.6" y="186.4" class="st13" width="12.1" height="45.5"/>
			<rect x="119.7" y="186.4" class="st13" width="12.1" height="45.5"/>
		</g>
		<g>
			<rect x="192.8" y="186.4" class="st13" width="12.1" height="45.5"/>
			<rect x="210.9" y="186.4" class="st13" width="12.1" height="45.5"/>
		</g>
	</g>
	<g>
		<rect x="101.8" y="61.5" class="st13" width="20.5" height="20.8"/>
		<rect x="126.9" y="61.5" class="st13" width="20.5" height="20.8"/>
		<rect x="152.1" y="61.5" class="st13" width="20.5" height="20.8"/>
		<rect x="177.2" y="61.5" class="st13" width="20.5" height="20.8"/>
		<rect x="202.4" y="61.5" class="st13" width="20.5" height="20.8"/>
		<rect x="101.8" y="87.9" class="st13" width="20.5" height="20.8"/>
		<rect x="126.9" y="87.9" class="st13" width="20.5" height="20.8"/>
		<rect x="152.1" y="87.9" class="st13" width="20.5" height="20.8"/>
		<rect x="177.2" y="87.9" class="st13" width="20.5" height="20.8"/>
		<rect x="202.4" y="87.9" class="st13" width="20.5" height="20.8"/>
		<rect x="101.8" y="114.3" class="st13" width="20.5" height="20.8"/>
		<rect x="126.9" y="114.3" class="st13" width="20.5" height="20.8"/>
		<rect x="152.1" y="114.3" class="st13" width="20.5" height="20.8"/>
		<rect x="177.2" y="114.3" class="st13" width="20.5" height="20.8"/>
		<rect x="202.4" y="114.3" class="st13" width="20.5" height="20.8"/>
		<rect x="101.8" y="140.7" class="st13" width="20.5" height="20.8"/>
		<rect x="126.9" y="140.7" class="st13" width="20.5" height="20.8"/>
		<rect x="152.1" y="140.7" class="st13" width="20.5" height="20.8"/>
		<rect x="177.2" y="140.7" class="st13" width="20.5" height="20.8"/>
		<rect x="202.4" y="140.7" class="st13" width="20.5" height="20.8"/>
	</g>
	<g>
		<rect x="14.1" y="119.6" class="st14" width="20.5" height="22"/>
		<rect x="39.2" y="119.6" class="st14" width="20.5" height="22"/>
		<rect x="64.4" y="119.6" class="st14" width="20.5" height="22"/>
		<rect x="14.1" y="147.5" class="st14" width="20.5" height="22"/>
		<rect x="39.2" y="147.5" class="st14" width="20.5" height="22"/>
		<rect x="64.4" y="147.5" class="st14" width="20.5" height="22"/>
		<rect x="14.1" y="175.4" class="st14" width="20.5" height="22"/>
		<rect x="39.2" y="175.4" class="st14" width="20.5" height="22"/>
		<rect x="64.4" y="175.4" class="st14" width="20.5" height="22"/>
		<rect x="14.1" y="203.3" class="st14" width="20.5" height="22"/>
		<rect x="39.2" y="203.3" class="st14" width="20.5" height="22"/>
		<rect x="64.4" y="203.3" class="st14" width="20.5" height="22"/>
	</g>
	<g>
		<g>
			<rect x="239.7" y="119.6" class="st14" width="20.5" height="22"/>
			<rect x="264.9" y="119.6" class="st14" width="20.5" height="22"/>
			<rect x="290" y="119.6" class="st14" width="20.5" height="22"/>
			<rect x="239.7" y="147.5" class="st14" width="20.5" height="22"/>
			<rect x="264.9" y="147.5" class="st14" width="20.5" height="22"/>
			<rect x="290" y="147.5" class="st14" width="20.5" height="22"/>
			<rect x="239.7" y="175.4" class="st14" width="20.5" height="22"/>
			<rect x="264.9" y="175.4" class="st14" width="20.5" height="22"/>
			<rect x="290" y="175.4" class="st14" width="20.5" height="22"/>
			<rect x="239.7" y="203.3" class="st14" width="20.5" height="22"/>
			<rect x="264.9" y="203.3" class="st14" width="20.5" height="22"/>
			<rect x="290" y="203.3" class="st14" width="20.5" height="22"/>
		</g>
	</g>
</g>
</svg>
