<?xml version="1.0" encoding="utf-8"?>
<!-- Generator: Adobe Illustrator 21.0.2, SVG Export Plug-In . SVG Version: 6.00 Build 0)  -->
<svg version="1.1" id="Layer_1" xmlns="http://www.w3.org/2000/svg" xmlns:xlink="http://www.w3.org/1999/xlink" x="0px" y="0px"
	 viewBox="-237.7 341.8 118.4 109.4" style="enable-background:new -237.7 341.8 118.4 109.4;" xml:space="preserve">
<style type="text/css">
	.st0{fill:#64AFAF;}
	.st1{fill:#FFFFFF;}
	.st2{fill:none;stroke:#898989;stroke-width:2;stroke-miterlimit:10;}
	.st3{fill:#C64639;}
	.st4{fill:#234064;}
	.st5{fill:#05869A;}
	.st6{fill:#BDDFDF;}
</style>
<g>
	<path d="M-178.5,371.4c-6.1,0-11,4.9-11,11s4.9,11,11,11c6.1,0,11-4.9,11-11S-172.4,371.4-178.5,371.4z"/>
	<path d="M-192.5,400.3c-0.7,0.1-1.1,0.7-1.1,1.4v13.8c0,0.8,0.6,1.4,1.4,1.4h27.5c0.8,0,1.4-0.6,1.4-1.4v-13.8
		c0-0.8-0.6-1.4-1.4-1.4h-27.6C-192.4,400.3-192.4,400.3-192.5,400.3z"/>
	<path d="M-228.3,403.1c-0.7,0.1-1.1,0.7-1.1,1.4v11c0,0.8,0.6,1.4,1.4,1.4h13.8c0.8,0,1.4-0.6,1.4-1.4v-11c0-0.8-0.6-1.4-1.4-1.4
		h-13.9C-228.1,403.1-228.2,403.1-228.3,403.1z"/>
	<path d="M-143,403.1c-0.7,0.1-1.1,0.7-1.1,1.4v11c0,0.8,0.6,1.4,1.4,1.4h13.8c0.8,0,1.4-0.6,1.4-1.4v-11c0-0.8-0.6-1.4-1.4-1.4
		h-13.8C-142.8,403.1-142.9,403.1-143,403.1z"/>
	<path d="M-228.3,425.1c-0.7,0.1-1.1,0.7-1.1,1.4v11c0,0.8,0.6,1.4,1.4,1.4h13.8c0.8,0,1.4-0.6,1.4-1.4v-11c0-0.8-0.6-1.4-1.4-1.4
		h-13.9C-228.1,425.1-228.2,425.1-228.3,425.1z"/>
	<path d="M-143,425.1c-0.7,0.1-1.1,0.7-1.1,1.4v11c0,0.8,0.6,1.4,1.4,1.4h13.8c0.8,0,1.4-0.6,1.4-1.4v-11c0-0.8-0.6-1.4-1.4-1.4
		h-13.8C-142.8,425.1-142.9,425.1-143,425.1z"/>
	<polygon class="st0" points="-201.9,386.9 -201.9,451.2 -237.7,451.2 -237.7,398.5 	"/>
	<polygon class="st0" points="-155.1,386.9 -119.3,398.5 -119.3,451.2 -155.1,451.2 	"/>
	<rect x="-226.7" y="405.8" class="st1" width="11" height="3.6"/>
	<rect x="-141.3" y="405.8" class="st1" width="11" height="3.6"/>
	<rect x="-226.7" y="415.4" class="st1" width="11" height="3.6"/>
	<rect x="-141.3" y="415.4" class="st1" width="11" height="3.6"/>
	<rect x="-226.7" y="425.4" class="st1" width="11" height="3.6"/>
	<rect x="-141.3" y="425.4" class="st1" width="11" height="3.6"/>
	<rect x="-226.7" y="435" class="st1" width="11" height="3.6"/>
	<rect x="-141.3" y="435" class="st1" width="11" height="3.6"/>
	<line class="st2" x1="-178.1" y1="341.8" x2="-178.1" y2="368.7"/>
	<path class="st3" d="M-178.1,341.8c2.1,1,4.3,2.2,6.5,2.8c2.3,0.6,4.8,0.4,7.2-0.3v6.9c-4.7,2-8.8,1-13.7-1.8l-0.1-0.1v-7.5H-178.1
		z"/>
	<rect x="-188.4" y="417.7" class="st4" width="19.7" height="33.6"/>
	<path class="st5" d="M-178.5,360.6l23.4,13v77.6h-13.8v-24.7c0-0.8-0.6-1.4-1.4-1.4h-16.5c-0.1,0-0.2,0-0.3,0
		c-0.7,0.1-1.1,0.7-1.1,1.4v24.8h-13.7v-77.7L-178.5,360.6z"/>
	<path class="st6" d="M-178.5,378.5c2.2,0,4,1.8,4,4c0,2.2-1.8,4-4,4c-2.2,0-4-1.8-4-4C-182.5,380.3-180.7,378.5-178.5,378.5z"/>
	<rect x="-190.9" y="404.9" class="st1" width="24.8" height="5.5"/>
</g>
</svg>
