<svg width="16" height="16" viewBox="0 0 16 16" fill="none" xmlns="http://www.w3.org/2000/svg">
<path d="M7.50272 15.2578C6.01913 15.2584 4.56871 14.8189 3.33492 13.995C2.10114 13.1711 1.13942 11.9998 0.571427 10.6292C0.00343285 9.25864 -0.145321 7.75041 0.143981 6.2953C0.433284 4.84019 1.14764 3.50357 2.1967 2.45451C3.24576 1.40546 4.58238 0.691096 6.03749 0.401794C7.4926 0.112491 9.00083 0.261245 10.3714 0.829239C11.7419 1.39723 12.9133 2.35895 13.7372 3.59273C14.5611 4.82652 15.0005 6.27694 15 7.76053C14.9971 9.74805 14.2063 11.6533 12.8009 13.0587C11.3955 14.4641 9.49024 15.2549 7.50272 15.2578ZM7.50272 1.34788C6.2343 1.34735 4.99422 1.72298 3.9393 2.42729C2.88439 3.13159 2.06204 4.13292 1.57627 5.30463C1.09049 6.47634 0.963113 7.7658 1.21024 9.00991C1.45737 10.254 2.0679 11.3969 2.96461 12.294C3.86133 13.1911 5.00395 13.8021 6.24796 14.0498C7.49196 14.2974 8.78147 14.1706 9.95339 13.6853C11.1253 13.2 12.127 12.3781 12.8317 11.3235C13.5365 10.2689 13.9127 9.02895 13.9127 7.76053C13.9112 6.0607 13.2355 4.43087 12.0338 3.22866C10.8321 2.02644 9.20255 1.35004 7.50272 1.34788Z" fill="#8589A8"/>
<path d="M7.50272 6.07514C7.98314 6.07514 8.3726 5.68568 8.3726 5.20526C8.3726 4.72484 7.98314 4.33538 7.50272 4.33538C7.0223 4.33538 6.63284 4.72484 6.63284 5.20526C6.63284 5.68568 7.0223 6.07514 7.50272 6.07514Z" fill="#8589A8"/>
<path d="M8.17416 6.74386H6.82584V11.183H8.17416V6.74386Z" fill="#8589A8"/>
</svg>
