<svg width="87" height="78" viewBox="0 0 87 78" fill="none" xmlns="http://www.w3.org/2000/svg">
<path d="M84.6802 57.5199C83.8638 58.5107 84.0107 58.4565 84.743 59.3945C85.3119 60.1228 86.0214 60.6342 86.6188 61.2778C87.2428 61.95 86.9233 62.9335 86.8789 63.7931C86.8764 63.8367 86.8542 63.8788 86.8431 63.9219C86.5478 65.0352 85.8465 66.1161 86.7053 67.4013C85.5937 67.1936 85.0664 67.7994 84.6082 68.5306C84.2795 69.0551 84.2568 69.5268 84.7715 69.9524C85.1625 70.2754 85.1983 70.659 85.1949 71.1825C85.1896 72.1021 84.7222 73.1374 85.6362 73.9452C85.8643 74.1466 85.423 74.8779 84.9368 75.0382C83.7899 75.4169 83.1001 76.2847 82.4747 77.2358C82.3766 77.3849 82.2978 77.5462 82.2036 77.6977C81.9977 78.029 81.7657 78.1273 81.465 77.7922C81.379 77.6963 81.2514 77.5806 81.1388 77.5757C80.3074 77.5379 79.6221 77.152 78.9198 76.7583C78.7516 76.6638 78.4099 76.9016 78.1416 76.9568C77.9328 76.9999 77.578 77.0866 77.522 77.0004C76.8854 76.0299 75.8332 76.0716 74.8926 75.922C74.3286 75.8324 74.1024 75.5912 74.0888 75.075C74.0603 73.982 74.0216 72.8885 74.0381 71.796C74.0419 71.5331 74.2952 71.2827 74.3469 71.0096C74.4112 70.6706 74.3851 70.3142 74.3982 69.965C74.0956 69.9611 73.793 69.9519 73.4905 69.9568C73.4305 69.9578 73.372 70.0154 73.3116 70.0439C71.966 70.672 71.3319 70.4231 71.066 68.9655C70.807 67.5452 70.7229 66.0924 70.5837 64.6517C70.5363 64.1587 70.3613 63.8023 69.8698 63.6318C69.7311 63.5839 69.5619 63.4938 69.5005 63.3747C68.8379 62.0947 67.8093 61.256 66.4903 60.7093C66.167 60.5751 65.8958 60.2516 65.6701 59.9611C65.3434 59.5407 65.0606 59.318 64.5932 59.7916C64.4946 59.8913 64.2133 59.8734 64.0437 59.8211C63.8866 59.7727 63.7677 59.6042 63.6299 59.4909C62.5458 58.5993 62.0446 58.763 61.7425 60.0947C61.6942 60.3078 61.6183 60.532 61.4936 60.7073C61.0774 61.2909 60.6009 61.2526 60.3109 60.6071C60.0987 60.1349 59.8841 59.7732 59.2577 59.7771C58.8473 59.7795 58.6134 59.4371 58.8169 59.01C59.2872 58.0226 58.9479 57.3252 58.146 56.6879C57.6409 56.2865 57.2378 55.7567 56.7163 55.208C57.3601 54.3349 56.5302 53.9141 55.9275 53.3567C55.6375 53.0889 55.4562 52.6928 55.2605 52.3354C55.0802 52.0061 54.9265 51.6589 54.7974 51.3058C54.5959 50.7538 54.4456 50.1819 54.2329 49.6346C54.1082 49.3145 53.9535 48.9799 53.7259 48.731C53.0951 48.0419 52.4146 47.3983 51.765 46.7261C51.6466 46.6041 51.5064 46.4327 51.5045 46.283C51.5006 45.9799 51.6756 45.607 51.2338 45.5126C50.7307 45.4051 50.0927 45.1707 49.721 45.3731C49.0685 45.729 48.2154 45.7581 47.7465 46.5116C47.6373 46.6869 47.0109 46.6937 46.7248 46.5591C46.4522 46.4312 46.3164 46.0157 46.1158 45.7295C45.9587 45.5053 45.8427 45.1896 45.6262 45.0825C44.9804 44.7639 44.5386 44.3741 44.529 43.5813C44.5217 42.9716 44.0302 43.1009 43.7643 43.2932C43.2564 43.6607 42.8078 43.5067 42.3163 43.3271C41.8146 43.1436 41.3013 42.9915 40.7933 42.8244C40.279 42.6554 39.8658 42.3944 39.7821 41.7929C39.6918 41.144 39.8411 40.5871 40.3868 40.1934C40.8199 39.8811 41.3051 39.638 41.3114 38.9798C41.3124 38.8888 41.6488 38.7411 41.8402 38.7212C43.019 38.6002 43.3646 38.2636 43.4424 37.1096C43.4531 36.9547 43.4516 36.7813 43.5212 36.6515C44.0108 35.7333 43.5952 35.0767 42.9248 34.4864C42.6904 34.2801 42.454 34.0767 42.2162 33.8742C41.7406 33.4689 41.3912 33.174 40.7401 33.8229C39.9083 34.652 38.7338 34.5212 37.7367 33.8147C37.5192 33.6607 37.1475 33.4912 36.9561 33.5759C36.2311 33.898 35.4268 34.1973 34.8874 34.7401C34.2939 35.3372 33.666 35.5934 32.8941 35.6568C32.4949 35.6898 32.0918 35.7043 31.6916 35.6951C31.0458 35.6806 30.547 35.9464 30.0859 36.3847C29.461 36.9784 28.7771 37.5091 28.1478 38.0985C27.8805 38.3484 27.5165 38.6641 27.4928 38.9731C27.4218 39.8898 26.8365 40.0462 26.1289 40.0961C25.6707 40.128 25.3072 40.2559 25.1516 40.8457C25.7011 41.0351 26.2357 41.2196 26.7707 41.4041C26.7567 41.4874 26.7427 41.5702 26.7292 41.6535C26.5354 41.6535 26.3415 41.6617 26.1482 41.652C25.5315 41.6201 24.9147 41.5847 24.2985 41.544C23.9669 41.5222 23.5947 41.5755 23.313 41.4423C22.0949 40.8675 20.8136 41.1184 19.5555 41.0922C19.3568 41.0878 19.1142 41.1968 18.9615 41.3324C18.2747 41.9416 17.5352 41.9687 16.7198 41.6438C13.783 40.4728 11.1165 40.9808 8.65725 42.9203C8.15893 43.3135 7.55814 43.5813 6.99022 43.8787C6.5992 44.0835 6.29712 43.899 6.2454 43.5024C6.05787 42.0661 5.11004 41.59 3.83017 41.3445C3.01092 41.1876 2.22163 40.8254 1.44732 40.4898C-0.280601 39.7416 -0.499068 37.7547 0.995889 36.5663C1.21822 36.3895 1.45119 36.2268 1.73491 36.0161C1.56333 35.8036 1.45747 35.5953 1.28879 35.4762C0.714104 35.0709 0.598587 34.5382 0.738755 33.8864C0.870222 33.2757 1.00749 32.6602 1.05776 32.0399C1.10561 31.4481 1.43717 31.2432 1.94371 31.1367C2.64068 30.99 3.33233 30.8185 4.02495 30.6524C4.78911 30.4689 5.4189 30.0844 5.88241 29.4321C6.35125 28.7716 6.99989 28.3817 7.76404 28.1134C8.27928 27.9323 8.78001 27.649 9.2155 27.3168C9.87718 26.8127 9.95839 25.9841 9.50453 25.279C9.3721 25.0732 9.22517 24.8737 9.11641 24.6553C8.92695 24.2766 8.71766 24.1725 8.26768 24.3304C7.20579 24.7037 6.2077 23.8539 6.32032 22.7614C6.35802 22.3962 6.51365 22.2582 6.86214 22.2354C7.66157 22.1836 8.47068 22.1676 9.25368 22.0185C9.63745 21.9454 9.97095 21.6083 10.3277 21.3909C10.0575 21.0693 9.85012 20.6243 9.5055 20.4471C8.11398 19.7323 6.60113 19.464 5.04238 19.4935C4.76591 19.4989 4.48606 19.6243 4.21829 19.7231C3.40725 20.0233 2.65276 19.8175 1.89683 19.6015C1.88668 19.5352 1.87653 19.4688 1.86638 19.4025C2.09354 19.3013 2.31395 19.1759 2.54981 19.1032C3.65762 18.7633 4.76301 18.4098 5.88386 18.1187C6.50302 17.9579 7.15745 17.94 7.78482 17.8054C8.38319 17.6771 9.00428 17.5565 9.54755 17.2926C10.0957 17.0262 10.5771 16.9264 11.1314 17.201C11.347 17.3081 11.5945 17.403 11.8299 17.4088C12.9841 17.4369 14.1402 17.4698 15.293 17.4277C16.1649 17.3957 16.5661 16.8872 16.4897 16.001C16.3998 14.9594 16.3113 13.9143 16.1436 12.8833C15.973 11.8334 16.4245 11.1424 17.2118 10.5453C17.6995 10.1753 18.1765 9.76805 18.5671 9.30074C18.917 8.88185 19.2945 8.6649 19.8257 8.69444C20.6469 8.73996 21.4729 8.85667 22.2878 8.80534C22.7905 8.77386 23.2801 8.49541 23.7687 8.31042C24.0133 8.21744 24.2323 8.02422 24.4812 7.98063C25.3101 7.83439 25.5203 8.05569 25.4198 8.89299C25.3483 9.49009 25.2647 10.0867 25.2096 10.6852C25.1525 11.3051 24.8069 11.6828 24.2859 11.9802C23.47 12.4451 23.2786 12.8504 23.4966 13.4615C23.6745 13.9598 24.0003 14.2088 24.5503 14.2126C24.9447 14.2155 25.4106 14.1971 25.72 14.3894C26.8331 15.0819 27.9897 14.8562 29.1613 14.7109C29.6906 14.6451 30.2256 14.6209 30.7592 14.5967C31.1623 14.5783 31.3503 14.7434 31.3503 15.1962C31.3499 16.3981 31.3735 17.602 31.4427 18.802C31.4987 19.7822 32.1348 20.388 33.1092 20.4964C33.4413 20.5332 33.7723 20.5831 34.1058 20.603C35.0715 20.6611 35.7748 21.1086 36.0832 22.035C36.3239 22.7584 36.7748 23.0262 37.4974 22.895C38.3486 22.7405 39.2099 22.6238 40.0451 22.4083C40.7507 22.2258 41.2877 21.7812 41.7077 21.1454C41.9301 20.8083 42.3482 20.5657 42.7252 20.373C43.6933 19.8776 44.7102 19.4737 45.6581 18.9439C45.9229 18.7962 46.1622 18.3386 46.1593 18.0252C46.1515 17.1415 46.2511 16.3502 46.9254 15.6906C47.0665 15.5526 47.0839 15.186 47.023 14.9613C46.8369 14.2761 46.8761 13.6615 47.2453 13.032C47.3715 12.817 47.3367 12.4344 47.2444 12.1753C46.3666 9.71527 46.7209 7.40969 48.0965 5.24212C48.2714 4.96609 48.6349 4.78691 48.9438 4.6242C49.4788 4.34236 49.7959 3.99126 49.5929 3.34187C49.5407 3.17576 49.547 2.98835 49.5417 2.81063C49.5156 1.9559 49.7036 1.67648 50.5393 1.65711C51.2019 1.64161 51.5577 1.42805 51.7123 0.765095C51.8433 0.202379 52.1725 -0.0315198 52.8496 0.098263C53.4489 0.213034 54.1029 0.0140008 54.7341 0.000441406C54.9845 -0.0048855 55.3122 0.036761 55.4741 0.193178C55.8105 0.517151 56.1213 0.552019 56.5607 0.454682C57.16 0.321509 57.7835 0.253712 58.3983 0.245479C59.0701 0.236278 59.6134 0.469209 59.9783 1.14088C60.364 1.85082 61.1093 2.01353 61.8276 1.58883C62.2795 1.32151 62.6086 1.36897 62.9557 1.70263C64.0475 2.75155 65.3767 3.19465 66.8567 3.39852C67.5048 3.48811 68.1593 3.84841 68.7132 4.22904C69.4623 4.74333 70.1632 5.05471 71.0704 4.66294C71.3203 4.55495 71.6925 4.60628 71.967 4.70313C72.6799 4.95398 73.3653 5.2828 74.07 5.55883C75.1541 5.98353 75.9879 6.67264 76.7443 7.58354C77.7051 8.74044 78.8729 9.72495 79.9478 10.7869C80.3756 11.2097 80.8086 11.6281 81.2122 12.0727C81.8546 12.7807 82.4104 13.5826 83.4037 13.8659C83.5274 13.9012 83.6792 14.0596 83.7038 14.1836C83.8445 14.9017 84.3587 15.2039 84.9765 15.4209C85.1635 15.4862 85.3501 15.5763 85.5091 15.6925C86.1336 16.1487 86.0915 16.4916 85.3863 16.7991C84.8257 17.0436 84.556 17.7938 84.9243 18.3148C85.1708 18.6635 85.5584 18.9168 85.8991 19.1923C86.077 19.3361 86.2902 19.4364 86.6208 19.6369C86.2848 19.7909 86.1012 19.9207 85.9006 19.9589C85.1563 20.1013 84.7628 20.555 84.7174 21.2887C84.6729 22.0141 84.322 22.2592 83.6072 22.2761C82.1866 22.3105 80.9846 22.9032 79.9879 23.9216C79.6138 24.3037 79.2146 24.6606 78.825 25.0272C77.5099 26.265 77.4176 27.3183 78.5302 29.3057C79.0454 30.2263 79.2605 31.113 79.3301 32.1401C79.4244 33.5275 79.6772 34.8786 80.5998 36.0622C81.1852 36.8128 81.51 37.775 81.9049 38.6631C82.0518 38.9939 82.0199 39.3343 81.6168 39.5794C80.5109 40.2515 79.9957 41.5106 80.2963 42.7857C80.4186 43.3048 80.6076 43.8099 80.7937 44.3116C80.9802 44.8147 80.9213 45.2336 80.5955 45.685C79.8381 46.7349 79.9633 46.9881 81.2441 47.1939C82.3273 47.3683 83.4307 48.5218 83.4771 49.6036C83.4863 49.8172 83.2867 50.0995 83.1021 50.2511C82.5545 50.7 81.9015 50.7833 81.2074 50.6966C80.5892 50.6196 80.3205 50.9373 80.6404 51.4618C81.0015 52.0535 81.4882 52.5853 81.9996 53.0564C82.1219 53.1693 82.5593 52.9431 82.8503 52.8676C83.0291 52.8211 83.2055 52.7639 83.3829 52.7116C83.3892 52.8942 83.4549 53.102 83.3911 53.2555C83.1944 53.7286 83.35 54.0037 83.7763 54.2332C84.5695 54.6598 84.6275 54.8153 84.2766 55.5979C83.946 56.3354 83.6057 57.0511 84.6802 57.5214V57.5199Z" fill="#353C4C"/>
</svg>
