<svg width="52" height="40" viewBox="0 0 52 40" fill="none" xmlns="http://www.w3.org/2000/svg">
<path d="M11.3376 18H17.0064V22H11.3376V18ZM51.0191 8V36C51.0191 38.2 48.4682 40 45.3503 40H5.66879C4.16533 40 2.72345 39.5786 1.66035 38.8284C0.597246 38.0783 0 37.0609 0 36L0.0283439 8C0.0283439 5.8 2.52261 4 5.66879 4H8.50318V0H14.172V4H36.8471V0H42.5159V4H45.3503C48.4682 4 51.0191 5.8 51.0191 8ZM5.66879 12H45.3503V8H5.66879V12ZM45.3503 36V16H5.66879V36H45.3503ZM34.0127 22H39.6815V18H34.0127V22ZM22.6752 22H28.3439V18H22.6752V22Z" fill="black"/>
</svg>
