<svg width="89" height="79" viewBox="0 0 89 79" fill="none" xmlns="http://www.w3.org/2000/svg">
<path d="M29.3853 0.135417C29.5253 0.163415 29.6674 0.183298 29.8046 0.221078C29.9314 0.255678 30.1057 0.271688 30.1682 0.359711C30.3554 0.624855 30.5587 0.568718 30.7873 0.457516C30.931 0.387263 31.0683 0.401666 31.1132 0.564794C31.1942 0.860565 31.4067 0.846433 31.6264 0.806292C31.9405 0.748385 32.2634 0.706698 32.5605 0.597418C33.1477 0.381492 33.4227 0.512696 33.8147 1.15407C34.0227 1.49356 34.1304 1.89375 34.3328 2.23757C34.5573 2.61787 34.7961 3.00957 35.1123 3.30779C35.2818 3.46796 35.6256 3.4463 35.8926 3.49871C35.976 3.51492 36.0646 3.50509 36.1447 3.50686C36.1662 3.75099 35.6426 3.76349 35.9832 4.11897C36.1104 3.99267 36.2568 3.89034 36.3443 3.75088C36.4756 3.54145 36.6177 3.54766 36.8123 3.63861C36.9966 3.72433 37.1926 3.78557 37.3729 3.85396C37.4814 3.73705 37.5543 3.61315 37.6625 3.55007C37.9294 3.3935 38.1308 3.45651 38.3647 3.70173C38.4217 3.7616 38.5398 3.80936 38.618 3.79586C38.9473 3.73799 39.1529 3.82385 39.326 4.12675C39.4914 4.41621 39.6208 4.50805 39.8495 4.41914C40.2295 4.27092 40.4416 4.24167 40.4601 3.87164C40.4737 3.60115 40.5694 3.3345 40.6328 3.04643C41.0132 3.08884 41.2697 3.30904 41.5387 3.5086C41.6852 3.61728 41.8355 3.72507 41.9965 3.80907C42.1404 3.88437 42.2237 3.95034 42.1784 4.13886C42.1101 4.42302 42.2065 4.54125 42.4921 4.57564C42.6143 4.5905 42.7394 4.59761 42.8624 4.59402C43.2695 4.58259 43.6041 4.73246 43.8729 5.03405C43.9894 5.16487 44.1082 5.26575 44.2963 5.14616C44.4729 5.0338 44.6051 4.92054 44.5294 4.67427C44.4514 4.42039 44.4169 4.16357 44.1709 3.98456C43.9792 3.84475 44.0425 3.6069 44.0789 3.40876C44.0983 3.30383 44.484 3.33183 44.525 3.46539C44.6284 3.80064 44.8452 3.82459 45.1232 3.73392C45.2879 4.0555 45.4447 4.36219 45.5957 4.65751C45.7618 4.6536 45.9132 4.63432 46.0597 4.6532C46.1445 4.66404 46.2884 4.73323 46.291 4.78183C46.3081 5.13247 46.7315 5.15886 46.8041 5.44644C46.8644 5.68514 46.8376 5.92062 46.6755 6.11992C46.5375 6.28931 46.5598 6.42722 46.7141 6.57668C46.7769 6.63725 46.7943 6.74535 46.8325 6.83187C46.871 6.91935 46.9097 7.00731 46.9547 7.11001C46.8141 7.30334 46.6184 7.28215 46.4101 7.23797C46.3396 7.22282 46.2629 7.23802 46.1891 7.23936C46.2079 7.31162 46.2079 7.39735 46.2485 7.45442C46.4439 7.73085 46.4584 7.84417 46.1752 8.03547C45.8928 8.22605 46.0048 8.51721 45.9164 8.75377C45.9054 8.78319 45.9784 8.85102 46.0213 8.89134C46.1373 8.99996 46.2688 9.09891 46.1041 9.27143C46.0873 9.289 46.1036 9.34611 46.1157 9.38086C46.194 9.60776 46.1158 9.72832 45.8717 9.7528C45.5094 9.78888 45.3952 10.004 45.5881 10.3115C45.7406 10.5537 45.7778 10.818 45.7269 11.0829C45.6877 11.2868 45.7303 11.4337 45.8537 11.5918C45.92 11.6764 45.9838 11.8757 45.9485 11.9052C45.8432 11.9945 45.6905 12.0298 45.5531 12.0768C45.5192 12.0882 45.4736 12.0622 45.4326 12.0565C45.1262 12.0111 44.9852 12.1259 44.9959 12.438C45.008 12.7801 44.9224 13.0881 44.736 13.3731C44.6519 13.5016 44.6155 13.6095 44.7053 13.7871C44.8205 14.0156 44.5871 14.2314 44.4349 14.3128C43.8652 14.6175 43.4844 15.1271 43.0038 15.5248C42.4983 15.943 41.9845 16.3621 41.4276 16.7045C41.096 16.9085 40.6751 16.9677 40.2932 17.088C39.7636 17.2541 39.1977 17.3474 38.7089 17.5933C37.6333 18.1342 36.6909 18.8427 36.3499 20.0908C36.1901 20.6751 35.7299 20.9773 35.2511 21.2316C34.8546 21.4425 34.3975 21.5381 33.9948 21.7397C33.8018 21.8361 33.5836 22.0362 33.5312 22.231C33.3708 22.824 33.2579 23.4335 33.1817 24.0436C33.1358 24.4119 33.4263 24.6384 33.7122 24.8123C34.0544 25.0208 34.4134 25.2011 34.7638 25.397C34.8041 25.4197 34.8333 25.4626 34.8864 25.5143C34.8283 25.5531 34.7889 25.6022 34.7502 25.6016C34.4623 25.5971 34.3698 25.792 34.2917 26.0185C34.1065 26.557 34.1532 27.0793 34.4357 27.5634C34.5264 27.7185 34.6995 27.8743 34.8675 27.9267C35.3977 28.0923 35.852 28.3357 36.1331 28.8379C36.1675 28.8989 36.2236 28.9504 36.278 28.9971C36.5273 29.2099 36.6662 29.1828 36.816 28.8976C37.0025 28.5425 37.3619 28.5248 37.5908 28.8605C37.7052 29.0283 37.6813 29.1597 37.4891 29.2198C37.3064 29.2773 37.2193 29.3903 37.1684 29.5588C37.1449 29.6373 37.121 29.7225 37.0723 29.7844C36.8927 30.0131 36.717 30.2283 36.8975 30.5498C36.9321 30.6118 36.8616 30.7965 36.7901 30.8364C36.7204 30.8753 36.569 30.8286 36.4863 30.7717C36.3174 30.656 36.1669 30.5122 36.0168 30.3724C35.899 30.2627 35.7954 30.2735 35.7037 30.3931C35.5451 30.6007 35.3328 30.7802 35.311 31.0967C35.6638 31.0811 35.6944 31.3362 35.7162 31.5711C35.7394 31.8184 35.8524 31.9429 36.0973 31.9655C36.2965 31.9838 36.4086 32.1 36.4496 32.2969C36.5285 32.6754 36.8403 32.8646 37.1165 33.0736C37.1602 33.1066 37.3085 33.0607 37.3639 33.0062C37.4571 32.9152 37.5044 32.7795 37.5888 32.6768C37.8004 32.4193 37.7999 32.4261 37.5881 32.1514C37.5448 32.0955 37.5216 31.9973 37.5367 31.9289C37.5829 31.7158 37.6514 31.5072 37.7222 31.258C37.9112 31.2255 38.0436 31.3942 38.1536 31.5341C38.2779 31.6916 38.3688 31.8851 38.4349 32.0763C38.5253 32.338 38.5978 32.6098 38.6422 32.8832C38.6942 33.2024 38.8492 33.4466 39.1161 33.6065C39.6314 33.914 40.1602 34.1854 40.7978 34.0948C40.9099 34.079 41.048 34.1146 41.1485 34.1715C41.3817 34.3037 41.5789 34.2586 41.7759 34.1076C42.1768 33.7993 42.5736 33.8227 42.9412 34.1521C43.139 34.3291 43.3525 34.4928 43.5764 34.6353C43.671 34.6956 43.811 34.7125 43.9276 34.7053C44.2144 34.6877 44.501 34.6513 44.786 34.6103C44.9696 34.5836 45.1125 34.6347 45.2136 34.7869C45.3139 34.9372 45.4474 34.9723 45.6163 34.9342C45.6953 34.916 45.7836 34.896 45.8596 34.913C46.5358 35.062 47.1077 34.8065 47.642 34.443C47.9044 34.2646 48.1725 34.1814 48.4827 34.2146C48.677 34.2357 48.8481 34.2996 48.9347 34.4896C48.9989 34.631 49.0969 34.6489 49.237 34.618C49.4452 34.5719 49.6568 34.5433 49.9336 34.4955C49.8826 34.6083 49.866 34.6968 49.8137 34.7495C49.6834 34.88 49.5402 34.9984 49.3957 35.1135C48.867 35.536 48.7443 36.1275 48.7853 36.744C48.8159 37.2011 49.0078 37.3155 49.4706 37.3034C49.5907 37.3004 49.7104 37.2758 49.8438 37.2597C49.8567 37.5174 49.8408 37.7651 49.8876 38.0003C49.9638 38.3804 50.0749 38.7535 50.1829 39.1262C50.3198 39.5973 50.5737 40.0915 50.1752 40.5266C49.8672 40.8631 49.6524 41.3282 49.1333 41.4325C48.768 41.5059 48.663 41.4667 48.4949 41.1221C48.2797 40.6787 48.0858 40.2244 47.8679 39.7827C47.6967 39.4352 47.5521 39.0664 47.175 38.865C47.0151 38.7797 46.8722 38.6666 46.6995 38.8111C46.537 38.947 46.3848 39.1187 46.4563 39.3401C46.5599 39.6606 46.5741 39.9657 46.5507 40.3039C46.5371 40.5019 46.8037 40.7106 46.7579 40.987C46.7536 41.0123 46.9259 41.0836 47.0231 41.1063C47.2325 41.1558 47.4479 41.1826 47.6586 41.2287C47.8699 41.2752 48.0247 41.3541 48.1541 41.5778C48.2806 41.7956 48.5547 41.9448 48.7906 42.0759C48.9386 42.1583 49.0462 42.2263 49.0724 42.4008C49.0874 42.5009 49.115 42.6071 49.1675 42.6913C49.264 42.8455 49.2524 42.9883 49.1518 43.1221C49.0198 43.2977 49.0403 43.4456 49.2096 43.5719C49.4366 43.7411 49.4389 43.9643 49.3873 44.2106C49.2772 44.7337 49.1768 45.2591 49.0652 45.782C49.0307 45.9442 49.0736 46.0642 49.1575 46.2096C49.3303 46.5091 49.4608 46.834 49.5986 47.1532C49.7734 47.5581 49.938 47.967 50.1055 48.3752C50.1368 48.4512 50.1878 48.5312 50.1845 48.607C50.1531 49.2925 50.6454 49.7945 50.8125 50.4098C50.8351 50.4918 50.9093 50.567 50.9745 50.6295C51.1177 50.7659 51.3319 50.8579 51.2119 51.1271C51.1965 51.1616 51.2678 51.2613 51.3213 51.2951C51.7737 51.5806 51.9804 52.0771 52.33 52.4498C52.7181 52.8633 52.9113 53.3609 52.9972 53.9148C53.0282 54.1146 53.1271 54.3027 53.1827 54.4994C53.2913 54.8836 53.3942 55.2692 53.4933 55.6562C53.6511 56.2726 53.7473 56.9129 53.9758 57.5013C54.1853 58.0408 54.563 58.513 54.8156 59.0389C55.0224 59.47 55.1884 59.9288 55.3091 60.3914C55.4254 60.8373 55.6847 61.098 56.0937 61.2641C56.1996 61.3071 56.2989 61.4181 56.356 61.5226C56.5885 61.9441 56.7861 62.3859 57.036 62.7969C57.1129 62.9232 57.3045 63.0184 57.4595 63.05C57.8894 63.1373 58.3271 63.1923 58.7632 63.2432C59.0945 63.2817 59.4287 63.2912 59.761 63.3209C60.0803 63.349 60.4149 63.2945 60.7712 63.4962C60.6401 63.6493 60.5224 63.7703 60.4259 63.9063C60.3811 63.9694 60.377 64.0616 60.3547 64.1409C60.4367 64.1331 60.5456 64.1561 60.5947 64.1118C60.7229 63.9964 60.8337 63.8587 60.9335 63.7174C61.0196 63.5955 61.1056 63.5589 61.2449 63.6256C61.5233 63.7586 61.8119 63.8714 62.0862 64.0124C62.3357 64.1409 62.5841 64.1986 62.859 64.1183C63.441 63.9482 64.0316 63.8015 64.6054 63.607C65.3553 63.3524 66.0993 63.3336 66.8479 63.5744C67.3323 63.7303 67.4585 63.9314 67.5037 64.4475C67.5146 64.5718 67.6196 64.6941 67.6986 64.8052C67.7923 64.9363 67.9083 65.0515 68.0097 65.1782C68.099 65.29 68.1849 65.4045 68.2642 65.5237C68.3939 65.7179 68.517 65.9162 68.6418 66.1136C68.6529 66.1308 68.652 66.1579 68.666 66.1699C68.9316 66.3966 69.1437 66.6509 69.2854 66.9849C69.3389 67.1105 69.596 67.1601 69.7683 67.2223C70.0375 67.3193 70.3082 67.4211 70.5868 67.4774C71.0449 67.5703 71.428 67.3149 71.809 67.1294C73.1256 66.4871 74.248 65.5711 75.3086 64.5746C75.4589 64.4338 75.6137 64.2976 75.7587 64.152C75.9173 63.9925 76.0949 63.8429 76.0259 63.5687C76.0121 63.5135 76.0785 63.3988 76.1363 63.3722C76.6353 63.1391 76.7247 62.6584 76.8433 62.2053C76.9456 61.8134 77.0724 61.4178 76.9245 61C76.9007 60.9319 76.9677 60.7937 77.0342 60.7453C77.0816 60.711 77.2078 60.7585 77.2823 60.7996C77.3387 60.8307 77.3841 60.9039 77.408 60.9678C77.5388 61.3247 77.649 61.6893 77.7895 62.0423C78.0711 62.7508 78.4806 63.3735 79.0806 63.8562C79.3532 64.0757 79.6426 64.2736 79.9128 64.4957C80.0043 64.5709 80.061 64.6887 80.1104 64.8081C80.4743 64.9416 80.7532 65.1729 80.9911 65.5014C81.3585 66.0079 81.7722 66.4819 82.1845 66.9543C82.3918 67.1919 82.4821 67.4597 82.5391 67.759C82.566 67.8994 82.6573 68.0305 82.733 68.1581C82.8683 68.3875 83.0165 68.6094 83.1527 68.8382C83.1768 68.8788 83.1906 68.9451 83.1753 68.9867C82.9907 69.49 83.3125 69.8523 83.5687 70.1852C84.0889 70.8609 84.6692 71.4907 85.2272 72.1368C85.3008 72.2222 85.3794 72.3096 85.4726 72.3702C86.2135 72.8518 86.958 73.3274 87.7027 73.8035C87.7808 73.8535 87.8654 73.8923 87.9467 73.9364C88.1229 74.0311 88.162 74.1737 88.0903 74.3536C88.0637 74.4206 88.033 74.4856 88.0041 74.5516C87.8473 74.912 87.7259 75.2719 87.7539 75.6824C87.7729 75.9646 87.6866 76.2524 87.6743 76.5393C87.6668 76.709 87.6949 76.8851 87.7376 77.0502C87.8271 77.3958 87.709 77.798 87.4138 78.0012C87.3297 78.0592 87.2 78.0912 87.0997 78.0769C86.94 78.0534 86.7821 77.992 86.632 77.9268C86.2564 77.7625 85.897 77.5519 85.5101 77.4243C84.9348 77.2351 84.349 77.3123 83.7831 77.504C83.687 77.5363 83.5922 77.6354 83.542 77.7281C83.4353 77.9253 83.2836 77.9807 83.0795 77.9386C82.6359 77.8469 82.1913 77.7599 81.823 77.4646C81.6099 77.2937 81.3817 77.207 81.0864 77.2164C80.8672 77.2235 80.63 77.1069 80.4249 76.9991C80.0967 76.8269 79.7933 76.6256 79.3935 76.6354C79.2607 76.6387 79.1118 76.5194 78.993 76.4272C78.7969 76.2752 78.6002 76.1776 78.3402 76.221C78.2238 76.2403 78.0943 76.2114 77.9759 76.1825C77.4102 76.0434 76.8495 75.8824 76.2806 75.7582C75.885 75.6721 75.5158 75.5597 75.1679 75.3327C74.659 75.0004 74.0644 74.899 73.4689 74.8175C73.0112 74.7549 72.573 74.8512 72.1238 74.9089C71.6772 74.9665 71.2259 75.0805 70.7566 74.9216C70.3677 74.7899 69.9465 74.7533 69.5394 74.6765C69.3748 74.6456 69.2667 74.5488 69.2794 74.3846C69.2949 74.1857 69.1934 74.0894 69.0665 73.9509C68.5959 73.4372 67.974 73.196 67.3665 72.922C67.3008 72.8926 67.2316 72.8659 67.1738 72.8245C66.2956 72.1946 65.2765 71.9544 64.2398 71.7609C64.1692 71.7478 64.0987 71.7306 64.0297 71.7111C63.0458 71.4277 62.0551 71.3256 61.0639 71.6582C60.6191 71.8073 60.2787 71.714 59.8972 71.4319C59.3332 71.0149 58.6695 70.8518 57.9457 70.8985C57.0502 70.9559 56.2432 71.2642 55.4531 71.6478C55.1934 71.7738 55.0405 71.7625 54.8456 71.5539C54.6917 71.3891 54.5523 71.2078 54.4277 71.02C54.2891 70.8116 54.0977 70.695 53.8729 70.6014C53.656 70.5105 53.4295 70.4158 53.2487 70.2709C52.6553 69.7948 51.9852 69.5576 51.2309 69.5164C50.6834 69.4868 50.1496 69.389 49.6611 69.1144C49.5473 69.0504 49.4065 69.0363 49.2828 68.9868C49.2096 68.9575 49.1464 68.9037 49.0791 68.8609L49.1081 68.7578C49.2289 68.7644 49.3555 68.7498 49.4699 68.7812C49.916 68.9038 50.3557 69.0487 50.8021 69.1681C50.9682 69.2124 51.1547 69.2505 51.3194 69.2205C51.8887 69.1162 52.3709 69.3264 52.8439 69.5894C53.3105 69.8487 53.7563 70.1561 54.2438 70.3655C54.9468 70.6676 55.6196 70.4709 56.2233 70.0584C56.5794 69.8153 56.9575 69.701 57.3792 69.6867C57.6013 69.6789 57.8232 69.6575 58.1151 69.6377C58.0314 69.5039 57.996 69.4233 57.9405 69.3611C57.536 68.9093 57.0667 68.544 56.4815 68.3622C56.3223 68.3128 56.1255 68.3005 55.9688 68.3473C55.6735 68.4359 55.4317 68.3736 55.2345 68.1661C54.9458 67.862 54.6116 67.8393 54.2429 67.955C53.9878 68.0353 53.7352 68.1242 53.4802 68.2045C53.1621 68.3044 52.842 68.3404 52.5048 68.2986C52.3538 68.2797 52.1922 68.3668 52.0331 68.3904C51.8996 68.4101 51.7489 68.448 51.6294 68.4076C51.0746 68.2214 50.5219 68.1189 49.9358 68.2605C49.7445 68.3068 49.534 68.2702 49.3333 68.2827C49.1717 68.2931 49.008 68.3076 48.8502 68.3431C48.4138 68.4405 47.9839 68.2127 47.8132 67.8057C47.7601 67.6795 47.6653 67.5528 47.5558 67.4721C47.2046 67.2134 47.0443 66.8649 47.0114 66.4439C47.0081 66.4031 47.0095 66.3611 47.0048 66.3206C46.9399 65.7305 46.7858 65.1959 46.229 64.8559C45.8796 64.6425 45.6753 64.3057 45.4872 63.9357C45.3354 63.637 45.0659 63.3828 44.806 63.1588C44.4109 62.818 44.0411 62.4616 43.8464 61.973C43.7543 61.7416 43.7427 61.4785 43.6963 61.2295C43.6027 60.7256 43.5159 60.2206 43.4116 59.7192C43.3954 59.6403 43.3022 59.5776 43.2444 59.5078C43.0747 59.303 42.9008 59.1017 42.7389 58.8911C42.6997 58.8403 42.6966 58.7589 42.6858 58.6903C42.6765 58.6301 42.7053 58.5484 42.6745 58.5098C42.4308 58.2019 42.5353 57.8419 42.4983 57.5015C42.4851 57.3808 42.4189 57.2393 42.3306 57.1583C41.7764 56.6477 41.4272 55.9914 41.0242 55.3729C40.9761 54.7828 40.657 54.1997 41.1467 53.6101C41.3476 53.3683 41.344 52.9573 41.4332 52.6231C41.1966 52.2451 41.2014 51.7631 40.8543 51.4213C40.2684 50.8436 39.7251 50.2219 39.0167 49.7841C38.9153 49.7213 38.7946 49.6645 38.6788 49.6557C38.3682 49.6317 38.2486 49.5822 38.2166 49.301C38.1884 49.0518 38.0485 48.9188 37.8998 48.7457C37.7261 48.5434 37.6147 48.2744 37.5257 48.017C37.4132 47.693 37.2655 47.4735 36.8768 47.4832C36.7739 47.4857 36.6349 47.3677 36.5701 47.2675C36.4762 47.1228 36.3705 47.0433 36.2023 47.0294C36.0066 47.0128 35.8726 46.9078 35.8304 46.7142C35.7226 46.2196 35.3292 46.0153 34.9171 45.8844C34.4448 45.7343 34.0229 45.5169 33.6558 45.1959C33.3942 44.9673 33.1196 44.7807 32.7696 44.7272C32.729 44.7208 32.6856 44.6933 32.6496 44.7021C32.2332 44.805 31.8998 44.5574 31.5382 44.4382C31.3727 44.3836 31.2299 44.3522 31.0704 44.4525C30.6994 44.6859 30.329 44.6518 29.9761 44.4097C29.8205 44.3032 29.684 44.3256 29.5561 44.4399C29.4272 44.5544 29.3243 44.5417 29.1728 44.4555C29.0395 44.3793 28.8573 44.3422 28.7034 44.3575C27.9753 44.4295 27.5422 43.6739 27.7684 43.0184C27.8085 42.9021 27.8641 42.7913 27.9141 42.6783C28.0253 42.4279 27.9643 42.2654 27.6947 42.2299C27.3522 42.1848 27.0018 42.1709 26.6563 42.1828C26.4855 42.1888 26.348 42.1846 26.2531 42.0356C26.129 41.8411 25.9427 41.7797 25.727 41.7646C25.2981 41.7344 24.9009 41.6193 24.5409 41.3687C24.4495 41.3052 24.2786 41.2838 24.1756 41.3238C23.9333 41.4174 23.7192 41.4137 23.4976 41.2833C23.2005 41.109 22.8921 41.0048 22.5322 41.0601C22.3964 41.0808 22.23 41.0153 22.102 40.945C21.9124 40.8407 21.8283 40.6659 21.9276 40.4476C22.0721 40.1306 21.9954 39.847 21.8058 39.5784C21.7878 39.5531 21.7662 39.5277 21.7585 39.499C21.5805 38.8366 21.0445 38.4111 20.682 37.8709C20.6308 37.7945 20.5535 37.7216 20.5372 37.6376C20.4718 37.3042 20.2349 37.1297 19.9607 36.9978C19.7243 36.884 19.5614 36.735 19.4837 36.4714C19.4082 36.2155 18.999 36.0701 18.6963 36.1685C18.4578 36.246 18.2233 36.3119 17.9484 36.1903C17.9413 35.9048 18.0933 35.6642 18.2364 35.4444C18.4667 35.0899 18.4601 34.6597 18.1527 34.3468C18.0232 34.2149 17.8759 34.1003 17.7397 33.9745C17.6024 33.8485 17.5954 33.7324 17.7731 33.634C18.0081 33.5041 18.0977 33.3099 18.054 33.0415C18.0259 32.8694 18.0818 32.7251 18.2337 32.6114C18.3868 32.4963 18.3996 32.2945 18.283 32.1571C18.1443 31.9939 18.0271 32.1108 17.9106 32.193C17.8604 32.2284 17.8047 32.2642 17.7697 32.3128C17.5783 32.5783 17.3805 32.7615 17.0334 32.516C16.9805 32.4786 16.7987 32.5901 16.6981 32.6621C16.532 32.7806 16.3863 32.9274 16.225 33.0535C16.1945 33.0773 16.1326 33.0622 16.0405 33.0678C16.1064 32.9399 16.1544 32.8466 16.2079 32.7424C15.9881 32.4549 15.6313 32.6946 15.3394 32.4618C15.3502 32.7612 15.3561 32.9906 15.3676 33.2203C15.3807 33.4836 15.2705 33.6724 15.0357 33.8028C14.9106 33.6877 14.7911 33.5773 14.6319 33.431C14.5978 33.5647 14.5711 33.6292 14.5666 33.6952C14.553 33.8956 14.3872 33.8944 14.2718 33.878C14.1961 33.8671 14.0795 33.7403 14.0815 33.6678C14.0859 33.5024 14.0908 33.374 13.9162 33.2845C13.7216 33.1849 13.5301 33.1206 13.3314 33.2427C13.1225 33.3711 12.9148 33.371 12.68 33.3283C12.5046 33.2964 12.3111 33.3223 12.1332 33.3589C11.9282 33.4012 11.7647 33.368 11.6387 33.2008C11.4878 33.0003 11.2792 32.9522 11.0428 32.9353C10.7253 32.9128 10.4101 32.8625 10.0932 32.8292C9.91792 32.8109 9.8337 32.7035 9.82443 32.5449C9.80063 32.1258 9.76689 31.7054 9.77991 31.2875C9.78991 30.9706 9.76022 30.6995 9.57122 30.4201C9.46018 30.256 9.45759 29.9857 9.48219 29.7715C9.51896 29.4475 9.60981 29.1379 9.57032 28.798C9.53257 28.4744 9.6565 28.1739 9.79529 27.8607C9.93619 27.5436 10.0791 27.1737 10.0173 26.7943C9.94663 26.3592 9.685 26.0291 9.32456 25.8161C8.711 25.4548 8.06371 25.1672 7.32708 25.1452C7.01529 25.1362 6.82478 25.2629 6.69157 25.5321C6.59197 25.7337 6.4745 25.9283 6.34973 26.1154C6.21706 26.3145 6.17311 26.5108 6.21899 26.7554C6.25953 26.9702 6.2388 27.2033 6.20308 27.4221C6.18783 27.5164 6.08239 27.6357 5.99109 27.669C5.84908 27.7201 5.68101 27.6651 5.63589 27.5051C5.52784 27.1212 5.4332 26.7316 5.36526 26.339C5.34766 26.2365 5.43704 26.1093 5.49333 26.0014C5.75967 25.4935 5.71888 25.0184 5.37828 24.5554C5.27745 24.4179 5.20897 24.2491 5.15732 24.085C4.98052 23.5202 4.76663 22.9903 4.29774 22.5828C3.66121 22.0299 3.05433 21.4428 2.43299 20.8722C2.25452 20.7085 2.08384 20.6927 1.82212 20.7553C1.46473 20.8409 1.06982 20.7775 0.691193 20.7626C0.625129 20.7601 0.562234 20.6813 0.49894 20.6381C0.522244 20.583 0.526497 20.5399 0.547069 20.5301C0.93413 20.3422 1.31796 20.1469 1.71296 19.978C1.91851 19.8899 2.05735 19.7746 2.11653 19.5519C2.21753 19.1719 2.28569 18.8036 2.20283 18.3992C2.1522 18.1516 2.20748 17.8659 2.27392 17.6132C2.47517 16.8478 2.70412 16.0902 2.92376 15.3298C3.01202 15.0243 3.10147 14.7195 3.19582 14.4161C3.21045 14.3696 3.24324 14.3205 3.28216 14.2912C3.74826 13.9445 3.84483 13.3697 4.13399 12.9143C4.21018 12.7937 4.26263 12.6583 4.32803 12.5305C4.36098 12.4666 4.41371 12.4093 4.43268 12.342C4.56727 11.8614 4.70821 11.3819 4.81867 10.8957C4.85396 10.741 4.80153 10.5669 4.78914 10.4013C4.81776 10.3846 4.84637 10.3678 4.87499 10.3511C5.02086 10.4858 5.18331 10.6065 5.30728 10.7584C5.46215 10.9473 5.62427 10.9524 5.85069 10.9107C6.47255 10.7964 6.95254 10.4175 7.47604 10.1149C7.59788 10.0446 7.75665 10.0353 7.9003 10.0066C8.10126 9.96677 8.30905 9.95424 8.50433 9.8964C8.74895 9.82361 8.95327 9.86412 9.12778 10.0414C9.29569 10.2121 9.48451 10.2734 9.71671 10.1974C9.92816 10.1282 10.0682 10.2156 10.1763 10.4001C10.3932 10.7695 10.5669 10.8445 10.9873 10.7807C11.4135 10.7162 11.7844 10.5198 12.1527 10.3099C12.481 10.1229 12.8222 9.95824 13.1517 9.774C13.3027 9.68937 13.4338 9.56878 13.5855 9.485C14.328 9.07337 14.9958 8.56943 15.5852 7.95477C15.6801 7.85572 15.8823 7.82318 16.0339 7.82465C16.2034 7.82655 16.3722 7.90217 16.5409 7.94686C16.5604 7.952 16.5771 7.97148 16.5962 7.97313C16.9571 8.00992 17.318 8.00104 17.6423 8.24006C17.7341 8.30761 17.996 8.22829 18.1294 8.14011C18.5754 7.84677 19.0106 7.53357 19.4267 7.19894C19.7722 6.92121 20.2728 6.92366 20.547 7.27066C20.809 7.60222 21.1441 7.80222 21.5449 7.89774C21.6792 7.9296 21.8252 7.91106 21.9655 7.91665C22.0563 7.92052 22.159 7.90134 22.2354 7.93745C22.4606 8.04416 22.6485 7.98955 22.8426 7.86096C23.3383 7.53228 23.8871 7.26688 24.3288 6.87814C25.3075 6.01722 26.0984 4.98262 26.801 3.88929C27.3405 3.04978 27.8319 2.18029 28.3388 1.32043C28.4111 1.19821 28.4317 1.04582 28.5045 0.923966C28.6455 0.688449 28.8071 0.464924 28.9599 0.236809C29.1006 0.204272 29.2409 0.171846 29.3816 0.139309L29.3853 0.135417Z" fill="#353C4C"/>
</svg>
