<svg width="125" height="46" viewBox="0 0 125 46" fill="none" xmlns="http://www.w3.org/2000/svg">
<g filter="url(#filter0_d_683_698)">
<path d="M17.1051 7.54121C17.2652 7.76232 17.4186 7.97433 17.5674 8.17983C17.8802 8.23771 18.1837 8.16423 18.4945 8.30925C18.671 8.39119 18.9766 8.42501 19.2103 8.25007C19.2867 8.19284 19.4223 8.19934 19.531 8.19869C20.1296 8.19414 20.7281 8.19609 21.3267 8.19674C21.7494 8.19739 22.0938 8.46728 22.4968 8.53491C22.6476 8.56028 22.8537 8.65522 22.9406 8.59214C23.2165 8.39184 23.5129 8.45947 23.7907 8.47898C24.4044 8.52126 24.9971 8.38208 25.6378 8.30405C25.7477 8.1174 25.9762 7.98539 26.1152 7.73436C26.2712 7.45147 25.9071 7.25181 26.1224 7.02355C26.3028 6.81869 26.4997 6.69773 26.8158 6.82065C26.9949 6.89023 27.2287 6.85511 27.4315 6.8252C27.5494 6.80764 27.6547 6.70749 27.789 6.6314C27.6988 6.45516 27.6389 6.29388 27.5415 6.15926C27.4493 6.03115 27.3182 5.931 27.2102 5.82434C27.0884 5.25465 27.4756 5.00038 27.8878 4.79553C28.2283 4.62644 28.5601 4.44175 28.9401 4.33444C29.1547 4.27396 29.2667 4.24275 29.4748 4.35655C29.7494 4.50678 30.0773 4.62904 30.3848 4.63554C30.82 4.644 31.2112 4.71358 31.6669 5.11353C31.9592 5.76776 32.3286 6.59368 32.7132 7.45407C32.5854 7.62445 32.4373 7.80134 32.3135 7.99319C32.1634 8.22471 31.9243 8.46663 31.9191 8.7079C31.9118 9.08184 31.653 9.18199 31.4351 9.24377C31.0327 9.35823 30.6113 9.62812 30.18 9.30165C29.5959 9.35043 29.081 9.03177 28.5048 9.0025C28.192 8.98624 27.924 8.83471 27.5606 8.95828C27.2497 9.06363 27.0621 9.18069 26.9633 9.54943C27.0963 9.64112 27.2656 9.82907 27.4703 9.88305C27.9089 9.99945 28.3244 10.2037 28.6964 10.4111C29.0869 10.6283 29.4524 10.6043 29.8415 10.6641C30.2412 10.7259 30.6521 10.8228 30.9485 11.1479C31.0716 11.2826 31.2099 11.4042 31.3376 11.5349C31.5813 11.7859 31.8723 11.9153 32.2424 11.877C32.4577 11.6565 32.6803 11.4282 32.8982 11.2052H33.6403C33.722 11.0738 33.8003 10.9229 33.9024 10.789C34.0242 10.6277 34.2257 10.5984 34.3706 10.7116C34.8552 11.0901 35.1377 11.5667 35.0686 12.1963C35.0554 12.3185 34.9915 12.4356 34.9415 12.5826C35.2721 13.0833 35.2661 13.6315 35.1246 14.2383C35.0199 14.6864 35.0133 15.1923 35.1107 15.6411C35.2108 16.1034 35.6362 16.3876 36.0998 16.4943C36.5278 16.5931 36.9769 16.6393 37.4167 16.64C37.717 16.64 38.0054 16.4813 38.3268 16.5092C38.6336 16.5359 38.9536 16.5678 39.2381 16.3824C39.2704 16.3616 39.3283 16.3824 39.3744 16.3792C39.9769 16.3343 40.5985 16.3636 41.1773 16.2231C41.8332 16.0638 42.4798 16.1555 43.1278 16.1028C43.4096 16.08 43.6875 16.002 43.9693 15.974C44.2617 15.9448 44.6113 16.0378 44.8372 15.9083C45.1091 15.7523 45.4522 16.0013 45.6504 15.697C45.9863 15.7197 46.3043 15.6391 46.6316 15.5728C47.2249 15.4531 47.8129 15.258 48.3989 15.1904C49.3169 15.085 49.9372 14.5979 50.5351 14.0035C50.7787 13.7616 51.023 13.5216 51.2673 13.2804C52.1266 13.0157 53.0123 13.1061 53.8874 13.1132C54.4675 13.1178 55.0529 13.1601 55.6245 13.2524C56.1737 13.3408 56.7222 13.48 57.2417 13.6738C57.4156 13.7388 57.5716 13.7811 57.7461 13.7857C57.9977 13.7922 58.2499 13.7876 58.4909 13.7876C58.583 13.8787 58.6647 13.9587 58.7582 14.0516C59.3377 14.1063 59.8664 13.9697 60.3432 13.6042C60.5269 13.4631 60.7495 13.3714 60.9582 13.2635C61.1729 13.1522 61.3263 13.3473 61.5126 13.3831C61.8142 13.4416 62.0493 13.6062 62.2087 13.9372C62.5234 13.9372 62.9093 13.8364 63.1898 13.9626C63.5395 14.1199 63.8535 13.9918 64.2019 14.0783C64.3797 13.7388 64.5469 13.4208 64.7412 13.0508C64.8703 13.2127 64.9815 13.3519 65.1007 13.5015H66.5138C66.6192 13.6419 66.7127 13.8208 66.8562 13.943C66.9919 14.0582 67.1756 14.1726 67.3448 14.183C67.6319 14.2012 67.8426 14.3267 68.0672 14.4945C67.9368 14.7976 67.7498 15.0863 67.6938 15.3978C67.624 15.7828 67.759 16.1808 67.9691 16.5008C68.1482 16.7733 68.4596 16.9625 68.7876 17.0542C69.2643 17.1875 70.8315 17.3104 71.3484 17.1771C71.7277 17.0796 72.1221 17.1518 72.4632 17.0386C72.9136 16.8884 73.3528 16.9671 73.8362 16.9066C73.9995 17.1212 74.17 17.3443 74.3485 17.5784C74.7785 17.6168 75.1959 17.8092 75.649 17.7416C75.9525 17.6967 76.2541 17.6324 76.559 17.6102C76.8797 17.5875 77.226 17.6779 77.5204 17.5888C78.0333 17.4347 78.5661 17.5712 79.0514 17.4477C79.7072 17.2805 80.3532 17.3573 81.0024 17.3371C81.6346 17.3176 81.846 17.4548 82.2345 17.992C82.4011 18.2229 82.6177 18.4225 82.7619 18.6644C82.9101 18.9122 83.1721 19.0221 83.3486 19.2289C83.5435 19.4565 83.8438 19.4695 84.1019 19.571C84.3614 19.6731 84.6083 19.7219 84.8513 19.5398C85.6494 19.5645 86.2789 19.1034 86.9617 18.8088C87.5313 18.563 88.1114 18.3614 88.7067 18.1936C88.7778 18.1734 88.87 18.1832 88.9405 18.2099C89.2434 18.323 89.514 18.2736 89.8327 18.1923C90.7065 17.9692 91.4796 17.486 92.3639 17.302C92.6122 17.25 92.8433 17.1186 93.0922 17.0685C93.2318 17.0406 93.3866 17.0321 93.5426 17.1407C93.7474 17.2838 93.9924 17.382 94.2327 17.4646C94.8029 17.6603 95.4792 17.6103 96.197 17.4971C96.7066 17.4165 97.2407 17.4815 97.7595 17.4815C97.9038 17.8684 97.6134 18.1253 97.4659 18.3737C97.2914 18.667 96.9667 18.8842 96.6803 19.1002C96.3524 19.3473 96.1515 19.6516 96.1403 20.073C96.1298 20.458 96.1384 20.843 96.1384 21.2573H96.546V19.9918C96.8089 19.801 97.0866 19.8465 97.3789 20.1283C97.3098 20.3793 97.2084 20.6245 97.1821 20.8775C97.1544 21.1454 97.4626 21.3633 97.3427 21.7041C97.159 21.6481 96.9845 21.5948 96.8278 21.5467C96.6678 21.6098 96.4709 22.0539 96.5756 22.1756C96.7382 22.3642 96.6763 22.5462 96.6777 22.7563C96.515 22.8558 96.3491 22.9566 96.1838 23.0594C96.0363 23.1517 95.8901 23.2466 95.7749 23.3201C95.5681 23.91 95.9303 24.3685 96.0211 24.9245C95.8269 25.0819 95.6155 25.2529 95.4173 25.4142C95.628 25.8694 95.7617 26.3064 96.0139 26.6615C96.2806 27.0381 96.3701 27.3782 96.0732 27.8321C96.4531 27.8321 96.7501 27.8568 97.0405 27.8263C97.5146 27.7768 97.8807 28.0005 98.2607 28.2184C98.5372 28.3764 98.8177 28.5442 99.118 28.6411C99.5098 28.7679 100.039 28.5319 100.279 28.1573C100.462 27.8718 100.636 27.5772 100.775 27.2696C100.939 26.9041 101.139 26.5744 101.473 26.3325C102.131 26.3877 102.611 26.0632 102.981 25.6418C103.062 25.3479 103.129 25.1027 103.194 24.8666C103.692 24.7691 104.13 24.8686 104.574 25.0324C104.797 25.115 105.058 25.1007 105.3 25.13C105.533 24.8842 105.752 24.6527 105.985 24.4055C106.227 24.4823 106.45 24.3776 106.704 24.5278C106.986 24.6936 107.543 24.3424 107.743 23.9581C107.84 23.7708 107.911 23.5666 108.033 23.3969C108.152 23.2323 108.32 23.1036 108.526 22.8994C108.931 22.9527 109.387 23.0125 109.829 23.0711C109.982 22.9579 110.12 22.8558 110.277 22.7394C110.36 22.9553 110.426 23.1289 110.484 23.2798C111.048 23.4385 111.546 23.2902 112.012 23.1172C112.298 23.0106 112.428 23.0912 112.583 23.2844C112.49 23.5373 112.396 23.7942 112.299 24.0589C113.106 24.6631 113.932 24.4361 114.758 24.1096C114.936 24.0394 115.113 23.9627 115.277 23.8664C115.447 23.7669 115.518 23.6095 115.481 23.406C115.423 23.0854 115.437 23.0639 115.675 22.9228C115.749 22.8792 115.82 22.8304 115.895 22.7882C115.912 22.7784 115.94 22.7869 115.967 22.7869C116.042 22.5697 116.119 22.3505 116.194 22.132C116.518 22.2705 116.69 22.0722 116.882 21.8771C116.818 21.7509 116.761 21.6384 116.696 21.509C117.07 21.204 117.374 20.8651 117.423 20.3553H117.922C117.941 20.4106 117.97 20.4893 118.005 20.5894C118.398 20.3403 118.757 20.0087 119.312 20.0652C119.331 19.8962 119.351 19.7277 119.372 19.543C119.546 19.4279 119.728 19.3089 119.924 19.1795C119.807 19.1242 119.713 19.08 119.582 19.0189C119.879 18.6059 120.351 18.5844 120.749 18.4245C121.052 18.7048 121.049 18.7028 120.907 19.0013C120.835 19.1528 120.79 19.3167 120.727 19.4728C120.696 19.5508 120.661 19.6802 120.61 19.6893C120.242 19.7524 120.201 20.1173 119.985 20.3169C119.823 20.4678 119.678 20.5881 119.42 20.6304C119.139 20.6765 118.898 20.9185 118.802 21.3061C118.961 21.7255 119.178 22.2094 119.322 22.7134C119.39 22.9494 119.449 23.2479 119.164 23.4508C119.007 23.5621 119.027 23.7201 119.125 23.8645C119.382 24.2416 119.644 24.6156 119.885 24.9635H120.372C120.505 24.8302 120.486 24.5226 120.833 24.5688V25.3316C120.651 25.5768 120.39 25.7985 120.02 25.8733C119.607 25.9572 119.495 26.3019 119.405 26.6303C119.368 26.7669 119.416 26.9698 119.502 27.0868C119.833 27.5362 119.636 27.9407 119.439 28.3517C119.385 28.4662 119.293 28.5657 119.25 28.6827C119.168 28.9013 119.019 29.0983 119.065 29.3604C119.115 29.6355 119.006 29.8754 118.806 30.0692C118.216 30.6441 117.963 31.3979 117.698 32.1386C117.614 32.3747 117.482 32.5405 117.269 32.5958C116.936 32.6829 116.698 32.893 116.435 33.0848C116.212 33.2487 115.969 33.3937 115.719 33.5153C115.607 33.57 115.406 33.6083 115.333 33.5491C115.009 33.289 114.762 33.5706 114.507 33.6487C114.166 33.7534 113.835 33.9224 113.53 34.111C113.004 34.4355 112.457 34.6163 111.782 34.4811C111.7 34.0115 111.402 33.6194 110.971 33.2942C110.308 33.2643 109.621 33.2552 108.985 33.5557C108.862 33.5049 108.722 33.4809 108.63 33.4028C108.471 33.2676 108.346 33.2376 108.148 33.3482C108.01 33.4262 107.817 33.4126 107.622 33.4444C107.611 33.2396 107.602 33.0868 107.593 32.9268C107.28 32.7558 106.964 32.5828 106.633 32.402C106.467 32.6049 106.34 32.7616 106.245 32.8767C105.518 32.8767 104.872 32.9073 104.231 32.8676C103.659 32.8318 103.153 33.0289 102.645 33.2136C101.826 33.5114 101.047 33.9068 100.2 34.1409C100.055 34.1813 99.9134 34.2398 99.7607 34.2385C99.2576 34.2346 98.7328 34.3087 98.2587 34.1891C97.8056 34.0746 97.3361 34.0148 96.8831 33.8613C96.4887 33.7273 96.0527 33.6077 95.6254 33.5693C95.123 33.5238 94.6126 33.5433 94.1069 33.5648C93.8251 33.5765 93.5472 33.6604 93.2654 33.6922C92.9822 33.7241 92.6905 33.6415 92.4179 33.821C92.331 33.8782 92.1572 33.8171 92.0261 33.793C91.9221 33.7742 91.8194 33.6909 91.7232 33.702C91.282 33.752 90.825 33.5706 90.3951 33.8268C90.0303 34.0447 89.6398 34.219 89.2611 34.4141C89.0524 34.5214 88.845 34.6319 88.6323 34.7432C88.3834 34.591 88.0937 34.6684 87.7875 34.6456C87.6683 34.7874 87.5379 34.9428 87.474 35.0182C86.6832 35.1808 86.0333 34.8225 85.3517 34.922C85.0752 34.7041 84.7453 34.7672 84.4424 34.7932C83.56 34.8687 82.7428 34.6118 81.9428 34.3198C81.709 34.2346 81.4568 34.1858 81.2961 34.2606C81.0163 34.3913 80.6831 34.3939 80.45 34.5435C79.6789 35.0397 78.84 35.0976 77.9734 35.0514C77.8365 35.2452 77.5474 35.2075 77.4644 35.5255C77.3327 36.0302 76.856 36.1518 76.3779 36.1433C75.9492 36.1362 75.5489 36.1999 75.1788 36.4204C75.1617 36.4301 75.1228 36.4119 75.1123 36.423C74.7185 36.8301 74.2214 36.8814 73.6847 36.8158C73.6169 36.7039 73.5398 36.5771 73.4727 36.4652C72.7938 36.2955 72.159 36.5146 71.519 36.5738C71.3287 36.5914 71.1469 36.7839 70.979 36.9179C70.819 37.046 70.7024 37.2339 70.5312 37.3393C70.3732 37.4362 70.1664 37.5057 69.9847 37.4979C69.8286 37.4908 69.6778 37.3581 69.4447 37.2398C69.292 37.2398 69.0391 37.2443 68.7863 37.2391C68.1199 37.2255 67.4956 37.4466 66.8536 37.5701C66.6416 37.6111 66.4039 37.669 66.2076 37.6157C65.7184 37.483 65.2344 37.3516 64.6569 37.3809C64.5542 37.4953 64.4185 37.6469 64.2618 37.8218C64.1393 37.7711 63.9932 37.7509 63.9089 37.669C63.6982 37.4622 63.4776 37.4329 63.2477 37.5961C63.1002 37.7015 62.9238 37.6709 62.7592 37.7587C62.4767 37.909 62.1771 37.6878 61.9084 37.5032C61.591 37.6521 61.2749 37.7451 60.9253 37.5201C60.7159 37.3854 60.461 37.3028 60.2148 37.2463C59.8954 37.1728 59.5642 37.1481 59.2376 37.1032C58.7187 37.0317 58.2986 37.2463 57.9028 37.5441C57.432 37.8979 56.9217 37.8134 56.3291 37.7034C56.0068 37.8894 55.6745 37.9165 55.3321 37.7847C55.263 37.8355 55.1938 37.8862 55.0384 38C54.9094 37.8511 54.7829 37.7054 54.673 37.5786C54.7039 37.4849 54.7066 37.4355 54.7322 37.4062C54.808 37.3211 54.8797 37.2014 54.9772 37.1715C55.2722 37.0804 55.4032 36.899 55.4118 36.6018C55.4131 36.5511 55.4888 36.5023 55.5376 36.4451C55.4427 36.2695 55.3519 36.1017 55.2406 35.8955C55.6646 35.3675 55.1227 34.7913 55.2511 34.2404C55.4236 33.9491 55.5955 33.6786 55.7443 33.397C55.7917 33.3066 55.8279 33.118 55.7871 33.0894C55.5211 32.9047 55.8036 32.5353 55.5204 32.3727C55.5474 31.764 55.1991 31.2828 54.9818 30.7527C54.8415 30.4107 54.6216 30.1635 54.3826 29.9054C54.0922 29.5925 53.7254 29.4735 53.3211 29.4709C52.0548 29.4612 50.7886 29.4677 49.5223 29.467C48.9843 29.467 48.7348 29.3975 48.156 29.0866C48.0038 29.1783 47.8471 29.2732 47.726 29.3467C47.6265 29.3201 47.5673 29.3227 47.5462 29.296C47.3454 29.0385 47.134 28.7874 46.9601 28.513C46.7567 28.1911 46.6164 27.8276 46.3925 27.5219C46.2444 27.3197 46.0192 27.1141 45.7874 27.0465C45.5661 26.9821 45.3278 26.908 45.0953 26.8865C44.7641 26.856 44.4487 26.8664 44.1491 26.6544C44.0095 26.5555 43.7553 26.6173 43.5532 26.603C43.1554 26.5757 42.7623 26.6349 42.358 26.4918C42.1526 26.4189 42.0525 26.2473 41.8609 26.1913C41.6633 26.1341 41.6198 25.8779 41.4045 25.8265C41.1971 25.7771 40.9969 25.6886 40.7875 25.6555C40.6038 25.6262 40.5195 25.5332 40.4603 25.3752C40.268 24.8627 39.8505 24.7092 39.3277 24.9199C39.1321 24.9986 38.9589 25.1215 38.714 25.1189C38.4558 25.1163 38.2293 25.0526 38.0252 24.9375C37.7835 24.8016 37.5965 24.7931 37.3575 24.9512C37.1119 25.1137 36.8215 25.2074 36.5587 25.3459C36.1426 25.5657 35.7172 25.6047 35.3083 25.37C35.0317 25.2119 34.7848 25.1944 34.4997 25.3251C34.1638 25.4799 33.853 25.3589 33.5686 25.1794C33.3651 25.0513 33.1458 24.9225 32.995 24.7437C32.4893 24.1441 31.8585 24.1838 31.2579 24.468C30.8958 24.639 30.5593 24.7164 30.1602 24.6891C30.045 24.5694 29.9192 24.438 29.7513 24.2631C29.2746 24.3223 28.7722 24.3847 28.2421 24.4511C28.1585 24.3392 28.0768 24.2312 28.0175 24.1519H27.6975C27.5592 24.3886 27.4229 24.624 27.2596 24.9037C27.1286 24.799 27.0377 24.7404 26.9646 24.665C26.8099 24.5057 26.6584 24.5336 26.4905 24.6436C26.0671 24.9199 25.5772 24.9154 25.2295 24.5792C24.98 24.3379 24.7646 24.0511 24.5796 23.7572C24.0897 22.9787 23.5524 22.8525 22.6305 22.9364C22.3697 22.9605 22.1162 23.1348 21.864 23.2388C21.3445 23.4535 20.9132 23.2993 20.5036 23.0502C20.1012 22.8057 19.7055 22.5788 19.2202 22.6548C18.7316 22.7322 18.347 22.3804 17.8835 22.3772C16.878 21.7932 16.0121 22.2295 15.1574 22.742C14.9743 22.8519 14.7991 22.9735 14.622 23.0886C14.2901 22.7303 13.8641 22.7036 13.4578 22.6561C13.1628 22.6217 12.8599 22.6581 12.5609 22.6477C11.9123 22.6249 11.269 22.6132 10.756 23.1211C10.6257 22.9273 10.5328 22.7895 10.4387 22.6496C9.87434 22.6496 9.31857 22.6074 8.77335 22.6633C8.35521 22.7062 7.94366 22.7934 7.51696 22.794C7.18706 22.794 6.90786 22.7238 6.6425 22.4793V21.6293C6.51409 21.5116 6.41334 21.3431 6.27638 21.3074C5.91685 21.2137 5.54151 21.1779 5.07399 21.1032C4.90805 20.8326 4.69668 20.488 4.45304 20.0919C4.35097 20.0555 4.17121 19.9924 4 19.9319V19.0475C4.18569 18.8771 4.38653 18.693 4.58671 18.5097C4.75791 18.3542 5.07991 18.5461 5.23071 18.1357C5.15696 18.0811 5.02131 18.003 4.91266 17.897C4.69075 17.6805 4.5663 17.3501 4.69997 17.1186C4.92451 16.7291 4.61502 16.4104 4.68021 16.0612C4.39509 15.7913 4.72828 15.5598 4.72762 15.3074C5.23071 14.9465 5.29195 14.4327 5.2182 13.8845C5.44471 13.7375 5.65609 13.601 5.88524 13.452C5.96821 13.0976 6.05908 12.7107 6.16246 12.2704C6.03406 12.2229 5.8747 12.1644 5.66399 12.087C5.46381 11.8334 5.49739 11.4776 5.51583 11.1258C5.66465 10.9203 5.96426 10.8176 5.93858 10.4761C5.93331 10.4053 6.12098 10.3201 6.21975 10.2407C6.31918 10.1607 6.41861 10.0807 6.55097 9.97344C6.2586 9.6847 6.00508 9.43432 5.66004 9.0942C5.86022 9.04997 6.00969 9.01681 6.15917 8.98364C6.11966 8.93812 6.08015 8.8926 6.04064 8.84707C6.04788 8.78334 6.0604 8.71961 6.0604 8.65588C6.06171 7.64592 6.04854 7.64006 6.48512 6.78488C6.58323 6.59238 6.67213 6.45906 6.5266 6.25681C6.47129 6.17942 6.441 5.99798 6.48907 5.94856C6.81436 5.61624 6.80317 5.26246 6.5694 4.87031C6.77419 4.74025 7.05537 4.81829 7.16467 4.58417C7.24501 4.41248 7.35497 4.2486 7.40173 4.06846C7.45572 3.861 7.45441 3.63989 7.48075 3.38691C7.57162 3.53454 7.65195 3.63404 7.6987 3.74719C7.80011 3.99627 7.95881 4.22584 7.7369 4.52434C7.65393 4.63619 7.60388 4.86381 7.70134 5.08817C7.79879 5.31124 7.5433 5.61754 7.72702 5.84776C7.91732 6.08643 7.78101 6.39663 7.98053 6.63921C8.07075 6.74911 8.01214 6.99233 7.99041 7.17182C7.97329 7.31425 7.83435 7.49244 7.88374 7.57958C7.9542 7.70315 7.99568 7.8085 7.99831 7.94572C8.00029 8.04327 7.94168 8.20585 8.12804 8.19024C8.35719 8.17138 8.211 8.57784 8.56066 8.49264C8.82866 8.42761 9.0993 8.59669 9.26063 8.93617C9.40681 9.24312 9.81639 9.35693 10.1469 9.40635C10.5598 9.46748 10.9977 9.47204 11.3994 9.28539C11.7859 9.1059 12.1698 8.92121 12.4984 8.76578C12.6446 7.92361 12.7295 7.15362 12.6986 6.37192C12.6861 6.05456 12.6558 5.76972 12.4161 5.52844C12.2804 5.39122 12.1823 5.21759 12.071 5.05826C11.8873 4.79552 11.8215 4.50418 11.8847 4.11268C11.9868 4.02554 12.1415 3.89417 12.3035 3.75565C12.0625 3.25359 11.8478 2.76065 11.8649 2.20982C11.8807 1.69476 12.0579 1.24928 12.4345 0.872744C12.7111 0.596354 12.9475 0.280292 13.1865 0C13.8154 0.191197 14.2151 0.604157 14.6016 1.01842C14.5634 1.54518 14.5226 2.07 14.4903 2.59481C14.4791 2.7756 14.4712 2.9603 14.4943 3.13914C14.5127 3.28286 14.5687 3.42593 14.6292 3.5599C14.8492 4.04635 14.9045 4.5549 14.9117 5.08362C14.9183 5.56551 14.9875 6.04676 15.0441 6.5267C15.0856 6.87983 15.4998 7.31294 15.858 7.37343C16.2504 7.43976 16.6468 7.48008 17.1071 7.53991L17.1051 7.54121Z" fill="#353C4C"/>
</g>
<defs>
<filter id="filter0_d_683_698" x="0" y="0" width="125" height="46" filterUnits="userSpaceOnUse" color-interpolation-filters="sRGB">
<feFlood flood-opacity="0" result="BackgroundImageFix"/>
<feColorMatrix in="SourceAlpha" type="matrix" values="0 0 0 0 0 0 0 0 0 0 0 0 0 0 0 0 0 0 127 0" result="hardAlpha"/>
<feOffset dy="4"/>
<feGaussianBlur stdDeviation="2"/>
<feComposite in2="hardAlpha" operator="out"/>
<feColorMatrix type="matrix" values="0 0 0 0 0 0 0 0 0 0 0 0 0 0 0 0 0 0 0.25 0"/>
<feBlend mode="normal" in2="BackgroundImageFix" result="effect1_dropShadow_683_698"/>
<feBlend mode="normal" in="SourceGraphic" in2="effect1_dropShadow_683_698" result="shape"/>
</filter>
</defs>
</svg>
