<svg width="52" height="52" viewBox="0 0 52 52" fill="none" xmlns="http://www.w3.org/2000/svg">
<path d="M22.36 30.68L16.705 25.025C16.2283 24.5483 15.6329 24.3213 14.9188 24.3438C14.2029 24.3646 13.6067 24.6133 13.13 25.09C12.6533 25.5667 12.415 26.1733 12.415 26.91C12.415 27.6467 12.6533 28.2533 13.13 28.73L20.54 36.14C21.0167 36.6167 21.6233 36.855 22.36 36.855C23.0967 36.855 23.7033 36.6167 24.18 36.14L38.935 21.385C39.4117 20.9083 39.6396 20.3121 39.6188 19.5962C39.5963 18.8821 39.3467 18.2867 38.87 17.81C38.3933 17.3333 37.7867 17.095 37.05 17.095C36.3133 17.095 35.7067 17.3333 35.23 17.81L22.36 30.68ZM26 52C22.4033 52 19.0233 51.3171 15.86 49.9512C12.6967 48.5871 9.945 46.735 7.605 44.395C5.265 42.055 3.41293 39.3033 2.0488 36.14C0.682934 32.9767 0 29.5967 0 26C0 22.4033 0.682934 19.0233 2.0488 15.86C3.41293 12.6967 5.265 9.945 7.605 7.605C9.945 5.265 12.6967 3.41207 15.86 2.0462C19.0233 0.682067 22.4033 0 26 0C29.5967 0 32.9767 0.682067 36.14 2.0462C39.3033 3.41207 42.055 5.265 44.395 7.605C46.735 9.945 48.5871 12.6967 49.9512 15.86C51.3171 19.0233 52 22.4033 52 26C52 29.5967 51.3171 32.9767 49.9512 36.14C48.5871 39.3033 46.735 42.055 44.395 44.395C42.055 46.735 39.3033 48.5871 36.14 49.9512C32.9767 51.3171 29.5967 52 26 52ZM26 46.8C31.7633 46.8 36.6713 44.7746 40.7238 40.7238C44.7746 36.6713 46.8 31.7633 46.8 26C46.8 20.2367 44.7746 15.3287 40.7238 11.2762C36.6713 7.2254 31.7633 5.2 26 5.2C20.2367 5.2 15.3296 7.2254 11.2788 11.2762C7.22627 15.3287 5.2 20.2367 5.2 26C5.2 31.7633 7.22627 36.6713 11.2788 40.7238C15.3296 44.7746 20.2367 46.8 26 46.8Z" fill="#00CA82"/>
</svg>
