<svg width="91" height="83" viewBox="0 0 91 83" fill="none" xmlns="http://www.w3.org/2000/svg">
<g filter="url(#filter0_d_683_700)">
<path d="M35.6058 47.845C35.277 47.8464 34.943 47.81 34.6216 47.8596C34.227 47.9209 34.1824 48.0697 34.377 48.4314C34.6145 48.8715 34.5349 49.3204 34.3341 49.7286C34.0751 50.2555 33.8297 50.7693 33.8172 51.377C33.8116 51.6516 33.679 51.6922 33.4591 51.5285C33.3271 51.4303 33.2063 51.3122 33.0983 51.187C32.8384 50.8853 32.6087 50.5629 32.1469 50.5435C32.0282 50.5383 31.8981 50.388 31.806 50.2767C31.6136 50.0437 31.3936 49.9675 31.1026 50.0568C30.9623 50.0996 30.8091 50.1247 30.6635 50.118C30.4339 50.1077 30.3053 50.0053 30.346 49.7302C30.4032 49.3457 29.9315 48.4362 29.579 48.3307C29.369 48.2678 29.0956 48.3254 28.8764 48.4028C28.3313 48.5958 27.8084 48.8557 27.2603 49.0388C26.9866 49.1301 26.677 49.1337 26.384 49.1317C26.2857 49.131 26.131 49.0044 26.1065 48.9085C26.0814 48.81 26.1525 48.6133 26.2367 48.5717C27.0505 48.167 27.0972 47.2623 27.518 46.6051C27.5893 46.4935 27.5556 46.3129 27.5692 46.1645C27.5939 45.893 27.6595 45.6534 27.8843 45.4578C28.0097 45.349 28.078 45.163 28.1467 45.0008C28.2863 44.6681 28.3762 44.6125 28.6962 44.7782C28.9202 44.894 29.1004 44.8685 29.2926 44.726C29.4782 44.5888 29.7091 44.4971 29.8568 44.3289C30.2022 43.9358 30.4628 43.4991 30.3384 42.9261C30.3058 42.7754 30.347 42.5999 30.3845 42.4432C30.5812 41.6237 30.5672 40.8555 29.924 40.2127C29.7332 40.0216 29.5786 39.8156 29.684 39.5031C29.7136 39.4149 29.6348 39.2835 29.5926 39.1775C29.4771 38.8873 29.3554 38.5995 29.2347 38.3113C29.2093 38.2505 29.1934 38.1716 29.1465 38.1361C28.6787 37.7782 28.6099 37.2307 28.4983 36.716C28.3328 35.9495 27.9865 35.3343 27.3224 34.8859C27.0498 34.702 26.8961 34.3496 27.0183 34.0043C27.1603 33.6034 27.0696 33.2497 26.9209 32.8928C26.5232 31.939 25.9161 31.1383 25.1491 30.455C23.7836 29.2393 22.3253 28.1484 20.798 27.1491C19.1764 26.0882 17.5608 25.0184 15.9343 23.9654C15.6326 23.7701 15.2881 23.6429 14.9715 23.4685C14.8503 23.4018 14.676 23.3062 14.6559 23.1992C14.4644 22.1805 13.7071 21.583 13.0154 20.9487C12.6516 20.6154 12.223 20.3511 11.8119 20.0738C11.3915 19.7903 10.943 19.5469 10.5372 19.245C10.4254 19.1617 10.3344 18.898 10.3825 18.7752C10.5748 18.2799 10.4613 17.8476 10.1794 17.4542C9.87728 17.0324 9.43471 16.8113 8.93169 16.7031C8.76598 16.6674 8.60821 16.5974 8.44663 16.5431C8.54532 16.3974 8.6235 16.2302 8.74678 16.1095C9.19784 15.6666 9.255 15.4477 8.99348 14.873C8.85594 14.5708 8.70925 14.27 8.5349 13.9882C8.28174 13.5796 7.94003 13.2719 7.43943 13.2078C7.23071 13.1812 7.09786 13.103 7.11523 12.8609C7.12088 12.7815 7.1174 12.6598 7.06901 12.6246C6.70006 12.3541 6.69995 11.895 6.49693 11.5455C6.3431 11.2806 6.0973 11.0641 5.86852 10.8515C5.61765 10.6183 5.38544 10.3923 5.43989 10.0059C5.44858 9.9435 5.44423 9.85542 5.40748 9.81445C5.07403 9.44386 5.27268 9.08922 5.38912 8.70247C5.48667 8.37998 5.50285 8.02245 5.49406 7.68219C5.48997 7.51813 5.38653 7.27117 5.25857 7.21114C4.78712 6.98927 4.58682 6.5424 4.28227 6.17665C3.98817 5.82419 3.87498 4.75062 4.15836 4.38459C4.21527 4.31111 4.30823 4.24983 4.39699 4.22078C5.32397 3.91322 6.14553 4.58662 6.00707 5.54666C5.97187 5.79177 5.89225 6.03226 5.81319 6.26779C5.74787 6.46211 5.64226 6.64626 5.90678 6.77385C6.14195 6.88749 6.40187 6.82076 6.46367 6.61798C6.63471 6.05631 7.11678 6.00357 7.54195 5.86375C7.84664 5.76393 8.04597 5.59006 8.21234 5.31626C8.32381 5.13329 8.51277 4.94968 8.70739 4.87745C9.12167 4.72379 9.35251 4.43225 9.51158 4.04839C9.61958 3.787 9.71348 3.51795 9.84455 3.26878C10.0409 2.89475 10.3528 2.73736 10.7863 2.75957C11.1781 2.77949 11.5741 2.7239 11.9683 2.70987C12.2642 2.69914 12.5619 2.67753 12.8558 2.70179C13.3392 2.74182 13.7379 2.65835 13.9801 2.17232C14.1315 1.86861 14.4107 1.82022 14.7056 1.92764C14.8738 1.98928 15.043 2.07721 15.1808 2.19071C15.7778 2.68375 16.4752 2.96485 17.1774 3.26965C18.2682 3.74351 19.3073 4.33674 20.3786 4.85769C21.7026 5.50133 23.0228 6.15612 24.3717 6.74374C25.6949 7.32035 27.1177 7.57873 28.5062 7.95246C29.8744 8.32083 31.2807 8.37447 32.6554 8.66004C33.3301 8.8001 34.0319 8.80839 34.7208 8.87711C35.4092 8.94577 36.0962 9.03894 36.7866 9.0726C37.0921 9.08762 37.4144 9.0165 37.7103 8.92371C38.3974 8.70834 38.6741 8.34002 38.7006 7.61071C38.7205 7.0558 38.9058 6.60449 39.2478 6.15411C39.7416 5.50475 40.2584 4.8515 40.3904 3.98635C40.4765 3.42093 40.9805 3.30731 41.4384 3.21806C41.8543 3.13707 42.1952 3.22967 42.4362 3.66209C42.855 4.41497 43.7404 4.49876 44.2983 3.85678C44.52 3.60143 44.7832 3.53659 45.0873 3.51169C45.6011 3.46965 45.7133 3.31948 45.6471 2.80953C45.6085 2.51517 45.5422 2.21509 45.5648 1.92323C45.6068 1.38496 45.9843 1.02121 46.5582 0.886928C47.1387 0.751398 47.5679 0.875797 47.8577 1.35209C48.2845 2.05304 48.5887 2.80834 48.6113 3.6495C48.6198 3.96558 48.5754 4.28663 48.6171 4.59696C48.6808 5.07189 48.8055 5.53774 48.8895 6.00998C48.953 6.3656 49.0301 6.72429 49.0338 7.0826C49.0385 7.49336 49.2089 7.83915 49.5737 8.05528C49.7827 8.179 49.9961 8.32084 50.1541 8.50211C50.4902 8.8891 50.8235 9.28685 51.0985 9.71865C51.3958 10.1858 51.5556 10.7291 51.3955 11.278C51.2998 11.6057 51.3869 11.7562 51.6317 11.9384C52.2561 12.4018 52.8586 12.8955 53.4735 13.3725C53.5772 13.4528 53.7005 13.5058 53.811 13.5784C54.1259 13.7848 54.4699 13.9593 54.7442 14.2103C55.1807 14.6098 55.667 14.8198 56.2521 14.8837C57.0231 14.9674 57.7918 15.0891 58.5538 15.2346C58.8001 15.2816 59.0811 15.401 59.2432 15.5808C59.4952 15.8604 59.7887 15.9964 60.1297 16.0845C60.3218 16.1342 60.5326 16.1605 60.6942 16.2622C60.8604 16.3669 61.0578 16.531 61.0998 16.7045C61.2144 17.1752 61.5114 17.4077 61.9366 17.5276C62.1591 17.5905 62.3861 17.6367 62.6112 17.6903C63.405 17.8798 63.8025 18.6403 63.5494 19.4286C63.4491 19.7407 63.4056 20.075 63.3689 20.4025C63.3555 20.5187 63.4065 20.6791 63.4863 20.7623C63.8107 21.0991 63.9886 21.5107 64.0847 21.9516C64.2743 22.821 64.7729 23.4799 65.3889 24.0864C66.4828 25.1626 67.7015 26.0745 68.9687 26.925C69.7041 27.4183 70.2923 28.01 70.5313 28.9108C70.6048 29.1876 70.8317 29.421 70.9803 29.6793C71.2604 30.166 71.5453 30.6503 71.8078 31.1471C71.9629 31.4403 72.0545 31.7684 72.2177 32.056C72.5337 32.6128 72.6256 33.2113 72.6126 33.8365C72.6024 34.3286 72.6611 34.7994 72.958 35.2141C73.0123 35.2898 73.035 35.3961 73.048 35.4917C73.1511 36.2491 73.2456 37.0079 73.3487 37.7652C73.4456 38.477 73.7128 39.1279 74.1837 39.6588C75.1666 40.766 75.6538 42.097 75.9626 43.5107C76.1641 44.4334 76.4575 45.2946 77.0676 46.0439C77.3201 46.3538 77.4671 46.7734 77.5883 47.1658C77.9187 48.2352 78.3251 49.266 78.8383 50.2618C79.5068 51.5578 79.8747 52.9567 80.1384 54.3899C80.3067 55.3057 80.5311 56.2113 80.7475 57.1171C80.7927 57.3065 80.8905 57.4934 81.0034 57.6544C81.3422 58.1384 81.4389 58.679 81.4691 59.2583C81.545 60.7036 81.6446 62.1471 81.7492 63.5906C81.7919 64.1824 81.5947 64.7068 81.3532 65.2216C81.0759 65.8119 80.8528 66.4093 80.7728 67.0696C80.6509 68.0723 81.0315 68.8238 81.7926 69.4147C82.054 69.6174 82.3351 69.7958 82.6167 69.9706C83.4068 70.4617 84.1537 71.0032 84.8206 71.6618C85.1 71.9376 85.4646 72.1245 85.7842 72.3596C86.2166 72.6777 86.2095 72.7524 85.768 73.0383C85.5052 73.2084 85.2601 73.4072 84.991 73.5664C84.8436 73.6537 84.6606 73.6769 84.4995 73.7444C84.3557 73.8049 84.1792 73.8535 84.0894 73.966C83.9009 74.202 83.5087 74.2505 83.4843 74.6313C83.2264 74.6595 82.9659 74.7226 82.7103 74.7083C82.3182 74.6868 81.9277 74.6202 81.5396 74.5549C81.4397 74.5379 81.3367 74.4697 81.2611 74.397C81.1927 74.3318 81.1803 74.1834 81.1073 74.1493C80.5508 73.8895 80.0671 73.4709 79.414 73.4163C79.0959 73.3898 78.7629 73.3147 78.4772 73.1761C78.0646 72.9761 77.6996 72.8707 77.2604 73.1201C76.9205 73.3131 76.525 73.403 76.167 73.5671C76.0273 73.6311 75.9172 73.7669 75.8034 73.8796C75.5915 74.0888 75.4096 74.3366 75.1742 74.5119C74.7973 74.7921 74.3949 74.6774 74.2046 74.2478C74.0769 73.9598 73.9131 73.7728 73.5776 73.789C73.2642 73.8043 73.1087 73.6057 72.9847 73.3463C72.8865 73.1407 72.7406 72.9588 72.6413 72.7541C72.5642 72.5948 72.5316 72.4138 72.4694 72.2466C72.3786 72.0026 72.3447 71.6896 72.1725 71.5324C71.1821 70.6297 70.2265 69.6842 69.0232 69.0423C68.3144 68.6643 67.7105 68.6738 67.1259 69.2397C67.0067 69.3549 66.8703 69.4514 66.7396 69.5541C66.2925 69.9054 66.2435 69.9063 65.7416 69.5888C65.6997 69.5623 65.6571 69.5111 65.6165 69.5125C65.0488 69.5322 64.9107 69.166 64.8201 68.694C64.7886 68.5293 64.5879 68.3814 64.4371 68.2593C63.9776 67.8863 63.5806 67.4988 63.5144 66.8454C63.4929 66.6336 63.2842 66.3981 63.0984 66.2554C62.5999 65.8729 62.0766 65.5202 61.5471 65.182C60.8496 64.7368 60.126 64.3318 59.4316 63.882C58.5005 63.279 57.4906 62.8879 56.4118 62.6656C55.9673 62.5742 55.8607 62.6541 55.7639 63.1095C55.6808 63.5016 55.5364 63.632 55.2194 63.6C54.8017 63.558 54.4974 63.2723 54.5014 62.9254C54.5104 62.1825 54.3397 61.9389 53.6578 61.7185C53.2807 61.5966 52.8953 61.4948 52.5284 61.3459C52.137 61.1876 52.1112 61.091 52.2288 60.6767C52.3585 60.2185 51.8267 59.5653 51.3362 59.5874C51.1881 59.594 51.0392 59.6468 50.8934 59.6371C50.5792 59.616 50.275 59.5861 50.1397 59.2031C50.0188 58.861 49.7168 58.6812 49.3782 58.6327C48.9724 58.5739 48.5578 58.5529 48.147 58.5585C47.8859 58.5621 47.6683 58.5995 47.5576 58.2722C47.4802 58.0423 47.2508 58.026 47.0203 58.0065C46.58 57.9694 46.129 57.9301 45.7102 57.8018C45.2919 57.6737 45.3302 57.5844 45.4424 57.1383C45.5347 56.7709 45.6337 56.427 45.8098 56.0863C45.8927 55.9252 45.7979 55.6249 45.704 55.4258C45.4741 54.9403 45.3545 54.4303 45.2149 53.9164C45.11 53.5303 44.7725 53.2031 44.5104 52.8724C44.4702 52.822 44.2743 52.8885 44.153 52.9133C43.8809 52.9691 43.6105 53.0789 43.3385 53.0813C42.9591 53.0845 42.8122 52.8285 42.9311 52.4727C43.0925 51.9905 42.9719 51.5578 42.5725 51.2612C41.8679 50.7387 41.166 50.2109 40.4422 49.7164C40.1454 49.5136 39.7997 49.3792 39.4679 49.2328C38.9688 49.0122 38.4456 48.8413 37.9636 48.589C37.2179 48.1987 36.4386 47.956 35.6043 47.8448L35.6058 47.845Z" fill="#353C4C"/>
</g>
<defs>
<filter id="filter0_d_683_700" x="-0.00390625" y="0.835449" width="90.1094" height="81.8749" filterUnits="userSpaceOnUse" color-interpolation-filters="sRGB">
<feFlood flood-opacity="0" result="BackgroundImageFix"/>
<feColorMatrix in="SourceAlpha" type="matrix" values="0 0 0 0 0 0 0 0 0 0 0 0 0 0 0 0 0 0 127 0" result="hardAlpha"/>
<feOffset dy="4"/>
<feGaussianBlur stdDeviation="2"/>
<feComposite in2="hardAlpha" operator="out"/>
<feColorMatrix type="matrix" values="0 0 0 0 0 0 0 0 0 0 0 0 0 0 0 0 0 0 0.25 0"/>
<feBlend mode="normal" in2="BackgroundImageFix" result="effect1_dropShadow_683_700"/>
<feBlend mode="normal" in="SourceGraphic" in2="effect1_dropShadow_683_700" result="shape"/>
</filter>
</defs>
</svg>
