<svg width="108" height="78" viewBox="0 0 108 78" fill="none" xmlns="http://www.w3.org/2000/svg">
<g filter="url(#filter0_d_683_694)">
<path d="M89.0845 5.24209C89.1445 5.31709 89.22 5.40146 89.2845 5.49356C89.3906 5.64411 89.4917 5.79797 89.5911 5.95294C89.9211 6.46415 90.3839 6.79117 90.9872 6.88382C91.3272 6.93621 91.5889 7.10331 91.8388 7.31121C91.945 7.39945 92.0477 7.4932 92.1461 7.59026C92.6822 8.12188 93.3299 8.40809 94.0793 8.50681C95.0315 8.63199 95.9832 8.73622 96.9454 8.71526C97.082 8.71196 97.232 8.71747 97.3537 8.76931C97.6187 8.88126 97.832 8.80019 98.0198 8.63089C98.212 8.45773 98.4148 8.33971 98.6726 8.26857C98.8709 8.21397 99.0403 8.04191 99.2098 7.90625C99.3442 7.79872 99.4537 7.66085 99.5842 7.54779C99.922 7.25441 100.249 7.24834 100.566 7.5682C100.75 7.75294 100.91 7.97464 101.029 8.20625C101.364 8.8614 101.669 9.53089 101.991 10.1921C102.116 10.4474 102.211 10.7232 102.497 10.8693C102.56 10.9013 102.612 11.0243 102.608 11.102C102.59 11.4302 102.742 11.7026 102.869 11.9838C103.106 12.5083 103.332 13.0372 103.425 13.609C103.483 13.9708 103.507 14.3392 103.577 14.6987C103.688 15.2717 103.816 15.8419 103.953 16.4094C104.034 16.7414 104.04 16.759 103.73 16.9173C103.452 17.059 103.181 17.2184 102.891 17.3304C102.571 17.4545 102.234 17.5361 101.903 17.632C101.781 17.6673 101.652 17.68 101.532 17.7203C101.242 17.8184 101.083 18.0412 101.079 18.3368C101.073 18.7245 101.001 18.8133 100.605 18.8635C100.288 18.9037 100.041 19.0697 99.8209 19.2749C99.4992 19.5743 99.1164 19.7403 98.7048 19.876C98.3226 20.0017 97.947 20.1561 97.5854 20.3326C97.1237 20.5581 96.6576 20.7506 96.1354 20.7583C95.9054 20.7616 95.6737 20.7528 95.4443 20.7319C95.1121 20.7015 94.8288 20.7997 94.5788 21.0109C94.3793 21.1797 94.1577 21.2872 93.8888 21.2955C93.5255 21.3059 93.2188 21.467 92.9516 21.6953C92.6888 21.9197 92.3922 22.0058 92.0527 21.976C91.645 21.9401 91.2594 21.9876 90.8672 22.1414C90.6111 22.2423 90.2994 22.2308 90.0139 22.2241C89.6422 22.2153 89.3056 22.2672 89.0056 22.5054C88.7878 22.678 88.51 22.6945 88.2467 22.7111C88.0245 22.7249 87.8534 22.7977 87.6945 22.9532C87.594 23.0513 87.4479 23.107 87.3167 23.1699C87.2451 23.2041 87.1534 23.2002 87.0851 23.2383C86.5718 23.5245 85.9951 23.6111 85.4396 23.765C85.1957 23.8328 84.9613 23.9326 84.7246 24.0241C84.2946 24.1901 83.8741 24.3865 83.4335 24.5188C83.1996 24.5889 82.9296 24.5795 82.6819 24.5541C82.4413 24.5299 82.2152 24.5469 82.0069 24.6501C81.748 24.778 81.4813 24.8183 81.1997 24.799C80.7464 24.7681 80.3069 24.7879 79.8714 24.9633C79.6797 25.0405 79.4369 25.0201 79.2208 25.0036C78.8447 24.9743 78.5225 25.0725 78.207 25.2771C78.0098 25.405 77.7709 25.4817 77.5403 25.5429C77.2398 25.6229 76.9303 25.6747 76.622 25.7199C76.0193 25.8087 75.4798 26.0845 74.9104 26.2708C74.6393 26.3596 74.3532 26.4225 74.0693 26.449C73.7238 26.4815 73.4115 26.5736 73.1404 26.7876C72.856 27.012 72.5382 27.1725 72.1944 27.2828C71.5999 27.4731 70.9977 27.6407 70.4105 27.8492C69.7589 28.0808 69.12 28.3477 68.475 28.5981C68.2922 28.6687 68.1061 28.7304 67.9239 28.8032C67.2373 29.0773 66.5495 29.3481 65.8678 29.6337C65.7001 29.7038 65.5484 29.8174 65.4006 29.926C65.1901 30.0815 64.9662 30.1615 64.699 30.183C64.4768 30.2006 64.2351 30.2602 64.0473 30.3749C63.5307 30.6898 62.9929 30.9446 62.4129 31.1188C61.3996 31.4238 60.6019 32.0393 59.9947 32.8819C59.3625 33.7587 58.7564 34.6554 58.1708 35.5632C57.5458 36.5321 56.8692 37.4602 56.1331 38.3475C55.4776 39.1373 54.8015 39.9104 54.0182 40.5761C53.2237 41.2511 52.5493 42.0386 51.8171 42.7715C51.5171 43.072 51.1916 43.3505 50.8588 43.6152C50.711 43.7321 50.5138 43.7867 50.3427 43.8755C50.2433 43.9274 50.1449 43.9847 50.0549 44.0509C49.8805 44.1799 49.7222 44.3327 49.5388 44.4468C49.2327 44.6376 48.9411 44.84 48.725 45.1334C48.5155 45.4169 48.2289 45.5272 47.8816 45.525C47.3505 45.5222 46.8228 45.5255 46.295 45.6413C45.9167 45.7241 45.5261 45.6248 45.1978 45.4147C44.7634 45.1362 44.3017 44.9481 43.7979 44.8373C43.5868 44.791 43.3734 44.7066 43.1901 44.593C42.5201 44.1794 41.7801 43.9698 41.0224 43.7933C40.3813 43.6439 39.7507 43.4509 39.1096 43.2998C38.1208 43.0665 37.128 42.8586 36.1014 42.8487C35.7592 42.8454 35.4159 42.7588 35.0764 42.6937C34.6592 42.6137 34.2553 42.6033 33.8542 42.7819C33.5803 42.9033 33.2865 42.8972 33.0081 42.7864C32.7037 42.6645 32.3848 42.6518 32.0904 42.7455C31.7604 42.8509 31.4332 42.8735 31.0987 42.8564C30.6993 42.836 30.3199 42.8856 29.9443 43.0323C29.7677 43.1012 29.5593 43.1299 29.3693 43.1183C28.7683 43.0819 28.2288 43.2452 27.7183 43.543C27.3122 43.7801 26.8522 43.8584 26.4005 43.9538C25.8894 44.0619 25.3889 44.197 24.9217 44.4342C24.8295 44.481 24.7361 44.5307 24.655 44.5935C24.4106 44.7838 24.3684 44.9542 24.5367 45.2178C24.6584 45.4086 24.6756 45.6049 24.6506 45.8117C24.6272 46.0025 24.5039 46.0913 24.3128 46.0726C24.2328 46.0649 24.1517 46.0494 24.0756 46.0235C23.6806 45.8884 23.3217 46.0296 22.9706 46.1763C22.849 46.227 22.7217 46.3169 22.6512 46.4244C22.5317 46.607 22.3795 46.6643 22.1806 46.6378C21.8207 46.5899 21.5151 46.7189 21.254 46.9423C20.8362 47.2996 20.3557 47.5103 19.8146 47.5698C18.6224 47.7011 17.823 48.3932 17.1624 49.3224C16.7341 49.9252 16.5713 50.5809 16.6102 51.3038C16.6297 51.6618 16.7619 51.9436 17.0997 52.1145C18.0263 52.5838 18.5596 53.3928 18.9829 54.2912C19.2096 54.7726 19.3435 55.2827 19.424 55.8072C19.429 55.8414 19.4446 55.8789 19.4357 55.9092C19.3074 56.3305 19.4652 56.7458 19.4607 57.1643C19.4568 57.5217 19.3179 57.7897 18.9796 57.9298C18.6718 58.0572 18.3646 58.1956 18.0441 58.2822C17.473 58.436 17.0019 58.7052 16.6919 59.2247C16.5569 59.4513 16.3908 59.6598 16.2358 59.8743C15.783 60.5008 15.583 61.1879 15.7653 61.9506C15.8591 62.3432 15.8114 62.7287 15.7475 63.1103C15.6786 63.5201 15.7203 63.91 15.8453 64.2977C15.9836 64.7272 16.0964 65.1629 16.0302 65.6162C15.9858 65.9217 15.9214 66.2278 15.8303 66.5228C15.7591 66.755 15.7858 66.9591 15.9197 67.1427C16.1425 67.4482 16.3719 67.751 16.6208 68.0366C16.888 68.3433 17.1463 68.651 17.2341 69.0591C17.2602 69.1804 17.2769 69.3105 17.2624 69.4319C17.2213 69.7738 17.0141 69.9624 16.6658 69.9922C16.2425 70.0286 15.8369 69.9332 15.4386 69.8102C15.163 69.7247 14.8925 69.6221 14.6219 69.5207C14.4164 69.4434 14.2186 69.3491 13.9875 69.3773C13.8425 69.3949 13.7347 69.3161 13.6948 69.1832C13.6142 68.9124 13.4231 68.8683 13.1803 68.9063C13.0775 68.9223 12.9759 68.9444 12.8726 68.9548C12.582 68.9841 12.4353 68.8627 12.4115 68.5776C12.4076 68.5319 12.4087 68.4855 12.4076 68.4398C12.3898 67.4945 11.8904 66.8438 10.9498 66.6039C10.1982 66.4126 9.65097 65.9907 9.26653 65.3272C8.93098 64.7482 8.6171 64.1631 8.42767 63.5179C8.27378 62.9934 7.95823 62.5793 7.52213 62.2462C7.33047 62.1 7.1627 61.923 6.98659 61.757C6.74993 61.5331 6.49994 61.3324 6.1705 61.2585C5.89384 61.1962 5.70218 61.0318 5.56218 60.7875C5.37885 60.4677 5.16442 60.1577 5.16386 59.7739C5.16386 59.5004 5.20164 59.2269 5.22164 58.9528C5.23441 58.7813 5.25275 58.6103 5.25552 58.4388C5.25941 58.1553 5.13275 57.9309 4.91442 57.7544C4.88776 57.7329 4.86165 57.7087 4.83165 57.6921C3.96667 57.2195 3.91334 56.5202 4.06778 55.6103C4.10778 55.3748 4.19944 55.1471 4.27944 54.9199C4.60999 53.984 4.85387 53.0344 4.86553 52.0318C4.87053 51.6226 4.9272 51.2112 5.15997 50.8434C5.42163 50.4303 5.37497 50.0101 5.11275 49.6114C4.99275 49.4288 4.85609 49.2573 4.72665 49.082C4.50054 48.7765 4.26999 48.4753 4.19222 48.0888C4.11611 47.7088 4.175 47.3597 4.39277 47.0377C4.42499 46.9902 4.45499 46.9395 4.49388 46.8981C4.82942 46.5375 4.87887 46.1117 4.81331 45.6452C4.74776 45.1775 4.74554 44.7049 4.85165 44.2417C4.91553 43.9615 5.01331 43.6908 5.32608 43.511C5.46385 43.6185 5.60663 43.7294 5.74829 43.8413C5.9444 43.9952 6.02939 43.9847 6.16661 43.7768C6.22994 43.6808 6.27994 43.5766 6.33661 43.4768C6.55716 43.0864 6.90382 42.9055 7.33936 42.8217C7.84601 42.724 8.331 42.8183 8.81377 42.9259C9.08931 42.9871 9.32653 42.9496 9.52819 42.777C9.9154 42.4444 10.3287 42.2007 10.8637 42.2062C11.0476 42.2079 11.1876 42.0821 11.2776 41.9261C11.417 41.6845 11.6026 41.556 11.8976 41.577C12.1581 41.5957 12.3637 41.4656 12.5203 41.2615C12.5692 41.1976 12.6231 41.1347 12.6587 41.0636C12.8748 40.6334 13.2592 40.5634 13.6859 40.5876C14.1814 40.6152 14.6764 40.6538 15.1719 40.6764C15.3492 40.6847 15.5153 40.6957 15.6603 40.8143C15.7108 40.8556 15.7869 40.8915 15.8497 40.8893C16.1691 40.8761 16.4558 40.9599 16.7447 41.0961C16.9008 41.17 17.1063 41.1601 17.2885 41.1567C17.808 41.1468 18.3274 41.1132 18.8468 41.1033C19.2591 41.095 19.6096 41.2483 19.9068 41.5378C20.3074 41.9283 20.629 41.9685 21.1234 41.6845C21.6957 41.3553 22.1301 40.8794 22.4934 40.34C23.1556 39.3573 23.805 38.3658 24.4689 37.3841C24.655 37.1089 24.8745 36.8558 25.0761 36.5911C25.1528 36.4907 25.2406 36.3937 25.2945 36.2817C25.5917 35.6635 26.0505 35.1567 26.4478 34.6075C26.8994 33.9832 27.3477 33.3562 27.7711 32.7132C27.9527 32.4369 28.081 32.1231 28.2127 31.8176C28.606 30.906 29.2071 30.1736 30.0449 29.6244C30.4004 29.3911 30.7154 29.0982 31.0626 28.8512C31.2854 28.6929 31.5215 28.5407 31.7732 28.4359C32.1715 28.2705 32.4726 28.0306 32.7137 27.6644C33.2954 26.7815 33.8965 25.9091 34.5253 25.0587C35.3581 23.9321 36.3281 22.9322 37.5191 22.1712C38.278 21.6865 38.8597 21.0561 39.2974 20.2791C39.5191 19.8853 39.8074 19.5423 40.1813 19.2754C40.4329 19.0956 40.7096 18.9892 41.0185 18.9848C41.4146 18.9793 41.729 18.8061 42.004 18.5425C42.1707 18.3831 42.3401 18.2254 42.4923 18.0534C42.7329 17.7809 43.0495 17.6563 43.3901 17.6817C44.0384 17.7302 44.6506 17.5581 45.275 17.4511C45.3434 17.4396 45.415 17.4285 45.4762 17.3993C46.0756 17.1103 46.7017 16.8738 47.2578 16.4982C47.4172 16.3907 47.585 16.2765 47.7666 16.223C48.1861 16.1 48.5483 15.9021 48.8716 15.6059C49.3916 15.1294 49.9977 14.7677 50.5877 14.3833C51.0588 14.0761 51.4916 13.7105 51.9426 13.3724C52.4587 12.9853 52.9632 12.5805 53.4971 12.2182C54.1665 11.7638 54.8304 11.3072 55.417 10.7485C55.4587 10.7088 55.5031 10.6702 55.5526 10.6416C56.4642 10.1072 57.2603 9.38751 58.283 9.0274C58.8136 8.84045 59.2875 8.51177 59.843 8.36728C60.5469 8.18419 61.2407 7.95919 61.9474 7.78769C62.9013 7.55607 63.8718 7.55662 64.8423 7.67077C65.3006 7.72482 65.7551 7.83015 66.2145 7.85221C66.6734 7.87427 67.1373 7.83897 67.5956 7.79761C68.4 7.72482 69.2022 7.62335 70.0055 7.54173C70.7411 7.46673 71.4777 7.40827 72.2127 7.32721C72.356 7.31121 72.5105 7.2511 72.6277 7.16728C73.1443 6.79614 73.7432 6.74375 74.3443 6.72169C75.3371 6.68529 76.3092 6.53198 77.1987 6.0908C78.1592 5.61488 79.1314 5.14723 79.9869 4.48878C80.608 4.0112 81.2313 3.53418 81.828 3.02737C82.3585 2.57627 82.9274 2.19079 83.5379 1.85825C84.2479 1.47112 84.9468 1.06689 85.539 0.504937C85.6796 0.37148 85.8473 0.261186 86.0151 0.160266C86.5329 -0.150764 87.0912 0.000890181 87.3751 0.52865C87.5767 0.903651 87.6195 1.31946 87.6162 1.73196C87.6095 2.52333 87.7778 3.2816 88.0223 4.02554C88.1217 4.3283 88.2545 4.62278 88.3962 4.909C88.5706 5.26249 88.6573 5.29668 89.0806 5.24595L89.0845 5.24209Z" fill="#353C4C"/>
</g>
<defs>
<filter id="filter0_d_683_694" x="0" y="0" width="108" height="78" filterUnits="userSpaceOnUse" color-interpolation-filters="sRGB">
<feFlood flood-opacity="0" result="BackgroundImageFix"/>
<feColorMatrix in="SourceAlpha" type="matrix" values="0 0 0 0 0 0 0 0 0 0 0 0 0 0 0 0 0 0 127 0" result="hardAlpha"/>
<feOffset dy="4"/>
<feGaussianBlur stdDeviation="2"/>
<feComposite in2="hardAlpha" operator="out"/>
<feColorMatrix type="matrix" values="0 0 0 0 0 0 0 0 0 0 0 0 0 0 0 0 0 0 0.25 0"/>
<feBlend mode="normal" in2="BackgroundImageFix" result="effect1_dropShadow_683_694"/>
<feBlend mode="normal" in="SourceGraphic" in2="effect1_dropShadow_683_694" result="shape"/>
</filter>
</defs>
</svg>
