<svg width="97" height="71" viewBox="0 0 97 71" fill="none" xmlns="http://www.w3.org/2000/svg">
<g filter="url(#filter0_d_683_695)">
<path d="M52.4698 11.6219C52.5984 11.463 52.7042 11.3566 52.7804 11.2317C52.854 11.1102 52.8975 10.9698 52.9534 10.8374C53.1196 10.4451 53.3465 10.3197 53.7608 10.4262C54.0674 10.5051 54.368 10.61 54.6682 10.7145C54.9846 10.8244 55.2299 10.772 55.4479 10.4876C55.6744 10.1918 56.0388 10.2448 56.1738 10.5951C56.3834 11.1382 56.4165 11.6879 56.0477 12.254C56.242 12.4974 56.4269 12.7722 56.6549 13.0041C57.0158 13.3719 57.3876 13.7326 57.7871 14.0559C58.2188 14.4052 58.7498 14.5127 59.2922 14.5581C59.7723 14.5986 60.2549 14.6271 60.7306 14.7006C60.9254 14.7305 61.1256 14.836 61.2853 14.9579C61.5197 15.1373 61.761 15.1563 61.9929 15.0294C62.477 14.7645 62.9853 14.7995 63.5015 14.8375C63.8505 14.863 64.2016 14.8874 64.5512 14.8814C64.8988 14.8754 65.188 14.714 65.3912 14.4277C65.9104 13.6957 66.344 12.9181 66.5977 12.0472C66.7228 11.6169 66.8232 11.5645 67.2568 11.5735C67.7166 11.5825 68.1779 11.5785 68.6373 11.5585C68.9621 11.544 69.2588 11.4355 69.4902 11.1842C69.6049 11.0598 69.6514 10.9448 69.5757 10.769C69.3997 10.3577 69.777 9.8735 70.2156 9.92896C70.5285 9.96844 70.5414 9.96094 70.6462 9.67112C70.7837 9.29135 70.9612 9.16893 71.3656 9.20441C71.7884 9.24188 72.182 9.36631 72.5123 9.65163C72.5938 9.72209 72.6814 9.78655 72.7986 9.8795C72.8544 9.78106 72.8984 9.7121 72.9345 9.63914C73.0225 9.46175 73.0903 9.27186 73.1961 9.10647C73.4394 8.7252 73.7558 8.59328 74.186 8.7172C74.316 8.75468 74.4332 8.8861 74.5232 9.00103C74.6142 9.11646 74.6636 9.26537 74.7383 9.41228C74.9613 9.15843 75.1704 8.94756 75.3469 8.71221C75.5363 8.45986 75.7707 8.32194 76.0753 8.24949C76.7457 8.08909 77.2273 7.42499 77.1561 6.77939C77.1284 6.52804 77.0671 6.28019 77.0122 6.03284C76.941 5.70904 76.8515 5.38923 76.7873 5.06443C76.5771 4.00408 77.0859 3.10013 78.0817 2.69987C78.4926 2.53447 78.9099 2.49 79.3391 2.52898C79.6941 2.56146 79.9903 2.71636 80.1846 3.03367C80.2766 3.18458 80.3646 3.33798 80.458 3.48789C80.6464 3.79021 80.8912 3.97359 81.2734 3.92363C81.5567 3.88665 81.8435 3.88715 82.0754 4.1265C82.2489 3.78621 82.4101 3.4664 82.5753 3.1491C82.7997 2.71786 83.1206 2.36857 83.5236 2.11123C83.9993 1.80742 84.5318 1.8299 85.0524 1.95283C85.3931 2.03328 85.6141 2.48251 85.4683 2.80531C85.3723 3.01768 85.1973 3.19957 85.0366 3.37446C84.9209 3.50038 84.7696 3.59333 84.6183 3.71275C84.688 3.78971 84.7301 3.85667 84.7899 3.89814C85.2408 4.20895 85.577 4.59971 85.6848 5.15837C85.7298 5.39073 85.8871 5.51266 86.1061 5.49817C86.832 5.4492 87.3887 5.82896 87.9286 6.22922C88.4434 6.61099 88.9032 7.05072 89.1732 7.66185C89.2206 7.76878 89.3823 7.87322 89.503 7.88971C90.0122 7.95867 90.5057 7.91669 90.9472 7.59589C91.1228 7.46797 91.323 7.36653 91.5243 7.28408C91.7799 7.17914 92.0103 7.2506 92.2239 7.43099C92.6872 7.82175 92.7465 8.37741 92.8677 8.90259C92.4662 9.23938 91.8308 9.25887 91.3947 8.93557C91.3121 9.058 91.2276 9.17942 91.1475 9.30385C90.8118 9.82253 90.4765 10.3417 90.1418 10.8609C89.8481 11.3166 89.4243 11.5785 88.9002 11.6484C88.5432 11.6959 88.301 11.8743 88.0943 12.1561C87.5835 12.8527 87.0851 13.5598 86.8705 14.4132C86.6722 15.2017 86.5931 16.0058 86.783 16.8118C86.8503 17.0971 86.9907 17.3489 87.2236 17.5343C87.2908 17.5883 87.3818 17.6667 87.4495 17.6558C87.76 17.6048 87.9914 17.7652 88.2342 17.9096C88.5358 18.089 88.8696 18.132 89.2127 18.1564C89.4174 18.1709 89.6261 18.2094 89.8209 18.2739C90.0914 18.3633 90.1724 18.5477 90.0938 18.821C90.034 19.0294 89.9316 19.2068 89.7264 19.3067C89.3996 19.4651 89.187 19.716 89.1198 20.0833C89.0525 20.4515 88.9695 20.8173 88.9185 21.1876C88.8528 21.6693 88.8127 22.155 88.7598 22.6387C88.7336 22.8786 88.8117 23.0934 88.9882 23.2353C89.457 23.6126 89.635 24.0933 89.6221 24.69C89.6152 25.0233 89.7477 25.3431 89.9628 25.6079C90.3381 26.0701 90.438 26.6148 90.4563 27.1909C90.4716 27.6662 90.48 28.1439 90.5403 28.6146C90.5715 28.8584 90.6649 29.1193 90.8053 29.3181C91.1327 29.7819 91.4184 30.2641 91.5974 30.8027C91.7586 31.2879 92.1196 31.6177 92.4528 31.965C92.75 32.2753 92.9226 32.5931 92.8983 33.0514C92.8731 33.5226 92.9438 34.0003 92.9873 34.4735C93.0338 34.9817 92.9517 35.4639 92.752 35.9291C92.5799 36.3304 92.4766 36.7306 92.5626 37.1843C92.6462 37.6271 92.6753 38.0848 92.6847 38.537C92.6951 39.0482 92.4573 39.4045 91.9727 39.6214C91.1144 40.0051 90.6333 40.6682 90.6521 41.6461C90.6694 42.5526 90.3603 43.3831 90.076 44.2196C89.9663 44.5424 89.7072 44.7178 89.4105 44.8062C89.1163 44.8936 88.9507 45.0975 88.8132 45.3389C88.523 45.8471 88.2609 46.3727 87.9548 46.8709C87.6962 47.2922 87.4025 47.6924 87.1049 48.0872C86.9595 48.2801 86.7326 48.35 86.4923 48.366C86.2416 48.383 85.9909 48.4065 85.7402 48.4275C85.3699 48.459 85.221 48.6084 85.2082 48.9891C85.1978 49.2875 85.2443 49.5933 85.1938 49.8831C85.1503 50.1339 85.044 50.3948 84.8967 50.6012C84.6594 50.934 84.2015 50.9165 83.9805 50.5712C83.8682 50.3958 83.8059 50.1629 83.7936 49.9516C83.7471 49.162 83.4356 48.8372 82.645 48.8342C82.3038 48.8332 81.9879 48.7978 81.7505 48.5134C81.7238 48.4815 81.6793 48.462 81.6403 48.443C80.9045 48.0827 79.8162 48.4215 79.435 49.1446C79.2397 49.5153 79.082 49.9066 78.8956 50.2829C78.8081 50.4602 78.7082 50.6356 78.588 50.791C78.2073 51.2822 77.7302 51.3717 77.1902 51.0634C77.0864 51.0039 76.987 50.931 76.8985 50.85C76.5025 50.4862 76.0777 50.4128 75.6085 50.7001C75.297 50.891 75.0265 50.853 74.7422 50.6062C74.0282 49.986 73.3068 50.4797 73.1041 51.1104C72.9884 51.4701 72.9726 51.8714 72.9627 52.2552C72.9518 52.6859 72.8005 53.0362 72.488 53.3075C72.3526 53.4254 72.1711 53.4924 72.005 53.5709C71.7889 53.6728 71.554 53.7403 71.3513 53.8627C70.9464 54.107 70.3936 54.112 70.0371 53.7962C69.7681 53.5584 69.5436 53.2695 69.2815 52.9847C69.1812 53.0492 69.0665 53.1231 68.9369 53.2061C68.7817 53.0382 68.6373 52.8773 68.4875 52.7209C68.1478 52.3661 67.7107 52.3711 67.2899 52.4575C67.1253 52.4915 66.9685 52.6809 66.8568 52.8353C66.6892 53.0662 66.5675 53.3305 66.4207 53.5769C66.2951 53.7877 66.1527 53.9676 65.8887 54.0366C65.7527 54.072 65.6207 54.1895 65.5252 54.3029C65.2488 54.6317 64.9769 54.9675 64.7331 55.3208C64.6105 55.4987 64.5477 55.72 64.4661 55.9249C64.3272 56.2727 64.1225 56.4356 63.8431 56.4101C63.5613 56.3846 63.2918 56.1493 63.2715 55.8105C63.2176 54.893 62.4419 54.5173 61.7205 54.4213C61.3279 54.3689 60.9832 54.223 60.6638 53.9976C60.5921 53.9471 60.511 53.9106 60.428 53.8642C60.5447 53.6958 60.6025 53.6048 60.6673 53.5194C60.8389 53.293 60.8453 53.0587 60.7301 52.8023C60.4759 52.2357 60.0561 51.8264 59.4831 51.643C58.9125 51.4606 58.3147 51.3567 57.7229 51.2533C57.4044 51.1973 57.1191 51.3432 56.8897 51.5701C56.7097 51.748 56.5574 51.9558 56.3691 52.1232C55.9666 52.481 55.5072 52.6609 54.9811 52.4251C54.8175 52.3521 54.6687 52.2232 54.5441 52.0898C54.3873 51.9214 54.2553 51.7275 54.1248 51.5366C53.6199 50.7966 52.5747 50.6506 51.9082 50.7801C51.5601 50.848 51.3405 51.0974 51.1319 51.3587C50.7749 51.8059 50.3848 52.2317 50.0772 52.7109C49.9447 52.9173 49.9393 53.2371 49.9511 53.5024C49.9793 54.1415 49.9477 54.7581 49.6619 55.3483C49.515 55.6511 49.3296 55.8125 48.98 55.81C48.7976 55.8085 48.6141 55.9094 48.361 55.9849C48.2794 55.8745 48.1622 55.7225 48.053 55.5656C47.7939 55.1949 47.5486 54.8141 47.2782 54.4518C46.9488 54.0111 46.6655 53.9556 46.2042 54.2509C45.9649 54.4039 45.7538 54.6022 45.5352 54.7866C45.4344 54.8716 45.3468 54.972 45.2534 55.0659C44.8722 55.4487 44.4405 55.6591 43.8744 55.6361C43.4427 55.6186 42.9982 55.6876 42.5745 55.7845C41.9248 55.9329 41.5055 56.3557 41.3398 57.0213C41.3028 57.1707 41.2538 57.3216 41.1836 57.4575C41.0827 57.6519 40.9003 57.7353 40.6887 57.7148C40.4998 57.6963 40.3875 57.5924 40.3277 57.389C40.1952 56.9388 40.0825 56.8803 39.6068 56.9263C39.3616 56.9503 39.1084 56.9598 38.9324 56.7544C38.6945 56.4771 38.3806 56.3532 38.0483 56.2802C37.4713 56.1543 36.8888 56.0453 36.2935 56.1328C35.9192 56.1878 35.7259 56.4321 35.6389 56.7859C35.5944 56.9678 35.5513 57.1522 35.4866 57.3271C35.4075 57.5414 35.2527 57.6689 34.956 57.6654C34.915 57.5389 34.8413 57.4015 34.8285 57.2586C34.7612 56.5011 34.3281 56.4551 33.7333 56.567C33.5889 56.594 33.4445 56.68 33.3253 56.7724C32.9402 57.0727 32.512 57.2466 32.0259 57.2696C31.5389 57.2931 31.1429 57.4865 30.8259 57.8672C30.6721 58.0521 30.505 58.2585 30.2983 58.3599C29.7307 58.6393 29.1384 58.6383 28.5564 58.3719C28.4372 58.3175 28.3225 58.253 28.2058 58.1925C27.8825 58.0256 27.6219 58.0441 27.3737 58.3664C27.2713 58.4994 27.0295 58.5818 26.8506 58.5833C26.2602 58.5878 25.6683 58.5598 25.0794 58.5128C24.7917 58.4899 24.5336 58.3539 24.3407 58.1186C24.2577 58.0176 24.1657 57.9242 24.0549 57.8023C23.9585 57.9107 23.8735 58.0071 23.787 58.1026C23.6174 58.2905 23.4582 58.4899 23.2747 58.6628C22.7961 59.113 22.3545 59.028 21.8804 58.6892C21.8364 58.6578 21.8003 58.6138 21.7612 58.5748C21.1293 57.9447 20.6512 57.8967 19.9144 58.4079C19.822 58.3609 19.7177 58.3085 19.6 58.2485C19.375 58.5053 19.0897 58.4384 18.8103 58.3709C18.6833 58.3404 18.5616 58.284 18.44 58.234C18.2037 58.1371 18.0252 58.1231 17.7977 58.3399C17.6212 58.5083 17.3048 58.5588 17.0412 58.5953C16.5324 58.6663 16.0162 58.6847 15.5045 58.7352C15.191 58.7662 14.9126 58.8771 14.6906 59.121C14.4399 59.3968 14.1175 59.3568 13.8006 59.2864C13.32 59.1794 12.8424 59.0585 12.3623 58.9511C12.0606 58.8836 11.8159 58.9356 11.6295 59.2344C11.3585 59.6691 11.1766 59.6991 10.7311 59.4618C10.693 59.4418 10.653 59.4258 10.608 59.4053C10.2856 59.6916 9.94392 59.9515 9.66208 60.2658C9.53995 60.4022 9.51128 60.649 9.49298 60.8504C9.46925 61.1133 9.51128 61.3816 9.50139 61.6469C9.48606 62.0407 9.33031 62.2181 8.94711 62.1766C8.39234 62.1166 7.96267 62.3245 7.5854 62.6933C7.14089 63.1275 6.55794 63.0896 6.15892 62.6498C5.90774 62.373 5.65261 62.0967 5.4311 61.7963C5.22194 61.512 5.24963 61.3991 5.4929 61.1278C5.6086 60.9983 5.7248 60.8699 5.84841 60.7325C5.80193 60.6755 5.78215 60.6326 5.74853 60.6126C5.2882 60.3417 5.14135 59.9055 5.21947 59.4168C5.35347 58.5783 5.14629 57.8193 4.8165 57.0667C4.57323 56.5111 4.36507 55.9399 4.14603 55.3743C3.90523 54.7521 3.9611 54.1465 4.32205 53.5963C4.57323 53.2141 4.68003 52.8163 4.61921 52.3716C4.52725 51.6995 4.68349 51.0989 5.09092 50.5612C5.1369 50.5002 5.17448 50.4298 5.20068 50.3578C5.306 50.069 5.49537 49.9271 5.80737 49.9855C6.00564 50.0225 6.12629 49.9176 6.18859 49.7482C6.26473 49.5418 6.33742 49.3314 6.37846 49.1161C6.43927 48.7983 6.55497 48.5254 6.83236 48.3415C6.91444 48.2871 6.98861 48.2196 7.07118 48.1651C7.37922 47.9618 7.53101 47.6834 7.54189 47.3047C7.54782 47.1003 7.60567 46.8909 7.67638 46.6975C7.75055 46.4952 7.91817 46.4062 8.14215 46.3952C8.68357 46.3682 9.28383 45.8446 9.40645 45.3139C9.46035 45.081 9.40645 44.9346 9.17653 44.8297C8.88778 44.6978 8.78197 44.4684 8.7518 44.1731C8.73648 44.0197 8.70088 43.8688 8.67912 43.7159C8.63314 43.3886 8.58814 43.0608 8.5471 42.7325C8.5209 42.5241 8.51101 42.3132 8.47936 42.1058C8.42003 41.7121 8.20297 41.4343 7.8346 41.2913C7.59974 41.1999 7.35746 41.1294 7.11963 41.046C7.01679 41.01 6.91197 40.976 6.81654 40.9241C6.38983 40.6912 6.35917 40.4364 6.72012 40.0981C6.90455 39.9252 7.10084 39.7643 7.29071 39.5974C7.44696 39.46 7.51124 39.3031 7.40641 39.0992C7.17056 38.6405 7.14337 38.1458 7.16957 37.6421C7.19034 37.2443 7.31741 37.1179 7.72039 37.1054C7.78615 37.1034 7.85191 37.1054 7.91767 37.1049C8.34092 37.1009 8.42646 37.0489 8.57133 36.6452C8.70879 36.2619 8.94859 36.05 9.36739 36.0171C9.85937 35.9786 10.0819 35.7682 10.0992 35.252C10.1145 34.7888 10.2816 34.4275 10.6233 34.1587C11.1904 33.712 11.1622 33.1108 11.093 32.4947C11.0164 31.8096 10.736 31.2255 10.2248 30.7558C9.90881 30.4654 9.62648 30.1346 9.29817 29.8608C9.10187 29.6974 8.85613 29.5735 8.61286 29.4945C8.28109 29.3871 7.93003 29.3421 7.58837 29.2647C7.33818 29.2077 7.22347 29.0878 7.21061 28.8319C7.18787 28.3787 7.17402 27.924 7.17402 27.4703C7.17402 27.159 7.23484 27.107 7.54684 27.0235C7.90828 26.9271 8.23214 26.9221 8.58023 27.147C8.82399 27.3044 9.15774 27.3453 9.45787 27.3778C9.59978 27.3933 9.7941 27.3049 9.89991 27.1984C10.2317 26.8651 10.5392 26.5059 10.8423 26.1456C11.0035 25.9542 10.9368 25.7268 10.8774 25.5125C10.8458 25.3985 10.8043 25.2871 10.7528 25.1307C10.8878 25.1017 10.9867 25.0712 11.0881 25.0602C11.2077 25.0477 11.3303 25.0637 11.4495 25.0472C11.7808 25.0018 11.9074 24.8554 11.9187 24.5221C11.9222 24.4111 11.9143 24.2997 11.9247 24.1898C11.9578 23.835 12.0488 23.5177 12.4191 23.3598C12.5477 23.3053 12.6663 23.2149 12.7731 23.1224C12.9111 23.003 12.9062 22.9835 12.8265 22.7252C12.4438 23.0969 12.077 22.9565 11.6997 22.7137C11.5182 22.5967 11.3032 22.5343 11.1108 22.4323C11.0327 22.3909 10.9343 22.3204 10.915 22.245C10.8463 21.9786 10.7795 21.7058 10.7652 21.4324C10.7513 21.1671 10.8483 20.9338 11.14 20.8363C11.3076 20.7803 11.4218 20.6654 11.406 20.4645C11.3496 19.7575 11.7427 19.2923 12.2599 18.9195C12.515 18.7356 12.8191 18.6212 13.1024 18.4773C13.1969 18.4293 13.2948 18.3888 13.4031 18.3064C13.009 18.135 12.6718 17.9236 12.5927 17.4719C12.0157 17.7502 11.7758 17.6048 11.7051 16.9902C11.6498 16.512 11.6389 16.0412 11.8772 15.5985C11.9766 15.4141 12.1056 15.2717 12.3113 15.2212C12.5373 15.1658 12.6589 15.0184 12.7361 14.803C12.7949 14.6386 12.874 14.4747 12.9749 14.3328C13.1687 14.0599 13.3482 14.017 13.6577 14.1364C13.7803 14.1839 13.8985 14.2438 14.0211 14.2918C14.3781 14.4307 14.4933 14.4012 14.7084 14.0694C14.9724 13.6622 15.2162 13.2414 15.4753 12.8312C15.6874 12.4954 15.9079 12.1651 16.128 11.8343C16.3673 11.4745 16.7075 11.2257 17.0818 11.0408C17.2904 10.9378 17.5396 10.8894 17.7735 10.8764C18.1364 10.8569 18.3535 11.0578 18.3792 11.4305C18.398 11.7039 18.4019 11.9927 18.3352 12.254C18.1552 12.9581 18.305 13.0466 18.797 13.4608C18.9888 13.6222 19.2178 13.7421 19.4383 13.8651C20.6289 14.5292 21.5323 15.4896 22.2497 16.6414C22.3432 16.7913 22.4381 16.9412 22.5217 17.0966C22.6393 17.3145 22.7041 17.5433 22.6586 17.7987C22.5667 18.3154 22.7995 18.7291 23.3197 18.838C23.8067 18.94 24.1029 19.2228 24.2804 19.652C24.625 20.485 25.1828 20.567 26.013 20.456C26.2206 20.4286 26.3729 20.2891 26.4214 20.0713C26.4599 19.8989 26.496 19.7235 26.5084 19.5476C26.5252 19.3082 26.6612 19.2183 26.8738 19.2093C26.9722 19.2048 27.0706 19.2173 27.1695 19.2178C27.4637 19.2193 27.7593 19.2378 28.0511 19.2138C28.3759 19.1868 28.6454 19.2318 28.8822 19.4956C28.994 19.6196 29.2002 19.7115 29.3683 19.7195C30.2662 19.7605 31.1681 19.775 32.0329 19.4721C32.2959 19.3802 32.5357 19.2193 32.8274 19.0689C32.7023 18.9265 32.6079 18.8365 32.5347 18.7316C32.4541 18.6162 32.3745 18.4937 32.3285 18.3623C32.284 18.2354 32.334 18.114 32.4779 18.0755C33.6383 17.7622 34.7088 18.2704 34.8487 19.5841C34.8799 19.8754 34.7429 20.0968 34.5264 20.2742C34.4329 20.3511 34.3325 20.4196 34.2391 20.4965C33.7194 20.9243 33.7179 21.7193 34.2648 22.125C34.5219 22.3159 34.5862 22.5193 34.5783 22.8276C34.5718 23.0784 34.6683 23.3403 34.7578 23.5831C34.8295 23.7775 34.9615 23.9489 35.0613 24.1333C35.138 24.2747 35.1058 24.3941 34.959 24.4641C34.5278 24.6685 34.3637 25.0557 34.2519 25.4865C34.1417 25.9107 33.9815 26.3115 33.5923 26.5598C32.9555 26.9656 32.7409 27.5242 32.9253 28.2648C33.002 28.5726 32.8902 28.8719 32.7735 29.1662C32.6865 29.3866 32.6381 29.629 32.6104 29.8658C32.5792 30.1306 32.6979 30.3245 32.9466 30.4545C33.2546 30.6154 33.3896 30.8867 33.311 31.232C33.177 31.8196 33.3184 32.2983 33.7669 32.6966C33.8974 32.8125 34.0037 32.9584 34.1105 33.0983C34.3548 33.4191 34.6084 33.698 35.0544 33.7424C35.3105 33.7679 35.5153 33.9663 35.631 34.2007C35.9736 34.8932 36.5556 35.1401 37.2765 35.1251C37.7783 35.1146 38.2802 35.0836 38.7811 35.0521C39.0441 35.0357 39.2389 34.8792 39.3556 34.6569C39.5549 34.2761 39.8787 34.1832 40.2644 34.1922C40.8014 34.2047 41.3388 34.2301 41.8753 34.2197C42.3673 34.2102 42.8583 34.1592 43.3498 34.1287C43.4699 34.1212 43.592 34.1082 43.7102 34.1222C43.9738 34.1532 44.0969 34.2861 44.1236 34.5534C44.1354 34.6744 44.1315 34.7968 44.1369 34.9187C44.1542 35.3205 44.3125 35.4949 44.7105 35.5528C44.8514 35.5733 44.9918 35.5998 45.1327 35.6158C45.3607 35.6418 45.4972 35.7752 45.5347 35.9921C45.5802 36.2524 45.6227 36.5173 45.6257 36.7806C45.6311 37.2668 45.7721 37.6626 46.1983 37.9369C46.7313 38.2802 46.9553 38.8713 47.2782 39.3805C47.4789 39.6968 47.6396 40.0391 47.8463 40.3509C48.0836 40.7092 48.3748 40.7792 48.7585 40.5878C48.9029 40.5158 49.0359 40.4084 49.1526 40.2944C49.4681 39.9866 49.7726 39.6673 50.0802 39.3515C50.2987 39.1272 50.5549 39.0007 50.8738 39.0202C51.0048 39.0282 51.1398 39.0412 51.2678 39.0212C51.8058 38.9393 52.2028 39.1901 52.4639 39.6149C52.8748 40.2845 53.4874 40.3869 54.1742 40.3359C54.5238 40.3099 54.8709 40.2595 55.22 40.224C55.6516 40.18 55.9542 39.9507 56.1347 39.5614C56.3344 39.1312 56.509 38.6884 56.7181 38.2627C56.8141 38.0673 56.9401 37.8699 57.0998 37.728C57.2556 37.5901 57.4618 37.4807 57.6635 37.4292C58.9748 37.0954 60.1372 36.5312 60.9259 35.362C61.2003 34.9547 61.5138 34.6224 61.9746 34.394C62.4181 34.1742 62.6792 33.7409 62.7291 33.2168C62.7815 32.6636 62.7138 32.1314 62.4325 31.6442C62.2218 31.2789 61.9449 31.0286 61.4802 31.0651C61.3012 31.0791 61.1044 31.0481 60.9363 30.9831C60.6371 30.8667 60.47 30.6208 60.4453 30.294C60.4265 30.0517 60.4206 29.8078 60.4191 29.5645C60.4156 29.0713 60.2762 28.6191 59.977 28.2343C59.5642 27.7036 59.1291 27.1909 58.6989 26.6743C58.4304 26.3514 58.2025 26.0187 58.0522 25.6099C57.8222 24.9838 57.4094 24.4541 56.9659 23.9629C56.7384 23.7111 56.4111 23.6901 56.0788 23.7081C55.6655 23.7305 55.2501 23.7251 54.8363 23.7151C54.5055 23.7071 54.2054 23.773 53.9522 23.9994C53.8375 24.1018 53.7223 24.2043 53.6095 24.3092C53.3188 24.58 52.992 24.565 52.6607 24.4171C52.0936 24.1643 51.9611 24.0379 51.3761 24.7394C50.9949 25.1962 50.6567 25.6899 50.1509 26.0271C49.7024 26.3265 49.2411 26.4114 48.7635 26.1246C48.63 26.0446 48.5153 25.9127 48.4272 25.7808C48.271 25.5474 48.1078 25.3681 47.7914 25.41C47.5323 25.4445 47.3528 25.3011 47.2356 25.0762C46.9345 24.4981 46.6304 23.9219 46.3377 23.3398C46.1498 22.9665 45.8917 22.6812 45.4779 22.5773C45.1125 22.4853 45.0037 22.2355 45.0096 21.8832C45.0161 21.4984 44.8989 21.1431 44.6991 20.8138C44.4642 20.4271 44.2363 20.0358 44.0079 19.645C43.6949 19.1094 43.2499 18.6921 42.7653 18.3318C41.9099 17.6962 41.3428 16.8592 41.017 15.8603C40.9042 15.5141 40.926 15.1218 40.8938 14.75C40.8874 14.6751 40.921 14.5971 40.923 14.5202C40.9552 13.4053 40.8815 13.3624 39.764 12.7303C39.4871 12.5739 39.1831 12.4649 38.9101 12.3025C38.6861 12.1691 38.474 12.0052 38.2851 11.8248C38.071 11.6204 37.9672 11.3521 37.9722 11.0463C37.9766 10.7695 37.9642 10.4916 37.9771 10.2153C37.9914 9.90748 38.1215 9.74008 38.4206 9.68461C38.8404 9.60716 39.2651 9.56069 39.6879 9.50123C39.8066 9.48424 39.9292 9.48074 40.0434 9.44676C40.2407 9.38879 40.3144 9.24488 40.2906 9.03751C40.1987 8.2355 40.122 7.43199 40.0162 6.63197C39.9865 6.40761 39.9074 6.17625 39.7977 5.97887C39.4011 5.26681 39.4995 4.59871 39.9287 3.94861C40.0928 3.69976 40.2738 3.46241 40.4335 3.21106C40.5853 2.97171 40.5739 2.88426 40.3584 2.69737C40.2184 2.57545 40.0508 2.4865 39.901 2.37557C39.6078 2.1577 39.5049 1.85289 39.6073 1.48711C39.7433 1.52259 39.8802 1.55807 40.0172 1.59355C40.0241 1.57906 40.031 1.56407 40.038 1.54957C39.9519 1.48112 39.8659 1.41266 39.769 1.3357C39.811 1.27974 39.8298 1.22777 39.8624 1.21628C39.9514 1.1838 40.0592 1.12883 40.1373 1.15332C40.4029 1.23726 40.7524 1.02689 40.9418 1.38817C40.9917 1.48361 41.0723 1.56656 41.1515 1.64102C41.2785 1.76094 41.4269 1.82241 41.6034 1.74845C41.6236 1.73996 41.6474 1.74046 41.6667 1.73046C42.1043 1.5071 42.5399 1.55607 42.9626 1.76045C43.284 1.91535 43.5688 1.8299 43.8284 1.64652C44.3312 1.29223 44.8123 0.905467 45.3177 0.555181C45.6035 0.357301 45.9061 0.165917 46.2279 0.0419927C46.6284 -0.112413 46.9998 0.17691 47.0171 0.616642C47.026 0.837008 46.9914 1.05887 46.9909 1.27974C46.9909 1.59904 46.9696 1.92385 47.023 2.23466C47.0576 2.43753 47.1896 2.63441 47.3133 2.80831C47.4201 2.95871 47.5783 3.07115 47.7123 3.20207C48.2102 3.69127 48.226 4.40533 47.7212 4.89503C47.4379 5.16987 47.0967 5.38423 46.8119 5.65857C46.627 5.83696 46.4613 6.05633 46.3506 6.28818C46.1864 6.63197 46.3273 6.87333 46.6992 6.94428C46.9241 6.98726 47.1565 6.98926 47.3845 7.01874C47.7919 7.07171 48.0881 7.28857 48.3046 7.64186C48.5158 7.98565 48.76 8.30495 49.208 8.33694C49.337 8.34643 49.4686 8.32244 49.5986 8.31995C50.0698 8.31045 50.5415 8.29296 51.0127 8.29996C51.3277 8.30445 51.4206 8.40689 51.4394 8.7227C51.4528 8.94307 51.4251 9.16743 51.4543 9.3848C51.4968 9.7001 51.5408 10.0224 51.6456 10.3197C51.7588 10.64 51.9304 10.9423 52.102 11.2377C52.1791 11.3706 52.3181 11.467 52.4679 11.6194L52.4698 11.6219Z" fill="#353C4C"/>
</g>
<defs>
<filter id="filter0_d_683_695" x="0" y="0" width="97" height="71" filterUnits="userSpaceOnUse" color-interpolation-filters="sRGB">
<feFlood flood-opacity="0" result="BackgroundImageFix"/>
<feColorMatrix in="SourceAlpha" type="matrix" values="0 0 0 0 0 0 0 0 0 0 0 0 0 0 0 0 0 0 127 0" result="hardAlpha"/>
<feOffset dy="4"/>
<feGaussianBlur stdDeviation="2"/>
<feComposite in2="hardAlpha" operator="out"/>
<feColorMatrix type="matrix" values="0 0 0 0 0 0 0 0 0 0 0 0 0 0 0 0 0 0 0.25 0"/>
<feBlend mode="normal" in2="BackgroundImageFix" result="effect1_dropShadow_683_695"/>
<feBlend mode="normal" in="SourceGraphic" in2="effect1_dropShadow_683_695" result="shape"/>
</filter>
</defs>
</svg>
