<svg width="110" height="67" viewBox="0 0 110 67" fill="none" xmlns="http://www.w3.org/2000/svg">
<path d="M30.9417 0.00243477C30.963 0.00243477 30.9837 0.00243477 31.005 0.00243477C31.3732 0.209346 31.6361 0.784436 31.9988 0.903105C32.3566 1.01995 33.0473 0.803911 33.4021 0.712018C33.8287 0.60126 34.2365 0.362094 34.6856 0.482589C35.0988 0.593347 35.4317 1.05099 35.8388 1.13375C36.2185 1.21104 36.4042 0.96883 36.8088 1.09359C37.2227 1.22138 37.5848 1.51593 37.9103 1.78856C38.0467 1.90297 38.6029 2.55779 38.7867 2.46894C39.0404 2.34601 38.7842 1.99973 39.1323 1.88715C39.8133 1.66685 40.7554 2.77382 40.9008 3.31179C40.9976 3.67024 40.9379 3.99703 40.8217 4.34026C40.7943 4.4212 40.6032 4.69201 40.6099 4.82589C40.6172 4.97012 40.8333 5.02003 40.8716 5.14113C41.0834 5.80446 40.7542 6.69905 41.6055 6.70148C41.8045 6.70148 42.6121 6.41059 42.7247 6.80189C42.822 7.13965 42.3279 7.0581 42.1715 7.12139C41.7838 7.27779 41.0079 8.15716 41.2294 8.65922C41.4729 9.2118 42.5421 8.83206 42.9048 9.25257C43.1446 9.53068 42.9736 9.75342 42.7028 9.99441C42.3577 10.3011 42.177 10.1374 41.7558 10.205C41.1558 10.3005 40.4712 10.7417 40.557 11.4355C40.644 12.1365 41.7942 12.0428 41.6956 12.8023C41.6591 13.0823 41.2958 13.2423 41.3645 13.5368C41.4327 13.8283 41.9713 14.0766 42.1581 14.2975C42.3705 14.5489 42.676 15.0193 42.4825 15.368C42.3188 15.6632 41.841 15.6285 41.5702 15.7082C40.7316 15.9559 40.8345 16.6192 41.3767 17.1888C41.9408 17.7816 42.5725 18.2897 43.391 18.4558C44.153 18.6104 44.7074 18.7175 45.2113 19.3736C45.5204 19.7764 45.5807 20.1744 45.6257 20.6686C45.6464 20.8986 45.5843 21.4609 45.745 21.6478C45.8752 21.7981 46.1856 21.7415 46.3529 21.8486C46.614 22.0159 46.6718 22.2776 46.7619 22.5557C47.1307 22.1419 47.368 21.5832 47.9693 22.1176C48.1585 22.2855 48.119 22.375 48.2236 22.5478C48.3977 22.8344 48.3545 22.7967 48.6734 22.986C49.0981 23.2385 49.4499 23.53 49.6951 23.9658C49.8838 24.3005 49.9964 24.6449 49.9209 25.0314C49.8722 25.2809 49.6623 25.4969 49.6294 25.7446C49.4986 26.7219 51.5245 26.8284 52.1756 26.6915C52.8128 26.5576 53.1822 26.4304 53.5534 25.9071C53.7664 25.6064 53.7768 25.629 53.8139 25.2894C53.8358 25.0886 53.6782 25.0654 53.7914 24.8433C53.8492 24.7301 54.0981 24.7228 54.1626 24.5792C54.3044 24.2646 54.0731 24.4441 54.0567 24.2061C54.0257 23.7601 54.0853 24.0181 54.3397 23.6475C54.661 23.1795 54.5612 23.0779 55.1442 22.7535C55.5343 22.5363 56.0467 22.4103 56.3875 22.1267C57.122 21.5163 57.0764 19.6651 56.8573 18.8526C56.7064 18.2934 56.6279 17.8917 56.6139 17.3111C56.6035 16.8852 56.3735 16.5924 56.3084 16.1731C56.2104 15.5402 56.4587 15.0765 56.0297 14.5245C55.7102 14.1138 55.7205 14.2513 55.7175 13.6896C55.715 13.2587 55.4893 12.9252 55.3523 12.5327C55.132 11.9016 55.1132 11.248 55.0432 10.5902C54.989 10.0796 55.045 9.1126 54.7772 8.69574C54.6294 8.46509 54.2466 8.35373 54.047 8.09874C53.792 7.77316 53.7262 7.57051 53.8096 7.24067C53.8279 7.16947 54.064 7.09887 54.0914 6.99298C54.1608 6.72339 53.7743 6.45745 53.8078 6.20733C53.8717 5.73204 53.8492 6.19577 54.1967 5.96086C54.3537 5.85436 54.3026 5.75699 54.4151 5.66449C54.6768 5.45028 54.9549 5.14721 55.2367 4.91414C55.6231 4.59464 55.4661 4.71392 56.0333 4.75348C56.567 4.7906 56.7971 4.57517 57.08 4.18204C57.416 3.71466 58.2491 2.51397 59 2.92475C59.1175 2.98925 59.1997 3.33735 59.311 3.44994C59.4479 3.58869 59.6323 3.66658 59.8046 3.74935C60.2537 3.96478 60.5975 3.87532 61.0655 3.94226C61.5457 4.01103 61.455 4.07006 61.7641 3.66415C62.1457 3.1633 62.5084 3.07628 63.1133 2.89371C64.3146 2.53162 65.4551 3.26006 66.6576 3.19312C67.2035 3.1627 67.6313 2.64663 68.1668 2.69228C68.6257 2.73122 68.9153 3.18339 69.3681 3.30388C70.3041 3.55339 70.895 3.79986 70.0479 4.70783C70.539 4.61533 71.4865 4.27575 71.7184 4.8831C71.7823 5.04984 71.5632 5.3097 71.6563 5.46428C71.775 5.66023 72.1511 5.58173 72.2983 5.79594C72.6763 6.34547 72.1985 6.96499 72.022 7.42202C71.7336 8.16994 72.4018 7.99589 72.6933 8.55029C73.1369 9.39437 72.3111 8.90691 71.9892 9.0913C71.6843 9.26596 72.0062 9.32134 71.9995 9.56903C71.9874 10.0358 72.0001 9.73638 71.677 10.0601C71.4086 10.3291 70.9705 10.861 71.1804 11.2815C71.4141 11.7495 72.4389 11.6436 72.8333 11.6558C73.5459 11.6777 73.9013 11.444 74.5464 11.2913C75.1567 11.147 75.3874 11.346 75.3089 11.9333C75.2401 12.4475 74.564 12.8407 74.7898 13.3439C75.0703 13.9701 75.7708 13.6342 76.1603 13.3896C76.6015 13.1127 77.3531 12.7987 77.6598 12.3605C78.0523 11.8 77.972 11.4866 78.7832 11.5347C79.3339 11.5675 80.0046 11.7495 80.5066 11.9844C81.1304 12.2765 81.1292 12.5851 81.3708 13.1601C81.9313 12.6587 82.272 12.2576 82.1516 11.503C82.3189 11.5432 82.779 11.7489 82.9403 11.5992C83.0808 11.469 82.953 11.2986 82.9993 11.1574C83.1557 10.6784 83.4667 10.5531 83.7259 11.0813C84.0229 11.6868 83.5707 11.831 83.3894 12.3149C83.2451 12.7007 83.6444 13.3579 83.8738 13.6866C84.3065 13.2934 84.2487 13.3178 84.8377 13.1699C85.4043 13.0281 85.6849 12.6356 86.1808 12.3909C86.5186 12.2242 87.2002 12.0501 87.5757 12.1804C88.4392 12.4798 87.5787 12.7311 87.4284 13.1102C87.2276 13.6184 87.583 13.6561 87.9232 13.8265C88.18 13.9549 88.2329 13.8728 88.3583 14.1405C88.4532 14.3426 88.3552 14.8045 88.2944 15.0266C88.1544 15.539 87.785 16.0003 87.7905 16.5584C87.7954 17.086 88.309 17.3617 87.9012 17.8089C87.7637 17.9599 87.4497 17.9854 87.3389 18.1631C87.2057 18.3761 87.37 18.5051 87.373 18.7285C87.3797 19.1922 86.776 19.5239 87.2069 19.8756C87.5647 20.1683 88.2311 20.0101 88.5323 19.7703C88.7587 19.5902 89.1348 18.8825 89.3521 19.2604C89.4993 19.5166 88.9279 20.228 89.562 20.1854C89.6916 20.1769 89.9405 19.7795 90.0148 19.7101C90.2211 19.5166 90.4615 19.3681 90.7104 19.2379C91.0737 19.0468 91.7942 18.6269 92.2129 18.625C92.6322 18.6232 92.8245 19.0261 93.1458 19.2245C93.3923 18.8204 93.3266 18.5204 93.8122 18.395C94.0976 18.3214 94.3319 18.3999 94.6094 18.2502C94.8711 18.109 94.8693 17.8722 95.2362 17.927C95.8077 18.0122 95.5996 18.6658 95.9775 18.8758C96.2957 19.0522 96.8258 18.4638 97.2488 18.6743C97.7301 18.9141 97.5512 19.743 97.9778 19.9523C98.548 20.2322 98.3703 19.2579 98.3989 18.9451C98.4665 18.2057 98.7495 18.336 99.3538 18.4899C99.7585 18.5934 99.7037 18.5538 100.041 18.3262C100.287 18.1601 100.54 18.0286 100.809 17.9045C101.795 17.4511 102.474 17.1134 103.003 18.2362C103.282 18.8295 103.509 18.639 104.055 18.4175C104.583 18.2027 105.11 18.2167 105.622 18.0116C106.252 17.759 106.897 17.8619 107.56 17.7359C107.883 17.6745 108.918 17.2186 109.201 17.5387C109.518 17.8978 108.738 19.1149 108.613 19.4953C108.453 19.9815 108.538 20.4684 108.253 20.9157C107.763 21.6849 108.239 21.1926 108.833 21.6106C109.323 21.9557 109.13 22.4292 108.959 22.8971C108.758 23.4461 108.473 24.0771 108.632 24.6711C108.776 25.2115 109.236 25.6679 109.545 26.1201V26.1834C109.278 26.2795 108.474 26.4962 108.78 26.9295C108.944 27.1619 109.27 26.9873 109.374 27.353C109.485 27.7449 109.078 27.9616 108.964 28.264C108.821 28.6395 109.142 29.0594 108.948 29.4106C108.754 29.7629 108.309 29.6704 108.067 29.951C107.689 30.3897 108.158 30.5169 108.254 30.9028C108.355 31.3111 108.027 31.4852 107.773 31.7572C107.487 32.0627 107.309 32.3676 107.154 32.7564C106.991 33.1617 106.861 33.3699 106.59 33.7009C106.409 33.9231 106.21 34.0922 106.349 34.4178C106.616 35.0428 107.689 34.8797 108.053 35.3739C108.329 35.7493 107.955 36.8947 107.715 37.2421C107.435 37.6493 107.35 37.5251 106.931 37.6109C106.53 37.6931 106.622 37.7217 106.364 38.0302C106.103 38.343 106.075 38.3333 105.635 38.3017C105.188 38.2694 104.708 38.3181 104.269 38.27C103.562 38.1927 103.575 37.5994 103.034 37.3207C102.771 37.1849 102.253 37.2032 101.999 37.3553C101.66 37.558 101.764 37.813 101.602 38.1209C101.215 38.8567 100.741 38.144 100.178 38.1008C99.7524 38.068 99.5004 38.4428 99.1079 38.5299C98.7379 38.612 98.3697 38.4465 98.0003 38.4252C97.5908 38.4015 97.1861 38.623 96.8063 38.609C96.4035 38.595 96.3627 38.343 96.0395 38.1246C95.1206 37.5026 95.42 38.7435 94.8529 38.9808C94.1019 39.2948 93.8682 38.3881 93.3643 38.1063C92.7113 37.7412 92.3444 38.1769 91.9835 38.6041C91.6987 38.9412 90.9435 39.3818 90.4925 39.492C90.0562 39.5985 89.5407 39.4232 89.1056 39.3837C88.6236 39.3399 88.1775 39.4238 87.6992 39.4196C86.93 39.4129 86.2606 39.0569 85.5473 38.8086C85.3988 39.5267 85.5303 39.7062 84.7982 39.7056C84.3028 39.7056 83.7168 39.6028 83.2372 39.7427C82.4449 39.9746 81.4499 41.2775 81.4048 42.1009C81.3726 42.6918 81.8156 43.0436 82.1126 43.503C82.3426 43.8584 82.527 44.3197 82.8764 44.5808C83.5464 45.0816 84.9686 43.8767 85.2382 45.1072C85.3581 45.6537 84.9686 45.6622 84.5815 45.6519C84.3028 45.6446 84.3053 45.5204 84.0746 45.7103C83.8993 45.8545 83.9815 46.1983 83.8647 46.3681C83.6797 46.6371 83.4551 46.7941 83.0869 46.6219C82.7114 46.4466 82.7686 46.2422 82.7528 45.8722C82.7187 45.0841 82.0749 44.4627 81.1681 44.8169C80.96 44.8985 80.5151 45.3725 80.4439 45.5922C80.3119 46.0012 80.7153 46.4442 80.9253 46.8014C81.1937 47.2566 81.5071 47.5463 81.1024 47.9766C80.8316 48.2644 80.3898 48.3393 80.0216 48.2498C79.7027 48.1725 79.4605 47.8841 79.1367 47.8445C78.7254 47.7946 78.2969 48.0977 77.888 48.1348C77.3013 48.1883 77.2581 47.9139 76.8711 47.5664C76.5364 47.2658 76.3434 47.3248 75.926 47.2341C74.9711 47.026 74.5804 46.0718 73.8356 45.5545C73.0864 45.0342 72.1115 45.5137 71.4019 45.919C71.1268 46.076 70.4787 46.3858 70.3473 46.6949C70.172 47.1063 70.5895 47.3388 70.668 47.7593C70.7307 48.0934 70.5907 48.3715 70.7343 48.7026C70.9084 49.103 71.1895 49.2314 70.9924 49.6799C70.8049 50.1059 70.5201 50.2733 70.4154 50.7881C70.354 51.0894 70.3631 51.4411 70.1452 51.6845C69.8397 52.0265 69.4277 51.9937 69.1776 52.4391C68.9841 52.7836 68.9622 53.1725 68.9683 53.5571C68.9823 54.5101 69.0571 55.4059 68.9719 56.3638C68.9269 56.8719 68.9391 57.4001 68.7723 57.8876C68.5678 58.484 68.4845 58.2686 68.0579 58.5394C67.8236 58.6879 67.7913 59.0037 67.5923 59.1151C67.3586 59.2459 66.9302 58.9958 66.7306 58.8576C66.3691 58.6075 65.7764 58.0896 65.5476 57.7312C65.3802 57.4689 65.351 57.1585 65.1569 56.9054C64.6371 56.2274 63.4791 55.9712 63.1614 55.1491C63.022 54.7876 63.1529 54.4054 62.8729 54.0938C62.5991 53.7889 62.0495 53.6745 61.6881 53.5273C60.8093 53.1694 59.9622 52.9558 59.0037 53.0721C58.2016 53.1694 57.8852 53.848 57.122 54.0841C56.8013 54.1833 56.071 54.2837 55.8203 54.529C55.5842 54.7602 55.7047 55.031 55.6085 55.3231C55.4661 55.757 55.1132 56.0035 54.6738 56.0936C54.2374 56.183 53.8151 55.9116 53.411 55.9792C52.601 56.1149 53.4615 57.0046 53.3477 57.5395C53.2844 57.8371 53.1 58.1201 53.0288 58.4213C52.971 58.6672 53.0045 58.927 52.9406 59.1662C52.8384 59.5496 52.6351 59.6816 52.2754 59.8021C51.3705 60.1046 50.7613 60.0151 49.9903 59.4504C49.2332 58.8954 48.5164 58.7104 47.6309 58.417C47.0023 58.2089 46.1131 58.6854 46.3426 59.4376C46.4673 59.8453 47.8262 60.9493 47.6534 61.2383C47.5183 61.4653 47.0327 61.2584 46.8574 61.5165C46.67 61.7927 46.9256 61.9954 46.9408 62.2692C46.9779 62.9393 46.5921 62.8845 46.1813 63.0689C45.8971 63.1967 45.7803 63.3866 45.4419 63.4626C45.0579 63.549 44.6368 63.4894 44.2546 63.588C43.8389 63.6951 43.556 64.0609 43.1385 64.143C42.6224 64.2446 42.2798 63.9355 41.8885 63.6641C41.5313 63.4164 41.1424 63.3391 40.787 63.1158C40.218 62.7585 40.2472 62.0252 39.5845 61.7915C38.7976 61.5134 37.4564 61.6546 36.7808 62.1488C35.9483 62.7585 36.1224 63.7572 35.9593 64.6359C34.9217 64.1728 34.6941 62.7025 33.3145 63.431C32.2367 63.9994 33.5366 65.0589 33.4362 65.9048C32.5307 65.3845 32.1034 64.4485 31.8065 63.4839C31.6367 62.9314 31.6689 62.9326 32.1564 62.705C32.5885 62.5035 32.7899 62.4232 32.6469 61.9278C32.4199 61.1416 31.7103 60.1496 31.0963 59.625C30.719 59.3031 30.1846 59.0311 29.6728 59.042C29.1817 59.0518 28.9468 59.6269 28.5038 59.563C27.709 59.4486 27.5502 58.1182 26.6739 57.9168C26.2582 57.8213 25.7866 57.8955 25.4166 58.103C24.9461 58.3671 24.9486 58.5235 25.007 59.0128C25.0642 59.4936 24.9954 59.9506 24.9632 60.4302C24.9401 60.7728 25.1214 61.5469 24.9912 61.8372C24.6796 62.5321 23.2781 61.3388 22.7967 61.1574C22.3427 60.9864 21.7262 61.127 21.3319 60.9584C20.9747 60.8057 21.0812 60.6864 20.909 60.3724C20.503 59.633 19.6468 59.3402 19.2847 58.5108C19.0766 58.0343 19.0029 57.4294 18.6171 57.0484C18.3445 56.7794 18.0225 56.7916 17.6854 56.6796C16.5571 56.3041 17.445 55.8386 17.7292 55.1825C18.3889 53.6587 15.3832 52.4051 14.6444 53.9137C14.3614 54.4918 14.2659 54.8253 14.4223 55.4485C14.5063 55.7832 14.7034 56.1855 14.5209 56.5287C14.1752 57.178 13.1224 56.8524 12.6325 57.3849C12.1213 57.9405 12.2023 59.2039 12.5528 59.8161C12.753 60.1654 13.0719 60.5519 12.7658 60.9444C12.5284 61.2487 12.1116 61.2335 11.7732 61.1842C11.416 61.1318 11.3545 60.9426 11.0119 61.1434C10.8981 61.2097 10.7168 61.4939 10.6547 61.5797C10.4027 61.9327 10.1258 62.3922 10.0394 62.8279C9.84469 63.8053 10.9833 63.9008 11.5444 64.4668C11.0569 64.7309 9.32315 65.3766 8.99696 64.6688C8.85456 64.3597 9.22213 63.8266 8.95254 63.5454C8.60201 63.1797 8.0756 63.6026 7.75428 63.7207C6.82318 64.0633 6.15255 63.8971 6.11786 65.0918C6.09413 65.9036 5.44114 66.9777 4.50578 66.9333C3.21563 66.8718 3.5473 65.9924 3.97025 65.2068C4.19359 64.7917 4.5715 64.359 4.7492 63.944C4.93238 63.515 4.78754 62.8583 4.77598 62.4098C4.75955 61.7593 4.73095 61.6893 5.26648 61.3266C5.65414 61.0637 6.01319 60.889 6.45013 60.7351C6.83596 60.5994 7.22362 60.5196 7.36541 60.1168C7.52911 59.6524 7.29482 59.5946 7.72933 59.2131C8.39327 58.63 8.59349 58.4694 8.3951 57.5584C8.19062 56.6175 8.96045 55.9007 8.54115 54.9842C8.19731 54.2326 7.40618 53.6423 6.66922 53.3191C6.34972 53.1792 5.94685 53.0106 5.59815 52.9917C5.25979 52.9735 5.02549 53.1585 4.70904 53.1767C4.21124 53.2059 2.48049 52.7586 2.60828 52.0971C2.73486 51.4417 3.81202 51.118 2.64176 50.7735C2.28027 50.667 1.90783 50.6506 1.68023 50.3141C1.44715 49.9696 1.67171 49.4706 1.5293 49.1109C1.38082 48.7361 1.10088 48.8249 0.820939 48.5973C0.606116 48.4226 0.424156 48.0709 0.276884 47.839C-0.0188766 47.3729 -0.156412 47.0789 0.27019 46.698C0.543434 46.4539 1.04367 46.4886 1.29197 46.2476C1.55121 45.9963 1.53113 45.5143 1.78673 45.2253C2.00033 44.9843 2.27418 44.9094 2.54865 44.7719C3.45175 44.3209 2.4318 43.8761 2.82493 43.1294C2.95456 42.8835 2.99229 42.6042 3.11035 42.3881C3.26005 42.1143 3.80898 41.8131 4.08283 41.6402C4.67557 41.266 4.63358 41.3816 5.01149 41.8118C5.28048 42.1185 5.44479 42.1642 5.84522 42.2573C6.25965 42.3535 6.66983 42.466 7.08304 42.5652C7.53094 42.673 7.88391 42.6036 8.32024 42.6328C9.11624 42.6857 9.39496 43.6673 10.1277 44.0386C10.836 44.3976 11.4969 44.6429 12.0191 45.2788C12.3751 45.7121 13.154 46.5708 13.1206 47.0948C13.1078 47.2968 12.9198 47.5244 12.8832 47.7429C12.8516 47.9309 12.8705 48.167 12.8911 48.3496C12.9417 48.7853 13.0774 49.2679 13.2392 49.6726C13.5837 50.5325 14.6243 50.3512 15.4368 50.2958C16.4926 50.2246 16.1074 49.6532 16.2309 48.8279C16.3709 47.8944 15.9936 47.0272 16.2431 46.0639C16.447 45.2758 16.8985 44.8893 16.3478 44.2059C15.7532 43.4683 15.5865 42.9833 16.6241 42.7435C17.3665 42.5719 17.9227 42.3194 18.3694 41.6621C18.7096 41.1601 18.5404 41.0517 18.2861 40.5965C18.0737 40.2162 18.1832 39.8803 18.0371 39.5048C17.9008 39.1549 17.6075 39.0356 17.3349 38.8068C16.9472 38.4806 16.7263 38.3157 17.0835 37.914C17.4663 37.4837 17.8461 37.4953 17.6221 36.8588C17.5095 36.5399 17.288 36.4169 17.5765 36.1437C18.1169 35.6319 18.8879 36.5344 19.5555 36.1595C19.8117 36.0159 20.2888 35.5084 20.2809 35.1962C20.2736 34.9028 19.8008 34.5079 19.6066 34.2882C19.3662 34.0149 19.194 33.8366 18.8143 33.7806C18.3913 33.718 18.3061 33.965 18.2544 33.5476C18.2301 33.3547 18.3779 32.9092 18.3786 32.6877C18.3786 32.5112 18.3372 32.339 18.3579 32.1613C18.384 31.9349 18.4893 31.7225 18.5307 31.4979C18.5763 31.2484 18.5015 30.9886 18.538 30.7543C18.6007 30.3532 18.7321 30.2796 18.9135 30.6989C19.121 31.1778 18.8307 31.7322 19.0352 32.2124C19.5659 31.7134 19.233 30.7105 19.2305 30.0769C19.2287 29.4775 19.6608 28.9365 19.5299 28.3273C19.4727 28.062 19.3413 27.8861 19.3346 27.6135C19.3243 27.2137 19.5269 26.7962 19.505 26.3684C19.463 25.5547 19.4368 25.4288 18.7212 25.388C18.8709 25.0338 18.9847 25.063 18.7832 24.7386C18.6366 24.5025 17.9982 24.2402 17.7505 24.1136C17.0549 23.7582 16.4756 23.6079 15.738 23.8313C16.2772 24.1623 17.2265 24.2561 17.6884 24.6467C18.1759 25.0587 17.7718 25.3101 17.2777 25.1652C16.5736 24.9589 15.8841 24.6066 15.1988 24.337C14.7047 24.1429 13.8837 23.9755 13.5502 23.5599C13.8515 23.5173 14.8154 24.068 15.0266 23.8556C15.3497 23.5313 14.628 23.3207 14.4046 23.2038C13.9099 22.944 13.5015 22.6251 13.1534 22.1882C12.8498 21.8066 12.5863 21.3703 12.1012 21.181C11.5736 20.9747 11.3065 21.2157 10.8579 21.4816C10.7095 21.5699 10.4563 21.7561 10.2719 21.7561C9.87268 21.7561 10.124 21.6782 9.8812 21.4853C9.69012 21.3331 9.77897 21.2145 9.45704 21.1031C9.27264 21.0392 9.02131 21.0824 8.82596 21.0514C8.26365 20.9625 8.13037 20.7593 7.72933 20.4154C7.5638 20.2736 6.58524 20.0412 6.58584 19.7862C6.58645 19.5415 7.39645 19.1326 7.59788 18.9926C7.95937 18.7413 8.47847 18.4911 8.76267 18.143C9.07973 17.756 8.92272 17.3659 8.86491 16.9131C8.72555 15.8202 8.56671 15.0984 7.35567 14.872C6.72825 14.7546 6.15985 14.6767 5.80749 14.0815C5.44844 13.4754 5.24092 12.3641 5.51477 11.7014C5.65414 11.3631 5.97363 11.0989 6.18906 10.8062C6.47813 10.4131 6.74772 9.97859 6.98506 9.55259C7.57293 8.49856 7.74272 7.35751 8.01414 6.19881C8.14498 5.64137 8.13037 5.66145 8.7012 5.68397C9.13998 5.70101 9.58666 5.78255 10.0133 5.66023C10.5561 5.50444 10.9559 5.07845 11.5414 5.02794C11.6819 5.01577 11.8493 5.07662 11.9899 5.04985C12.2613 4.99812 12.4402 4.78025 12.7244 4.74617C13.6762 4.63298 14.7552 5.18129 15.7082 5.25554C16.3368 5.30483 16.579 5.03889 17.061 4.67436C17.4341 4.39199 17.8552 4.29827 18.241 4.07067C18.4911 3.9234 18.6354 3.67206 18.8788 3.51688C19.2409 3.28623 19.5926 3.142 19.9426 2.82738C20.1446 2.64542 20.2134 2.62594 20.3558 2.39043C20.4629 2.21395 20.2907 2.05511 20.517 1.95409C20.8012 1.82812 21.299 2.26811 21.6477 2.17987C22.0567 2.07641 22.1005 1.72953 22.5813 1.79647C23.0499 1.86159 23.3809 2.10441 23.8848 1.98574C24.3528 1.87559 24.7283 1.54879 25.234 1.72892C25.4908 1.82082 25.7555 2.29002 26.005 2.27906C26.5978 2.25411 25.8858 0.923796 25.9582 0.568396C26.4517 0.697411 26.9069 0.889109 27.4279 0.827644C27.8502 0.777742 28.0608 0.501455 28.4259 0.363311C28.8866 0.189263 29.2481 0.498412 29.7069 0.492935C30.1554 0.487458 30.554 0.205085 30.9387 0L30.9417 0.00243477Z" fill="#353C4C"/>
</svg>
