<svg width="69" height="90" viewBox="0 0 69 90" fill="none" xmlns="http://www.w3.org/2000/svg">
<g filter="url(#filter0_d_683_697)">
<path d="M30.0007 82H29.5673C29.5228 81.969 29.4706 81.9453 29.4351 81.9062C29.0803 81.5117 28.7755 81.2073 28.1177 81.4401C27.7755 81.5613 27.2679 81.2096 26.8048 81.1308C26.3624 81.0556 25.9671 80.6707 25.562 80.4056C25.1942 80.1651 25.2055 79.5838 25.5697 79.3605C26.0157 79.0868 26.084 78.7866 25.8192 78.2631C25.5418 77.7151 25.3273 77.6308 24.786 77.8586C24.3579 78.0386 24.1003 77.9238 24.0445 77.4796C23.9789 76.9566 23.9483 76.4282 23.9303 75.9011C23.9245 75.728 24.005 75.5522 24.0472 75.3777C24.1088 75.124 24.2114 74.8729 24.2253 74.6165C24.246 74.2388 24.0945 73.8165 24.2141 73.4867C24.4263 72.9027 24.1641 72.3652 24.2145 71.8235C24.2676 71.2573 24.6452 70.7366 24.5009 70.1202C24.4681 69.9804 24.4636 69.8264 24.4816 69.6838C24.5041 69.5057 24.5378 69.3212 24.6102 69.1595C24.8318 68.6638 24.4191 67.7286 23.8962 67.6498C23.1808 67.5414 22.4578 67.4831 21.6948 67.3988C21.3355 66.7697 21.3329 66.7861 20.4574 66.6453C20.2816 66.6171 20.0932 66.4435 19.9817 66.285C19.8158 66.0499 19.7313 65.7574 19.5807 65.5092C19.1899 64.8646 18.4908 64.5571 17.7642 64.6723C17.4993 64.7142 17.2282 64.7138 16.9634 64.7566C16.7862 64.7853 16.5709 64.8058 16.4517 64.9174C16.2062 65.1479 15.9693 65.331 15.6419 65.1393C15.3196 64.9507 15.4553 64.6277 15.4661 64.3452C15.4805 63.9662 15.4994 63.5868 15.4976 63.2077C15.4963 62.934 15.4675 62.6602 15.4446 62.3873C15.423 62.1322 15.5286 61.9973 15.7678 61.8953C16.7228 61.4871 17.0533 60.3027 16.5511 59.3953C16.0012 58.4013 15.8254 57.2369 15.2296 56.2538C15.133 56.0944 15.1694 55.8579 15.1123 55.6671C15.0507 55.4616 14.9886 55.2384 14.8627 55.0735C14.1802 54.1779 13.4716 53.3023 12.7859 52.409C12.5917 52.1562 12.3714 52.06 12.0562 52.0263C11.7316 51.9912 11.4047 51.8623 11.1075 51.7147C10.8022 51.563 10.5967 51.2902 10.6533 50.9152C10.6943 50.6442 11.469 49.9495 11.6942 49.9445C12.3152 49.9308 12.4033 49.8761 12.5085 49.2384C12.58 48.8056 12.7149 48.4425 13.0678 48.1583C13.2612 48.0025 13.4365 47.792 13.5462 47.5692C13.6515 47.3547 13.7535 47.0654 13.6946 46.8554C13.5435 46.3165 13.4019 45.7256 13.0759 45.2965C12.419 44.4314 11.6493 43.6524 10.9119 42.852C10.5328 42.4407 10.1111 42.0699 9.73027 41.6599C9.37237 41.2745 9.04954 40.8563 8.69973 40.4627C8.37375 40.096 8.29911 39.4081 8.59586 39.0163C8.7892 38.7608 8.67994 38.5836 8.53426 38.3822C8.22807 37.9599 7.85128 37.5864 7.75371 37.0288C7.73078 36.8989 7.52665 36.7696 7.37828 36.7008C7.07028 36.5582 6.71823 36.5008 6.43137 36.3277C5.99478 36.0648 5.61305 36.0699 5.15893 36.2958C4.90759 36.4206 4.57037 36.412 4.27676 36.3924C3.989 36.3732 3.93595 36.1632 4.06993 35.9141C4.1131 35.8339 4.15581 35.7514 4.21336 35.6822C4.52496 35.3068 4.86082 34.9497 5.14589 34.5542C5.2565 34.4007 5.3154 34.1584 5.29561 33.9666C5.20479 33.0728 5.35901 32.2556 5.93768 31.5536C6.33964 31.0657 6.64539 31.0652 7.01588 31.5654C7.43493 32.1303 7.94436 32.4728 8.67275 32.3799C8.7973 32.364 8.92544 32.3758 9.05178 32.379C9.94249 32.4009 10.3692 32.9726 10.1511 33.8518C10.0306 34.3383 10.2761 34.8449 10.7635 35.0467C10.7635 34.9451 10.7752 34.859 10.7617 34.777C10.7028 34.4199 10.6277 34.0654 10.576 33.7074C10.5293 33.3839 10.6605 33.1758 10.9982 33.1334C11.2909 33.0965 11.4164 32.9352 11.4717 32.6332C11.5108 32.4195 11.6371 32.1526 11.8075 32.0465C12.4145 31.6683 12.6438 31.067 12.8673 30.4425C12.9604 30.1828 12.9361 30.007 12.6929 29.8361C12.3426 29.5906 12.2981 29.2972 12.62 29.0398C13.0633 28.685 13.1285 28.331 12.9298 27.8026C12.696 27.1817 12.9811 26.8459 13.6425 26.8354C13.7139 26.8345 13.8016 26.8482 13.8542 26.8127C14.5516 26.3466 15.4216 26.1344 15.9113 25.3567C15.9953 25.2237 16.1833 25.1522 16.3321 25.0675C16.7485 24.8297 17.2323 24.6689 17.5744 24.3509C18.1014 23.8603 18.5249 23.2571 19.0096 22.7177C19.1238 22.5906 19.3005 22.5127 19.4597 22.4371C19.8693 22.2435 20.1827 21.9615 20.341 21.5233C20.4651 21.1798 20.5519 20.8163 20.7187 20.4956C21.0482 19.8619 21.314 19.1358 22.2141 19.1166C22.3202 19.1144 22.4421 19.0069 22.5248 18.9176C22.8139 18.6064 23.1219 18.5905 23.434 18.8538C23.6866 19.067 23.8786 18.9786 24.103 18.8041C24.2698 18.6743 24.4834 18.4994 24.6632 18.514C25.1425 18.5522 25.638 18.6201 26.0822 18.7932C26.4883 18.9513 26.8336 18.9376 27.1483 18.6925C27.4127 18.4866 27.6451 18.2229 27.8434 17.9491C28.0503 17.6639 28.2171 17.4466 28.5651 17.7678C28.637 17.8343 28.7935 17.8302 28.9081 17.8206C29.5592 17.765 30.119 17.5486 30.4607 16.9259C30.5263 16.8066 30.6815 16.7405 30.7826 16.6376C31.0573 16.3574 31.3456 16.0863 31.5897 15.7802C31.7552 15.5729 31.8963 15.4144 32.1873 15.3752C32.3595 15.352 32.6225 15.167 32.6472 15.0204C32.7745 14.2692 33.3221 13.8346 33.7686 13.313C33.9165 13.1403 33.9601 12.8765 34.0519 12.6547C34.1049 12.5267 34.1395 12.3859 34.216 12.2743C34.483 11.8848 34.7749 11.5222 35.2137 11.3054C35.331 11.2475 35.4169 11.1058 35.4943 10.9869C36.0253 10.1747 35.8315 9.06954 36.5374 8.32289C36.5882 8.26914 36.5626 8.14568 36.585 8.05776C36.63 7.88147 36.6372 7.671 36.7406 7.53889C37.3714 6.73349 37.826 5.75816 38.8543 5.32903C39.0791 5.23519 39.3192 5.01562 39.4132 4.79331C39.7158 4.07855 40.2311 3.75876 40.9734 3.75876C41.1978 3.75876 41.4221 3.75876 41.6658 3.75876C41.6123 3.37291 41.4338 3.04537 41.8902 2.90279C42.2629 2.78616 42.6168 2.60531 42.9922 2.49917C43.2238 2.43357 43.503 2.37982 43.7188 2.45088C44.3833 2.67046 44.944 2.46865 45.4332 2.05911C45.7592 1.78624 46.0249 1.43137 46.2826 1.08606C46.471 0.833687 46.6378 0.659213 46.9943 0.723901C47.1535 0.753056 47.3999 0.659668 47.5105 0.534393C48.1013 -0.135263 48.8733 -0.113852 49.4839 0.259697C49.9875 0.568103 50.5405 0.883798 50.9636 1.33707C51.3642 1.76619 51.505 2.31331 51.5783 2.87682C51.6097 3.1178 51.5814 3.36608 51.5859 3.61071C51.5895 3.79885 51.5612 4.0002 51.6183 4.17149C51.7487 4.56326 51.9344 4.93589 52.0746 5.32493C52.1533 5.5436 52.2131 5.73675 52.5031 5.72035C52.9204 5.69712 53.0193 5.89619 52.9465 6.30709C52.875 6.70934 53.2518 6.95397 53.6155 6.76993C53.7562 6.69886 53.8695 6.56812 53.9905 6.4597C54.3857 6.10574 54.8111 6.1923 55.0107 6.69158C55.0759 6.85421 55.0952 7.05191 55.079 7.22821C55.0152 7.9293 55.3762 8.45774 55.758 8.97023C55.8564 9.10188 56.0781 9.25859 56.2049 9.22989C57.0048 9.0504 57.2719 9.53192 57.5358 10.1606C57.6792 10.5018 58.1365 10.7159 58.2552 11.0575C58.4948 11.7486 59.0074 12.4205 58.5947 13.2355C58.4391 13.543 58.5483 13.7968 58.8748 13.9507C59.0169 14.0177 59.1958 14.1061 59.2561 14.2341C59.5591 14.8796 60.3572 15.1875 60.4156 16.0062C60.4242 16.1264 60.6126 16.264 60.747 16.3378C60.9903 16.4717 61.0078 16.6385 60.9399 16.8854C60.8585 17.1819 60.7965 17.4903 60.7762 17.7965C60.7569 18.0903 60.8702 18.3509 61.1993 18.4074C61.6755 18.4889 61.8027 18.8178 61.8104 19.2401C61.8221 19.917 61.8153 20.5949 61.8441 21.2709C61.8535 21.4973 61.876 21.8007 62.0168 21.9301C62.5028 22.377 62.59 22.9209 62.5365 23.5277C62.5051 23.8853 62.6179 24.1846 62.9039 24.3928C63.2393 24.637 63.2798 24.9636 63.17 25.318C63.0909 25.5731 62.9551 25.81 62.8234 26.102C63.4502 26.7129 63.237 27.3233 62.7546 27.9606C62.349 28.4968 62.0078 29.0831 61.6319 29.643C61.4327 29.94 61.3931 30.2161 61.5676 30.5609C61.8787 31.175 61.9466 31.8424 61.7636 32.5116C61.6854 32.7981 61.738 33.0282 62.0046 33.0778C62.8018 33.2259 63.5378 33.875 64.4272 33.358C64.6956 33.2017 65.0877 33.4901 64.9825 33.7247C64.8094 34.111 64.6165 34.577 64.2919 34.7811C63.925 35.0116 63.603 35.4622 63.0599 35.3533C62.9897 35.3392 62.8895 35.4107 62.8211 35.4653C62.5756 35.6617 62.3396 35.6804 62.0199 35.607C61.7088 35.535 61.2965 35.5414 61.0325 35.6963C59.9988 36.3017 59.9741 36.4821 60.5262 37.5622C60.551 37.611 60.5712 37.6638 60.6027 37.7075C60.8513 38.0497 60.8347 38.3818 60.5789 38.7125C60.2174 39.1803 60.0865 39.7138 60.1261 40.3037C60.1562 40.7492 60.0555 41.1501 59.8145 41.551C59.6621 41.8047 59.5861 42.2184 59.6792 42.4876C59.863 43.0201 59.8226 43.5126 59.7192 44.0356C59.475 45.271 59.7893 46.5903 59.1661 47.7752C59.0928 47.9145 59.1958 48.1387 59.1666 48.315C59.1207 48.5947 59.1036 48.9209 58.9481 49.1313C58.5825 49.6251 58.5663 50.1404 58.6954 50.692C58.8703 51.4396 58.1711 52.834 57.4688 53.1174C56.8375 53.372 56.762 53.4987 56.8524 54.1897C56.9189 54.7013 56.9711 55.2056 56.7031 55.6871C56.6356 55.8083 56.6563 55.9759 56.6091 56.113C56.4936 56.4497 56.3825 56.7913 56.231 57.1121C56.0772 57.4369 55.7539 57.7275 55.7234 58.0541C55.6586 58.7379 55.7049 59.439 55.7679 60.1269C55.8128 60.6202 55.726 60.8936 55.2566 61.0448C54.9828 61.1332 54.9271 61.3058 54.9608 61.5427C54.981 61.6853 55.0408 61.8224 55.0867 61.9609C55.2404 62.4278 55.2436 62.8488 54.8236 63.2041C54.6996 63.3093 54.6119 63.5089 54.5871 63.677C54.4693 64.4778 54.3345 65.2805 54.2976 66.0868C54.2796 66.4809 54.1951 66.7829 53.959 67.0854C53.8111 67.2749 53.6452 67.5414 53.6663 67.755C53.7009 68.1031 53.6569 68.3541 53.3844 68.5727C53.3084 68.6338 53.2666 68.7572 53.2414 68.8602C53.1555 69.2132 53.1169 69.5818 52.995 69.9202C52.9231 70.1202 52.7599 70.3248 52.5827 70.44C52.2226 70.6746 51.8134 70.8309 51.4456 71.0546C50.5724 71.5848 50.5774 71.593 49.6597 71.3602C49.3108 71.2718 49.1741 70.9921 49.3171 70.6468C49.3629 70.5366 49.4263 70.4341 49.4821 70.3284C49.4542 70.2869 49.4263 70.245 49.3985 70.2036C49.2123 70.2983 49.0199 70.3831 48.8418 70.4915C48.6912 70.5835 48.5082 70.8259 48.4232 70.7912C47.8607 70.5616 47.3698 70.9384 46.8428 70.9293C46.6827 70.9265 46.4894 70.942 46.3698 70.8609C45.9971 70.6086 45.7952 70.7917 45.6468 71.1106C45.4598 71.5124 45.1432 71.6814 44.7314 71.6422C44.4539 71.6158 44.1756 71.5402 43.9108 71.4486C43.5515 71.3242 43.4045 71.393 43.3528 71.7629C43.2449 72.5346 43.1055 72.6203 42.3717 72.5005C42.0975 72.4554 41.7854 72.475 41.5282 72.5697C41.3992 72.6171 41.3902 72.9351 41.2625 73.0663C41.0979 73.2353 40.8817 73.3737 40.6627 73.4603C40.5049 73.5227 40.3061 73.479 40.1254 73.4813C39.7787 73.4863 39.5328 73.5888 39.5247 74.0097C39.5166 74.4315 39.3138 74.7586 39.0171 75.0606C38.8381 75.2429 38.7158 75.5148 38.647 75.7686C38.5611 76.0847 38.4411 76.3421 38.1605 76.5225C38.0126 76.6177 37.8912 76.7553 37.7415 76.8883C37.8256 77.0436 37.8944 77.1689 37.9613 77.2951C38.1713 77.691 38.0558 77.9146 37.6147 77.9652C37.4542 77.9834 37.2869 77.9752 37.1336 78.0181C36.438 78.2121 35.992 77.9994 35.7281 77.3279C35.6494 77.1279 35.5747 76.9266 35.5226 76.7899C34.7186 76.5995 34.1036 76.8455 33.5937 77.368C33.1063 77.8673 33.0213 78.6449 32.4444 79.1004C32.3518 79.1733 32.4435 79.4567 32.4008 79.6302C32.3415 79.8699 32.301 80.1869 32.136 80.3126C31.7534 80.6042 31.3226 80.8853 30.8681 81.0087C30.5367 81.0989 30.3708 81.231 30.2525 81.5189C30.1837 81.6861 30.0835 81.8401 29.9976 81.9995L30.0007 82Z" fill="#353C4C"/>
</g>
<defs>
<filter id="filter0_d_683_697" x="0" y="0" width="69" height="90" filterUnits="userSpaceOnUse" color-interpolation-filters="sRGB">
<feFlood flood-opacity="0" result="BackgroundImageFix"/>
<feColorMatrix in="SourceAlpha" type="matrix" values="0 0 0 0 0 0 0 0 0 0 0 0 0 0 0 0 0 0 127 0" result="hardAlpha"/>
<feOffset dy="4"/>
<feGaussianBlur stdDeviation="2"/>
<feComposite in2="hardAlpha" operator="out"/>
<feColorMatrix type="matrix" values="0 0 0 0 0 0 0 0 0 0 0 0 0 0 0 0 0 0 0.25 0"/>
<feBlend mode="normal" in2="BackgroundImageFix" result="effect1_dropShadow_683_697"/>
<feBlend mode="normal" in="SourceGraphic" in2="effect1_dropShadow_683_697" result="shape"/>
</filter>
</defs>
</svg>
