<svg width="67" height="86" viewBox="0 0 67 86" fill="none" xmlns="http://www.w3.org/2000/svg">
<g filter="url(#filter0_d_683_696)">
<path d="M4.25395 59.8073C4.19169 59.1915 4.52861 58.8071 4.6584 58.3374C4.64595 58.0562 4.61048 57.7637 4.62407 57.4738C4.66934 56.5001 4.46032 55.5844 4.16491 54.6892C4.04002 54.3109 3.88873 53.956 4.12152 53.5577C4.17283 53.4702 4.15359 53.3224 4.15321 53.202C4.15321 53.0065 4.16189 52.8193 4.29922 52.6755C4.32148 52.6521 4.34676 52.6265 4.35695 52.5962C4.42901 52.3752 4.46938 52.1329 4.57502 51.9366C4.67387 51.7529 4.84063 51.6168 4.97532 51.4626C4.92175 51.2108 4.87081 50.9945 4.82969 50.7757C4.75951 50.4004 4.91345 50.1491 5.24584 50.1664C5.54389 50.182 5.81215 50.1283 6.07134 49.9636C6.50371 49.6889 6.85497 49.3288 7.05154 48.7936C7.09794 48.6675 7.16359 48.5505 7.24659 48.3742C7.1685 48.0414 7.07417 47.6635 6.99343 47.2817C6.96551 47.1491 6.9625 47.0074 6.96174 46.8696C6.95835 46.3319 6.96023 45.7945 6.96023 45.2338C6.70179 44.9539 6.67274 44.5855 6.67915 44.1921C6.68519 43.8328 6.57955 43.4697 6.69387 43.1148C6.74254 42.9636 6.82215 42.8253 6.90817 42.6364C7.17755 42.7898 7.4009 42.9172 7.62388 43.0446C7.91817 42.6897 7.79291 42.2044 7.36808 42.0774C7.29677 42.0562 7.21792 42.0709 7.14322 42.0618C6.83082 42.0241 6.72179 41.8425 6.80592 41.4985C6.82215 41.4326 6.85723 41.3728 6.87912 41.3087C6.99683 40.9672 7.09153 40.6244 6.98853 40.25C6.96174 40.1534 6.97268 40.0433 6.96136 39.9402C6.91081 39.4817 7.07983 39.155 7.44278 38.9907C7.68689 38.8802 7.8378 38.7294 7.92119 38.4304C8.02796 38.0465 8.30489 37.8246 8.632 37.663C8.80781 37.7358 8.98476 37.809 9.20019 37.8983C9.2183 37.6353 9.23226 37.4342 9.2466 37.2258C9.50202 36.945 9.77405 36.7586 10.1732 36.9658C10.2789 36.8219 10.4098 36.6988 10.4784 36.5407C10.7595 35.8924 11.3039 35.8105 11.6843 36.3756C11.7284 36.441 11.7574 36.5199 11.8088 36.6226C11.9385 36.4865 12.0468 36.373 12.1996 36.2131C12.3607 36.2235 12.5648 36.2365 12.8044 36.2521C13.1112 35.8486 12.7705 35.4721 12.7101 35.0162C12.9602 34.728 13.2308 34.4074 13.51 34.0971C13.6718 33.9173 13.8522 33.76 14.0144 33.5806C14.1562 33.4241 14.3045 33.3331 14.4147 33.3856C14.6577 33.7539 14.8516 34.0477 15.0297 34.3172C15.3013 34.2621 15.4634 34.0269 15.516 33.6118C15.6247 33.4969 15.8107 33.373 15.9042 33.1871C16.1329 32.733 16.4788 32.7243 16.8493 32.7945C17.3326 32.8859 17.376 32.8708 17.573 32.3737C17.5854 32.3421 17.6039 32.3122 17.6099 32.2793C17.6892 31.8589 17.9106 31.654 18.3223 31.7103C18.3724 31.5833 18.4302 31.4668 18.466 31.342C18.5411 31.0807 18.5898 30.8081 18.6773 30.5529C18.8018 30.1901 18.9836 29.8794 19.327 29.7317C19.4356 29.6849 19.5239 29.5748 19.6454 29.4738C19.7673 29.5254 19.9046 29.5839 20.1042 29.6688C20.2736 29.5523 20.4751 29.4119 20.6788 29.2749C20.7675 29.2151 20.8542 29.141 20.9512 29.1111C21.247 29.0193 21.407 28.7935 21.4813 28.4668C21.5307 28.2492 21.596 28.0356 21.6348 27.8155C21.725 27.3033 21.3281 26.5566 20.8705 26.3582C20.4358 26.1697 19.8718 26.4028 19.6122 26.8634C19.4654 27.1239 19.3051 27.3743 19.1398 27.62C19.0225 27.7938 18.8784 27.854 18.7218 27.6764C18.7075 27.64 18.6811 27.6062 18.6848 27.578C18.7716 26.931 18.4539 26.4479 18.1744 25.9586C17.8144 25.3286 17.0417 25.1648 16.5173 25.5994C16.3487 25.7389 16.2098 25.9266 16.0589 26.0938C15.9951 26.1645 15.9435 26.2849 15.8714 26.3027C15.682 26.3491 15.6122 26.5146 15.5126 26.6671C15.2738 27.0342 15.0651 27.4081 15.1662 27.9225C14.9142 27.9901 14.7029 28.0469 14.4886 28.1045C14.44 27.7266 14.3954 27.3817 14.3475 27.0103C14.2159 26.9401 14.0827 26.8695 13.9469 26.7971C13.7812 26.5579 13.8586 26.2988 14.0061 26.1385C14.3143 25.8039 14.4215 25.3884 14.4935 24.9403C14.5011 24.8926 14.5332 24.8502 14.5532 24.8073C15.0493 24.8866 15.3311 24.6864 15.4858 24.0979C15.6356 23.5272 15.8763 23.0137 16.1446 22.5045C16.761 22.4326 17.0874 21.9109 17.3919 21.4047C17.593 21.0706 17.7152 20.665 17.8329 20.2759C18.0136 19.6792 18.3083 19.2966 18.8727 19.1089C19.3821 18.9395 19.8959 18.6535 20.0533 17.9519C20.0646 17.9016 20.0929 17.8527 20.0921 17.8037C20.0785 17.119 20.4343 16.638 20.8588 16.2879C21.2202 15.9902 21.6156 15.7896 21.8314 15.2891C21.8978 15.1352 22.0906 15.0343 22.148 14.8198C22.1698 14.7379 22.2744 14.6794 22.3487 14.623C22.6509 14.3938 22.9625 14.1802 23.2576 13.9397C23.4402 13.7906 23.6714 13.6407 23.7545 13.4266C23.9454 12.9339 24.3426 12.7627 24.695 12.446C24.8403 12.5413 24.9799 12.6362 25.1221 12.725C25.6477 13.0526 26.0446 12.9062 26.3204 12.2995C26.4653 11.9806 26.629 11.6725 26.7954 11.3366C27.0233 11.4285 27.2353 11.5134 27.4092 11.5836C27.7352 11.5225 28.0314 11.4788 28.3227 11.4073C28.4819 11.3683 28.6467 11.3085 28.7829 11.2105C29.0753 10.9999 29.3915 10.944 29.7352 10.9453C29.8103 10.847 29.8895 10.7434 29.9805 10.6238C30.0431 10.6143 30.1163 10.5961 30.1902 10.593C30.5083 10.5787 30.7716 10.4401 30.981 10.161C31.2199 9.84292 31.4621 9.53049 31.8794 9.55042C31.931 9.55302 31.9861 9.49452 32.0371 9.45942C32.2438 9.31859 32.4483 9.17212 32.6566 9.03432C32.852 8.90519 33.0512 8.78385 33.2647 8.64909C33.4847 8.76262 33.716 8.88179 33.9439 8.99922C34.2898 8.87095 34.503 8.65082 34.5551 8.19885C34.5785 7.99475 34.7852 7.81882 34.9471 7.65891C34.978 7.52718 35.009 7.39545 35.0471 7.23425C35.6447 7.02928 36.0076 6.45208 36.4906 6.03304C36.4 5.74314 36.3163 5.47404 36.228 5.19194C36.4672 5.01601 36.6947 5.02077 36.8961 5.13777C37.3232 5.38607 37.7349 5.66948 38.1786 5.95504C38.2434 5.74011 38.3657 5.50394 38.5921 5.34967C38.6588 5.30417 38.6649 5.14124 38.6981 5.03507C38.9554 4.86261 39.1999 5.03247 39.4647 5.06757C39.5922 4.92847 39.7228 4.78677 39.8526 4.64421C40.1801 4.28497 40.2804 4.26504 40.6905 4.5064C40.9437 4.65547 41.1889 4.82621 41.484 4.82837C41.5531 4.64117 41.5784 4.44343 41.5598 4.23514C41.4029 3.98597 41.2674 3.77104 41.132 3.55567C40.9976 3.30087 40.6253 3.40703 40.5468 3.06773C40.4872 2.8099 40.5045 2.52823 40.4872 2.2483C40.6317 2.1677 40.7339 2.0936 40.8448 2.05156C41.4406 1.82753 41.8092 1.37556 41.9495 0.66836C41.9922 0.452992 42.0778 0.248458 42.1352 0.0664579C42.4257 -0.0917093 42.5936 0.0517245 42.683 0.293959C42.7996 0.610293 42.909 0.94006 42.9592 1.27633C43.0376 1.8037 43.0576 1.85266 43.5198 1.85743C43.6096 1.8583 43.6998 1.85743 43.8179 1.85743C43.8858 1.9636 43.9963 2.06283 44.0171 2.18243C44.1088 2.7124 44.4578 3.04 44.7369 3.41354C44.9577 3.70864 45.1863 3.97687 45.2274 4.4206C45.3033 4.27067 45.3787 4.12074 45.4662 3.94827C45.7119 4.0605 45.842 4.28237 45.9658 4.4947C45.9556 4.55104 45.9594 4.59567 45.9416 4.61647C45.636 4.97311 45.3365 5.32584 45.2406 5.84974C45.2097 6.01918 45.072 6.16261 44.9829 6.31774C44.5558 5.97844 44.5143 5.86491 44.4744 5.01254C44.0842 4.57271 43.713 4.15454 43.3285 3.7212C43.0116 3.78534 42.7064 3.84687 42.3517 3.9188C42.4559 4.05964 42.5366 4.16927 42.6479 4.31964C42.5524 4.42234 42.4766 4.5207 42.3872 4.59784C41.7899 5.11177 41.6783 5.55984 41.965 6.38361C41.8647 6.70688 41.8416 7.05528 41.8782 7.42578C41.9382 8.03158 41.8816 8.61398 41.6496 9.19769C41.4802 9.62365 41.4742 10.1354 41.3832 10.6832C40.9909 11.0948 40.3929 11.201 39.8567 11.5355C39.6402 11.4814 39.3923 11.4194 39.1074 11.3479C38.9901 11.5126 38.8697 11.6816 38.7339 11.8722C38.6298 11.8454 38.5174 11.8159 38.3966 11.7847C38.2008 12.2107 38.2785 12.5708 38.5622 12.9118C38.6939 13.0704 38.8071 13.2641 38.8845 13.4643C38.9984 13.7594 39.1761 13.9431 39.4421 14.0185C39.696 14.0905 39.9077 14.2413 40.1174 14.4185C40.7388 14.9433 41.4013 15.3818 42.1974 15.5772C42.4747 15.5551 42.6932 15.3632 42.8871 15.1023C43.0807 14.8419 43.2938 14.6005 43.5326 14.3097C43.6541 13.5076 43.9405 13.4621 44.5789 13.7893C44.6834 13.7247 44.7988 13.6428 44.9218 13.5809C45.0697 13.5063 45.2236 13.447 45.3757 13.3841C45.5157 13.3265 45.6858 13.3118 45.7918 13.2091C46.0084 12.9989 46.2201 12.8867 46.4506 13.0604C46.7222 12.8719 46.8018 12.6111 46.8403 12.3324C46.8686 12.1279 46.9422 11.9732 47.1173 11.8813C47.4595 12.0655 47.8073 12.2523 48.1884 12.4572C48.2329 12.6215 48.2902 12.8321 48.3446 13.0331C48.8464 13.0986 49.0735 12.9296 49.2701 12.3671C49.0969 12.2146 48.9233 12.0616 48.7324 11.8935C48.8037 11.7115 48.8566 11.5758 48.9248 11.4021C49.0742 11.4372 49.2289 11.425 49.3221 11.5065C49.4712 11.6361 49.6089 11.7284 49.8017 11.7522C50.0126 11.7782 50.0654 12.0131 50.1291 12.2063C50.2148 12.4655 50.2982 12.7233 50.5645 12.8737C50.626 12.6743 50.6826 12.4893 50.7468 12.2817C50.8845 12.3064 50.9988 12.3268 51.1482 12.3532C51.1863 11.9502 51.4376 11.7561 51.7289 11.5962C51.9654 11.7483 52.1197 11.9589 52.1537 12.2843C52.1733 12.4711 52.2329 12.6527 52.2737 12.8364C52.3276 13.0821 52.4272 13.2871 52.6728 13.4019C53.0901 13.2017 53.5044 13.2897 53.8752 13.5921C54.3114 13.4266 54.3748 12.9413 54.5925 12.6054C54.6883 12.4577 54.7388 12.2722 54.8158 12.1075C54.9392 11.8441 54.9324 11.7223 54.7536 11.4476C54.6838 11.5035 54.6064 11.5516 54.5438 11.6179C54.3076 11.867 54.0529 11.9091 53.7496 11.7825C53.2723 11.5836 53.1497 11.3977 53.1882 10.824C53.2029 10.6034 53.2259 10.3833 53.1829 10.1073C53.3485 9.93306 53.5142 9.75842 53.6409 9.62495C53.9307 9.53915 54.162 9.47069 54.4114 9.39702C54.8004 9.60675 54.8811 9.77792 54.8056 10.2698C54.7951 10.3378 54.7724 10.4045 54.7687 10.4726C54.7528 10.7581 54.9128 10.9293 55.1648 10.8916C55.3746 10.8604 55.5342 10.746 55.6074 10.4492C55.5794 10.3759 55.5534 10.255 55.4946 10.1614C55.1297 9.58162 55.304 9.05079 55.5945 8.52732C55.6349 8.45408 55.676 8.38172 55.7183 8.30978C55.8979 8.00298 55.8873 7.67755 55.7383 7.37508C55.5202 6.93265 55.2384 6.55218 54.7751 6.34938C54.3838 6.54958 53.9707 6.74718 53.5696 6.97208C53.381 7.07781 53.198 7.11291 53.0018 7.05225C52.8569 7.00718 52.717 6.94131 52.5868 6.88975C52.4174 6.95605 52.2657 7.04575 52.1061 7.07131C51.8492 7.11291 51.71 6.90188 51.7839 6.61414C51.8051 6.53181 51.833 6.44341 51.8805 6.38058C52.0378 6.17388 52.0899 5.93641 52.1129 5.66688C52.128 5.48834 52.1944 5.28294 52.2982 5.15294C52.5019 4.89771 52.4993 4.63727 52.4317 4.3335C52.3246 3.85207 52.3186 3.37323 52.5302 2.95117C52.5091 2.7592 52.4913 2.598 52.4668 2.3757C52.6672 2.44807 52.8049 2.4979 52.9879 2.56377C53.287 2.26433 53.6059 1.94583 53.9084 1.64336C54.1986 1.80326 54.111 2.0611 54.151 2.30116C54.2657 2.3679 54.3963 2.44417 54.534 2.5239C54.6849 3.05733 54.4668 3.54744 54.4046 4.04187C54.5223 4.32354 54.694 4.49644 54.9969 4.53457C55.3289 4.2958 55.4085 3.81394 55.6511 3.47203C55.8956 3.1271 56.0843 2.73017 56.2688 2.40647C56.4578 2.3406 56.603 2.2899 56.7781 2.22923C56.8407 2.37266 56.9184 2.55077 56.9909 2.7163C57.4312 2.80427 57.6787 2.65953 58.222 2.00216C58.3144 2.07193 58.4106 2.14516 58.5072 2.21796C58.6687 1.81063 58.8607 1.72136 59.1686 1.9428C59.4704 2.15946 59.6934 2.45457 59.7802 2.871C59.8752 3.32643 60.145 3.61114 60.514 3.8005C60.6479 3.716 60.7773 3.6341 60.9215 3.5431C61.0607 3.70214 61.0275 3.86074 60.9732 4.02627C60.7245 4.78287 60.7762 5.00734 61.3188 5.49094C61.4376 5.59667 61.5685 5.68464 61.6987 5.78431C62.0137 5.71628 62.2541 5.52561 62.4284 5.22271C62.5265 5.05197 62.6393 4.92587 62.8362 4.98264C63.0713 5.43157 63.0641 5.53731 62.7445 6.19208C62.7883 6.29391 62.8392 6.41308 62.8985 6.55131C62.7053 6.95301 62.5099 7.35948 62.3261 7.74125C61.9949 7.82705 61.6904 7.90635 61.3342 7.99865C61.2825 7.91978 61.2078 7.82055 61.1478 7.71092C60.9743 7.39328 60.8468 7.33175 60.5536 7.49468C60.3948 7.58308 60.2307 7.69878 60.1182 7.85002C59.8447 8.21748 59.5979 8.61182 59.344 8.99835C59.2029 9.21329 59.0437 9.34892 58.7905 9.39052C58.1077 9.50232 57.8703 9.85635 58.1246 10.7122C58.1586 10.8262 58.2088 10.9462 58.2039 11.0606C58.1767 11.6785 58.4514 12.1522 58.7253 12.6015C58.9366 12.6969 59.1267 12.7827 59.4029 12.9075C59.5779 12.9404 59.7798 12.5339 60.1092 12.764C59.9635 12.9846 59.8364 13.2117 59.6787 13.4058C59.5157 13.6064 59.4191 13.8357 59.3957 14.097C59.3633 14.4605 59.1867 14.708 58.9411 14.8947C58.6325 15.1292 58.374 15.4035 58.2069 15.7913C58.1488 15.9265 58.0277 16.024 57.9484 16.1492C57.8077 16.3715 57.647 16.5869 57.5504 16.8343C57.458 17.0709 57.3244 17.2304 57.1433 17.3656C57.0188 17.4583 56.8845 17.5545 56.7954 17.6858C56.5498 18.0494 56.165 18.2834 56.0363 18.7232C56.1307 19.1154 56.2178 19.4781 56.3001 19.8209C56.2616 19.8967 56.2472 19.9682 56.2156 19.9804C55.8379 20.1264 55.676 20.5567 55.381 20.8137C55.1874 20.9822 55.0905 21.2474 55.1195 21.5525C55.152 21.8922 55.0226 22.1592 54.803 22.3732C54.4717 22.6956 54.317 23.1069 54.2959 23.6022C54.2827 23.9124 54.2439 24.2223 54.2001 24.5295C54.0982 25.2423 54.3521 25.8507 54.637 26.4396C54.706 26.5826 54.8924 26.6511 55.0297 26.7573C55.1697 26.6086 55.278 26.4938 55.3904 26.3742C55.5949 26.8548 55.5791 26.9167 55.1637 27.2062C55.2776 27.4892 55.1984 27.7262 55.0226 27.981C54.7713 28.345 54.5766 28.761 54.3457 29.177C54.199 29.2879 54.0273 29.4184 53.8549 29.5475C53.8171 29.5757 53.7768 29.6199 53.7368 29.6212C53.3391 29.6333 53.2018 29.931 53.1312 30.3193C53.1135 30.4168 53.0641 30.5152 53.0082 30.5927C52.7026 31.0165 52.3895 31.4334 52.0801 31.8537C51.9247 32.0652 51.7643 32.2732 51.6194 32.4938C51.4331 32.7776 51.4591 33.0918 51.5968 33.3791C51.945 34.1066 52.2812 34.8459 52.7758 35.4651C52.8166 35.5163 52.8584 35.5665 52.9015 35.6155C53.1769 35.9301 53.4131 36.2633 53.2814 36.8093C53.4979 37.01 53.7032 37.2396 53.9405 37.4104C54.2495 37.6322 54.4646 37.2587 54.7924 37.1681C54.9505 37.302 55.1403 37.4628 55.3436 37.6348C55.5361 37.5798 55.7439 37.5204 55.979 37.4533C56.0231 37.6821 56.0545 37.845 56.0899 38.0296C56.7155 38.102 56.9641 38.7138 57.3316 39.1554C57.378 39.2109 57.3908 39.3136 57.4002 39.3972C57.4376 39.7235 57.5889 39.9458 57.796 40.1772C58.0009 40.406 58.1088 40.7492 58.2778 41.0786C58.1741 41.173 58.0918 41.2714 57.9922 41.3342C57.6357 41.5596 57.2806 41.791 56.9109 41.9851C56.6128 42.1415 56.2937 42.0982 55.953 41.9981C55.6409 42.3105 55.2893 42.4193 54.9392 42.057C54.4936 42.1333 54.3442 42.4691 54.3125 42.9003C54.2703 43.4736 54.3016 44.0426 54.4529 44.5959C54.6147 45.1874 54.7853 45.3005 55.3161 45.184C55.6262 45.1159 55.9386 45.0111 56.2499 45.0102C56.6679 45.0093 57.0769 44.9578 57.4636 44.849C57.6296 45.0362 57.7504 45.2208 57.9088 45.3378C58.0548 45.4457 58.2412 45.4817 58.4265 45.5562C58.3985 45.9445 58.1469 46.0342 57.9292 46.0957C57.2754 46.2799 56.6264 46.5243 55.9586 46.4289C55.6617 46.6075 55.561 46.8779 55.5681 47.2167C55.5693 47.2687 55.5693 47.3207 55.57 47.3727C55.5766 47.798 55.4206 48.1147 55.1022 48.323C55.0482 48.4652 54.9897 48.619 54.9245 48.7906H54.5132C54.2937 48.9397 54.0628 49.0965 53.8024 49.2733V49.8332C53.6862 49.9424 53.5489 50.0715 53.3987 50.2128C53.4255 50.5798 53.347 50.9022 53.1905 51.2411C53.0263 51.596 52.9984 52.0341 52.9018 52.4787C52.8317 52.4921 52.7415 52.5095 52.6502 52.5273C52.5608 52.2958 52.7622 52.0315 52.5189 51.8772C52.3133 51.8746 52.2789 52.0909 52.1797 52.2335C52.0797 52.3778 51.976 52.5697 51.8398 52.6213C51.4025 52.7864 51.2991 53.1768 51.2335 53.6162C51.347 53.9152 51.7621 53.9902 51.6289 54.4712C51.5296 54.8283 51.3704 55.0423 51.046 55.1602C50.9482 55.1056 50.8298 55.0393 50.6845 54.9583C50.5725 55.0614 50.4574 55.1671 50.3393 55.2759C50.3306 55.4085 50.3072 55.5294 50.3178 55.6464C50.351 56.0039 50.297 56.3345 50.1356 56.6448C50.0107 56.8844 49.9914 57.1362 50.1175 57.3854C50.4276 57.9994 50.4019 58.6026 50.0605 59.2205C50.1982 59.422 50.3359 59.6235 50.4793 59.8333C50.3812 60.0599 50.2819 60.2896 50.1673 60.5548C50.065 60.5777 49.9356 60.6063 49.8103 60.6345C49.533 60.9508 49.4115 61.3231 49.4104 61.7629C49.41 61.9224 49.3474 62.0819 49.3131 62.243C49.121 62.2656 48.9746 62.2829 48.8207 62.3007C48.7102 62.7973 48.7494 63.3489 48.3336 63.7745C48.2518 63.6475 48.1691 63.5552 48.1242 63.4434C47.9394 62.9823 47.6262 62.7696 47.1923 62.7704C46.6555 62.7717 46.1431 62.9212 45.6636 63.1791C45.4874 63.2735 45.3334 63.4776 45.2263 63.6731C45.0524 63.9903 44.8482 64.2533 44.5596 64.4275C44.5064 64.4596 44.4325 64.4804 44.4057 64.5324C44.1714 64.9869 43.7809 65.214 43.3798 65.4125C43.3995 65.6452 43.4149 65.8285 43.4349 66.0603C43.2889 66.1175 43.1523 66.2154 43.0146 66.2167C42.5838 66.2206 42.2899 66.5335 41.9741 66.79C41.888 66.8602 41.833 67.0141 41.8069 67.1415C41.7564 67.3889 41.6688 67.6095 41.4915 67.7542C41.2123 67.9826 41.132 68.3396 41.0063 68.6681C40.9226 68.8869 40.8547 69.1136 40.7607 69.3935C40.7901 69.5075 40.835 69.683 40.8931 69.9096H40.4762C40.4472 69.9664 40.4174 70.0244 40.3732 70.1111C40.4777 70.2073 40.5785 70.3 40.6996 70.4114C40.6736 70.6922 40.7796 70.9986 40.6309 71.35C40.1574 71.1073 40.019 70.482 39.5726 70.2264C39.1772 70.2732 38.769 70.2151 38.3661 70.0985C37.8024 69.9356 37.3059 70.2797 37.0799 70.908C36.8792 71.4657 36.4811 71.8158 35.9627 71.9289C35.7118 71.9835 35.4866 71.9978 35.456 72.3744C35.4492 72.4554 35.3436 72.5308 35.2761 72.5993C35.0761 72.8034 34.8728 73.0027 34.5992 73.2749C34.2887 73.3459 33.9092 73.5011 33.7318 73.9669C33.4813 74.1043 33.2798 74.048 33.0803 73.8772C32.9214 73.7411 32.746 73.6237 32.5275 73.804C32.4649 73.9569 32.3955 74.1264 32.3185 74.3136C32.1529 74.3326 31.9918 74.3513 31.825 74.3704C31.5658 74.8479 32.1438 74.9454 32.1167 75.3064C32.1442 75.3289 32.1717 75.351 32.1989 75.3735C32.1118 75.4364 32.0227 75.4962 31.9382 75.5633C31.8518 75.6322 31.7401 75.6881 31.6907 75.7843C31.4466 76.261 31.0274 76.5344 30.712 76.9266C30.4785 77.2174 30.2095 77.4262 29.8771 77.3937C29.619 77.603 29.3881 77.7902 29.15 77.9835C28.8618 78.042 28.5875 77.9471 28.4407 77.6641C28.2378 77.2724 27.9412 77.1433 27.5752 77.0926C27.4896 77.1749 27.3983 77.2629 27.2719 77.3846C27.1644 77.3157 27.0082 77.275 26.9467 77.1645C26.7497 76.8109 26.4645 76.6666 26.1272 76.5817C25.9125 76.5275 25.699 76.4426 25.5017 76.3321C25.3877 76.2688 25.3025 76.1323 25.2119 76.0205C25.1259 75.9139 25.0501 75.7969 24.9784 75.6968C24.9157 75.7319 24.895 75.7354 24.892 75.7462C24.7192 76.3329 24.4773 76.469 23.9744 76.2315C23.6711 76.0881 23.3794 75.9113 23.0791 75.7479C22.9101 75.4225 22.841 75.0823 23.0119 74.7426C22.8475 74.4224 22.5773 74.6169 22.3453 74.4999C22.3038 74.4137 22.2479 74.2967 22.1434 74.0787C22.2755 73.9804 22.4117 73.8785 22.54 73.7828C22.3264 73.31 21.9156 73.2285 21.5613 73.0053C21.3802 73.089 21.1878 73.1774 21.0221 73.2541C20.8282 73.6909 21.0949 74.2911 20.5879 74.561C20.4238 74.3595 20.4487 74.1463 20.4332 73.947C20.4105 73.6575 20.4 73.3663 20.3687 73.0781C20.3426 72.8385 20.203 72.7206 19.9978 72.6985C19.8182 72.679 19.639 72.6578 19.5473 72.6474C19.0893 72.8216 18.7022 72.9689 18.3208 73.1141C18.2253 73.3499 18.1378 73.5661 18.0593 73.7598C17.6243 73.8057 17.5043 73.7139 17.4847 73.3065C17.4749 73.102 17.4877 72.8875 17.5334 72.6908C17.599 72.4078 17.5311 72.1855 17.3866 71.9653C17.2417 71.7443 17.0757 71.5298 16.9802 71.2811C16.7852 70.7728 16.4743 70.4751 15.9718 70.4088C15.8193 70.4955 15.6484 70.5925 15.3979 70.7351C15.4417 70.3347 15.4681 70.0184 15.5134 69.7059C15.5428 69.5023 15.602 69.3047 15.642 69.1027C15.7269 68.672 15.616 68.3973 15.2357 68.344C14.9037 68.2972 14.7233 68.103 14.5731 67.7897H13.8906C13.6118 68.0012 13.6156 68.3171 13.5367 68.5918C13.4911 68.7504 13.4534 68.9489 13.3515 69.0429C12.9082 69.4516 12.4169 69.7597 11.8193 69.6565C11.6465 69.6266 11.4817 69.52 11.3187 69.4351C10.9836 69.26 10.772 69.345 10.7305 69.7536C10.695 70.1037 10.5396 70.3204 10.3143 70.5349C10.134 70.5037 10.0121 70.4114 10.02 70.1713C10.0302 69.8775 9.93439 69.6448 9.75443 69.4325C9.31866 68.9186 9.32017 68.3201 9.73896 67.7845C9.76914 67.746 9.79367 67.7018 9.83554 67.6376C9.78423 67.4764 9.72311 67.3035 9.67407 67.1263C9.62879 66.9625 9.59597 66.7939 9.55861 66.6314C9.18208 66.3021 8.81158 65.9784 8.44109 65.6543C8.42373 65.4831 8.40826 65.331 8.39506 65.2023C8.15359 64.8227 7.83101 64.6589 7.46693 64.561C7.19302 64.4873 6.92515 64.3824 6.66934 64.2962C6.60973 64.0024 6.58445 63.7589 6.509 63.5383C6.43278 63.3151 6.30413 63.1162 6.20377 62.9035C6.16076 62.8125 6.10115 62.7132 6.10077 62.6175C6.09926 62.1438 5.84157 61.8192 5.62312 61.4682C5.45749 61.2022 5.28432 60.9469 5.22131 60.6055C5.19641 60.469 5.04436 60.3442 4.92703 60.254C4.71612 60.092 4.48749 59.9594 4.25583 59.8081L4.25395 59.8073Z" fill="#353C4C"/>
</g>
<defs>
<filter id="filter0_d_683_696" x="0" y="0" width="67" height="86" filterUnits="userSpaceOnUse" color-interpolation-filters="sRGB">
<feFlood flood-opacity="0" result="BackgroundImageFix"/>
<feColorMatrix in="SourceAlpha" type="matrix" values="0 0 0 0 0 0 0 0 0 0 0 0 0 0 0 0 0 0 127 0" result="hardAlpha"/>
<feOffset dy="4"/>
<feGaussianBlur stdDeviation="2"/>
<feComposite in2="hardAlpha" operator="out"/>
<feColorMatrix type="matrix" values="0 0 0 0 0 0 0 0 0 0 0 0 0 0 0 0 0 0 0.25 0"/>
<feBlend mode="normal" in2="BackgroundImageFix" result="effect1_dropShadow_683_696"/>
<feBlend mode="normal" in="SourceGraphic" in2="effect1_dropShadow_683_696" result="shape"/>
</filter>
</defs>
</svg>
