<svg width="60" height="60" viewBox="0 0 60 60" fill="none" xmlns="http://www.w3.org/2000/svg">
<rect width="60" height="60" rx="13.3594" fill="url(#paint0_linear_1857_2794)"/>
<path d="M11.405 20.9766C8.92926 14.3177 13.1974 11.3644 16.2809 10.5062C16.8039 10.3606 17.345 10.5963 17.6554 11.0416L23.2672 19.0934C23.6317 19.6164 23.5922 20.3148 23.2159 20.8295C21.9325 22.5848 21.4692 24.0743 21.303 25.2337C21.1654 26.1933 21.5077 27.1466 22.0838 27.9262C26.4958 33.8965 31.2688 38.3862 33.612 38.4961C35.3293 38.5766 37.426 37.2457 38.5695 36.4054C39.0801 36.0301 39.7784 35.9859 40.3057 36.3375L48.5185 41.8126C48.9694 42.1133 49.2145 42.6518 49.0993 43.1814C47.6005 50.0743 41.1201 49.342 37.948 48.0469C23.0651 41.1328 14.8034 30.1172 11.405 20.9766Z" fill="url(#paint1_linear_1857_2794)"/>
<defs>
<linearGradient id="paint0_linear_1857_2794" x1="30" y1="0" x2="30" y2="60" gradientUnits="userSpaceOnUse">
<stop stop-color="#313131"/>
<stop offset="1" stop-color="#141514"/>
</linearGradient>
<linearGradient id="paint1_linear_1857_2794" x1="29.9603" y1="10.3125" x2="29.9603" y2="48.8974" gradientUnits="userSpaceOnUse">
<stop stop-color="#5CF777"/>
<stop offset="1" stop-color="#0EBC29"/>
</linearGradient>
</defs>
</svg>
