<svg width="95" height="80" viewBox="0 0 95 80" fill="none" xmlns="http://www.w3.org/2000/svg">
<g filter="url(#filter0_dd_683_684)">
<path d="M55.037 47.4403C54.9782 47.7731 54.8802 48.1042 54.8715 48.4384C54.8612 48.8488 55.0036 48.9211 55.405 48.7905C55.8936 48.6308 56.3331 48.7936 56.7092 49.0715C57.1947 49.4299 57.6695 49.7722 58.2817 49.8961C58.5585 49.9521 58.5753 50.0936 58.3694 50.286C58.2459 50.4016 58.1043 50.5021 57.958 50.5884C57.6052 50.7961 57.2371 50.9693 57.1328 51.4328C57.1059 51.552 56.93 51.656 56.8006 51.7288C56.5297 51.8807 56.4123 52.0893 56.4494 52.4C56.4669 52.5497 56.4643 52.7093 56.4309 52.8553C56.3784 53.0856 56.2513 53.1969 55.9805 53.1054C55.602 52.9771 54.5958 53.2877 54.4245 53.6248C54.3224 53.8258 54.3306 54.1128 54.3688 54.3487C54.4642 54.9354 54.6313 55.5119 54.7161 56.0997C54.7583 56.3933 54.7053 56.7071 54.6496 57.003C54.6309 57.1023 54.4746 57.2357 54.3731 57.2428C54.2688 57.2502 54.0829 57.1423 54.0562 57.0495C53.7959 56.1523 52.8895 55.9394 52.3018 55.3935C52.202 55.3009 52.0132 55.3019 51.8656 55.261C51.5955 55.1862 51.3652 55.0761 51.2085 54.8129C51.1214 54.6661 50.9458 54.5629 50.7943 54.4638C50.4834 54.2616 50.4436 54.1606 50.6698 53.8672C50.828 53.6619 50.8351 53.4749 50.7262 53.2544C50.6215 53.0416 50.571 52.7913 50.4279 52.6111C50.0935 52.1897 49.6996 51.8462 49.0973 51.8671C48.9389 51.8724 48.769 51.7987 48.6173 51.732C47.8245 51.383 47.045 51.2565 46.277 51.7894C46.0488 51.9473 45.8121 52.066 45.5153 51.9021C45.4315 51.856 45.2842 51.9116 45.1692 51.9349C44.8546 51.9986 44.5412 52.069 44.2276 52.1383C44.1615 52.1529 44.0788 52.1545 44.0342 52.1954C43.5866 52.603 43.0203 52.5724 42.4793 52.591C41.6737 52.618 40.9881 52.8556 40.4129 53.4452C40.177 53.6872 39.7924 53.7781 39.4655 53.5914C39.0861 53.3743 38.7117 53.4012 38.3235 53.4863C37.286 53.7138 36.3649 54.1813 35.5334 54.8319C34.0538 55.9904 32.6833 57.2656 31.393 58.6273C30.0229 60.0732 28.6451 61.5113 27.2822 62.9636C27.0295 63.233 26.8377 63.5581 26.6034 63.8463C26.5136 63.9567 26.385 64.1155 26.2731 64.1163C25.2078 64.1234 24.4647 64.7799 23.6965 65.3634C23.2928 65.6702 22.947 66.0554 22.5912 66.4204C22.2275 66.7937 21.8992 67.2028 21.5196 67.5579C21.4148 67.6557 21.1315 67.6995 21.0161 67.6283C20.5503 67.3431 20.0922 67.3788 19.6428 67.5919C19.1608 67.8202 18.8562 68.2273 18.6546 68.7162C18.5881 68.8773 18.4885 69.0241 18.4039 69.1775C18.2746 69.051 18.1199 68.9414 18.0204 68.7946C17.655 68.2573 17.4441 68.1593 16.8149 68.3186C16.484 68.4024 16.153 68.4957 15.836 68.6204C15.3763 68.8016 15.0026 69.0909 14.8461 69.5855C14.781 69.7917 14.6776 69.9118 14.4359 69.8498C14.3566 69.8296 14.2329 69.8108 14.1883 69.8533C13.8472 70.177 13.3829 70.093 12.9922 70.2343C12.6961 70.3414 12.4321 70.5504 12.1752 70.7428C11.8934 70.9539 11.6222 71.1473 11.2415 71.0215C11.1799 71.0013 11.09 70.9896 11.0419 71.0192C10.606 71.2886 10.2837 71.0228 9.91381 70.8342C9.60551 70.6764 9.24686 70.5946 8.9011 70.5412C8.73442 70.5153 8.46569 70.5747 8.38154 70.6931C8.0708 71.1293 7.58215 71.2501 7.15645 71.4911C6.74611 71.724 5.63954 71.6419 5.32123 71.2883C5.25732 71.2172 5.21237 71.112 5.19925 71.0169C5.05792 70.023 5.88947 69.3154 6.83512 69.6312C7.07658 69.7117 7.30524 69.8363 7.52898 69.9594C7.71356 70.061 7.88047 70.2016 8.05796 69.9574C8.21596 69.7404 8.19607 69.4653 8.00229 69.3656C7.46552 69.0898 7.50047 68.5925 7.43691 68.1369C7.39174 67.8104 7.25239 67.577 7.00593 67.3586C6.84128 67.2123 6.69017 66.9876 6.65276 66.7775C6.57321 66.3304 6.32062 66.0435 5.96149 65.8123C5.7169 65.6552 5.46197 65.511 5.23396 65.3328C4.89162 65.0656 4.78953 64.7214 4.89137 64.2871C4.98328 63.8944 4.99957 63.4837 5.05757 63.0825C5.10091 62.7812 5.13356 62.4761 5.21192 62.1833C5.34093 61.7017 5.32952 61.2832 4.8823 60.9492C4.60283 60.7405 4.60503 60.4492 4.76767 60.1706C4.86082 60.0118 4.98074 59.8567 5.12077 59.7382C5.72878 59.2246 6.1408 58.5707 6.57767 57.9163C7.25669 56.8998 8.04698 55.9575 8.77008 54.9693C9.66353 53.7481 10.5676 52.5327 11.4089 51.276C12.2344 50.0433 12.7563 48.6516 13.3886 47.3156C14.0117 45.9993 14.3235 44.5867 14.8641 43.2486C15.1293 42.5919 15.2662 41.8836 15.4618 41.1994C15.6573 40.5157 15.8774 39.8379 16.0379 39.1457C16.109 38.8396 16.0961 38.5005 16.0564 38.1842C15.9644 37.4498 15.6426 37.1026 14.9098 36.9422C14.3522 36.8205 13.9296 36.5504 13.5367 36.122C12.9704 35.5036 12.4043 34.8613 11.5535 34.5694C10.9973 34.3788 10.9747 33.8481 10.9683 33.3688C10.9625 32.9333 11.1186 32.6054 11.6001 32.4409C12.4383 32.1551 12.6852 31.2749 12.138 30.5931C11.9204 30.3221 11.903 30.044 11.9335 29.7319C11.9851 29.2046 11.8537 29.0636 11.3258 29.0371C11.021 29.0222 10.7054 29.0344 10.4143 28.9581C9.87759 28.8171 9.57882 28.3686 9.5481 27.7636C9.51733 27.1516 9.72175 26.7403 10.2566 26.5344C11.0437 26.231 11.8633 26.0617 12.7182 26.1929C13.0395 26.2421 13.356 26.3459 13.6776 26.3605C14.1696 26.3831 14.6636 26.3422 15.1566 26.3438C15.5279 26.3447 15.9048 26.3324 16.2679 26.3943C16.6842 26.4648 17.0652 26.3556 17.3506 26.0263C17.514 25.8376 17.6965 25.6477 17.9088 25.5211C18.3617 25.2521 18.8251 24.9878 19.3122 24.7887C19.8391 24.5735 20.4179 24.5114 20.9437 24.7738C21.2576 24.9306 21.4258 24.8701 21.6549 24.6559C22.238 24.1092 22.8476 23.5902 23.4426 23.0556C23.5429 22.9655 23.619 22.8505 23.7127 22.752C23.9791 22.4713 24.2186 22.1553 24.5227 21.9239C25.0068 21.5555 25.3082 21.1021 25.4799 20.5221C25.7058 19.7575 25.9696 19.0024 26.2564 18.2584C26.349 18.0178 26.5213 17.7555 26.7327 17.6245C27.0618 17.4208 27.253 17.1488 27.4045 16.82C27.4901 16.6349 27.5552 16.4265 27.6877 16.2817C27.824 16.1327 28.0262 15.9631 28.2093 15.9524C28.7064 15.9227 28.9959 15.6649 29.1951 15.2568C29.2994 15.0432 29.3877 14.8222 29.4832 14.6043C29.8202 13.8361 30.6622 13.5734 31.4132 13.9737C31.7104 14.1323 32.0406 14.2375 32.3651 14.3346C32.4802 14.3694 32.6517 14.3472 32.7505 14.2817C33.1505 14.0153 33.5994 13.9108 34.0629 13.8943C34.9771 13.8617 35.7348 13.4781 36.4609 12.9661C37.7498 12.0568 38.8952 10.9912 39.9875 9.8653C40.6212 9.21184 41.3274 8.72525 42.2822 8.64851C42.5756 8.62481 42.8533 8.43811 43.1417 8.33509C43.6853 8.1409 44.2273 7.94142 44.7778 7.76691C45.1027 7.66376 45.4514 7.63121 45.7722 7.51881C46.3932 7.30115 47.0154 7.31774 47.6453 7.44539C48.1412 7.54581 48.6281 7.57266 49.1019 7.3483C49.1884 7.30732 49.3001 7.3038 49.3992 7.30819C50.1841 7.34256 50.9689 7.38597 51.7537 7.42033C52.4914 7.45268 53.1986 7.30158 53.8218 6.92256C55.1217 6.13118 56.5571 5.88221 58.0435 5.82876C59.0136 5.79393 59.9385 5.65483 60.808 5.17501C61.1677 4.97635 61.619 4.9045 62.0381 4.85383C63.1802 4.71543 64.2972 4.49323 65.3984 4.15648C66.8316 3.71769 68.3138 3.6017 69.8116 3.59752C70.7687 3.595 71.7258 3.53386 72.6816 3.48083C72.8814 3.46987 73.0884 3.40512 73.2719 3.32048C73.8234 3.06634 74.3879 3.06762 74.9794 3.14314C76.4551 3.33103 77.9333 3.49463 79.4125 3.65321C80.0189 3.71833 80.5132 4.01384 80.9896 4.35243C81.5358 4.7409 82.0993 5.07596 82.7524 5.27777C83.7442 5.58469 84.574 5.33743 85.3111 4.67582C85.564 4.44859 85.7958 4.19687 86.0243 3.9441C86.6656 3.2349 87.3501 2.57869 88.1384 2.02475C88.4685 1.79262 88.7243 1.45809 89.0206 1.17791C89.4215 0.798802 89.4957 0.819659 89.704 1.31855C89.8279 1.61552 89.9841 1.89987 90.0959 2.20119C90.1572 2.36625 90.1472 2.55558 90.186 2.73091C90.2208 2.88744 90.2377 3.07479 90.335 3.18627C90.5392 3.42015 90.5164 3.82569 90.897 3.92003C90.8783 4.18612 90.8944 4.46117 90.8332 4.71705C90.7396 5.10972 90.6008 5.49242 90.4637 5.87297C90.4281 5.97092 90.3403 6.06264 90.253 6.12576C90.1744 6.183 90.0221 6.16836 89.9743 6.23595C89.6095 6.75121 89.0976 7.16386 88.9228 7.81438C88.8377 8.13126 88.7008 8.45433 88.5083 8.71795C88.2305 9.09858 88.057 9.44842 88.2289 9.9384C88.3618 10.3175 88.3803 10.7339 88.4807 11.1261C88.5198 11.2791 88.637 11.4153 88.7302 11.5511C88.903 11.8037 89.1203 12.0331 89.2545 12.3033C89.4689 12.7358 89.2791 13.1218 88.8098 13.2356C88.4951 13.312 88.276 13.4434 88.231 13.7857C88.189 14.1055 87.9597 14.2264 87.6746 14.3043C87.4487 14.366 87.238 14.4802 87.0128 14.5432C86.8375 14.592 86.6485 14.5918 86.468 14.6241C86.2046 14.6712 85.8819 14.6482 85.6913 14.7936C84.5969 15.6301 83.4655 16.4234 82.596 17.5229C82.0839 18.1705 81.9829 18.7831 82.4482 19.4781C82.5429 19.6196 82.6155 19.7754 82.6955 19.9264C82.9689 20.4428 82.9608 20.4926 82.5478 20.9421C82.5133 20.9796 82.4537 21.0133 82.4477 21.0546C82.3637 21.6324 81.968 21.7051 81.474 21.7102C81.3017 21.7119 81.1153 21.8878 80.9642 22.018C80.5028 22.4145 80.0382 22.745 79.3652 22.6923C79.147 22.6753 78.8707 22.8432 78.6923 23.0051C78.2141 23.4391 77.7616 23.9039 77.3225 24.3775C76.7445 25.0014 76.2024 25.6591 75.6202 26.2791C74.8399 27.1104 74.2594 28.0602 73.837 29.1106C73.6631 29.5435 73.7244 29.6659 74.1673 29.8473C74.5487 30.0031 74.6541 30.173 74.5637 30.4878C74.4447 30.9026 74.1 31.158 73.7499 31.0905C73.0002 30.9452 72.7225 31.0733 72.3747 31.7227C72.1823 32.0817 72.0089 32.4529 71.791 32.7967C71.5593 33.1636 71.4568 33.172 71.0593 32.9772C70.6196 32.7622 69.8617 33.1803 69.7942 33.6805C69.7737 33.8315 69.7999 33.9918 69.7633 34.1374C69.6845 34.4514 69.5985 34.7536 69.1863 34.8203C68.8181 34.88 68.5811 35.1525 68.47 35.486C68.3362 35.8857 68.239 36.3013 68.1694 36.7177C68.1253 36.9825 68.1233 37.2094 67.7719 37.2614C67.5253 37.2976 67.4667 37.5266 67.4048 37.7562C67.2867 38.1947 67.1643 38.6437 66.9579 39.0438C66.7517 39.4434 66.6684 39.3884 66.2378 39.1931C65.8831 39.0325 65.5533 38.8694 65.241 38.6289C65.0933 38.5155 64.7722 38.5564 64.5536 38.615C64.0205 38.7585 63.4827 38.7861 62.9374 38.8333C62.5277 38.8687 62.1349 39.1501 61.7525 39.3546C61.6941 39.386 61.7255 39.5964 61.7284 39.7235C61.735 40.009 61.7965 40.3026 61.7492 40.5781C61.6829 40.9625 61.3971 41.0642 61.059 40.8788C60.6008 40.6272 60.1411 40.6699 59.768 41.0196C59.1104 41.6365 58.4481 42.2498 57.8154 42.8913C57.5559 43.1544 57.3567 43.4794 57.1478 43.7882C56.8334 44.2526 56.5647 44.7505 56.2212 45.1918C55.6899 45.8746 55.3017 46.6182 55.0365 47.4418L55.037 47.4403Z" fill="#353C4C"/>
</g>
<defs>
<filter id="filter0_dd_683_684" x="0.65625" y="0.916138" width="94.2422" height="78.7064" filterUnits="userSpaceOnUse" color-interpolation-filters="sRGB">
<feFlood flood-opacity="0" result="BackgroundImageFix"/>
<feColorMatrix in="SourceAlpha" type="matrix" values="0 0 0 0 0 0 0 0 0 0 0 0 0 0 0 0 0 0 127 0" result="hardAlpha"/>
<feOffset dy="4"/>
<feGaussianBlur stdDeviation="2"/>
<feComposite in2="hardAlpha" operator="out"/>
<feColorMatrix type="matrix" values="0 0 0 0 0 0 0 0 0 0 0 0 0 0 0 0 0 0 0.25 0"/>
<feBlend mode="normal" in2="BackgroundImageFix" result="effect1_dropShadow_683_684"/>
<feColorMatrix in="SourceAlpha" type="matrix" values="0 0 0 0 0 0 0 0 0 0 0 0 0 0 0 0 0 0 127 0" result="hardAlpha"/>
<feOffset dy="4"/>
<feGaussianBlur stdDeviation="2"/>
<feComposite in2="hardAlpha" operator="out"/>
<feColorMatrix type="matrix" values="0 0 0 0 0 0 0 0 0 0 0 0 0 0 0 0 0 0 0.25 0"/>
<feBlend mode="normal" in2="effect1_dropShadow_683_684" result="effect2_dropShadow_683_684"/>
<feBlend mode="normal" in="SourceGraphic" in2="effect2_dropShadow_683_684" result="shape"/>
</filter>
</defs>
</svg>
