<svg width="97" height="116" viewBox="0 0 97 116" fill="none" xmlns="http://www.w3.org/2000/svg">
<g filter="url(#filter0_d_683_680)">
<path d="M17.2093 100.592C17.1079 100.412 16.995 100.264 16.936 100.096C16.7968 99.7004 16.5463 99.4021 16.1972 99.1856C15.8927 98.9963 15.5799 98.8195 15.2648 98.6476C14.9749 98.4894 14.6645 98.4388 14.3374 98.5138C13.9623 98.6 13.6261 98.5578 13.3679 98.2311C13.2941 98.1377 13.1948 98.0651 13.1252 97.9989C12.8735 98.0774 12.6881 98.1494 12.4961 98.1913C12.1686 98.2638 11.9176 98.1454 11.8397 97.8353C11.711 97.3232 11.7755 96.8164 11.9799 96.3035C12.544 96.3045 12.8951 95.9882 13.2252 95.5939C13.3667 95.4253 13.6131 95.3237 13.8311 95.2453C14.0406 95.1704 14.274 95.1458 14.4985 95.1332C15.2074 95.0941 15.6009 94.669 15.8509 94.0617C16.0625 93.5489 16.0987 93.0036 16.1299 92.4591C16.1511 92.0886 16.1477 91.7152 16.19 91.3467C16.2248 91.0451 16.2808 90.7391 16.3786 90.4523C16.5593 89.9228 16.9433 89.6091 17.4913 89.4682C18.0292 89.3298 18.5179 89.389 18.9752 89.7063C19.0841 89.7817 19.2059 89.8386 19.3196 89.908C19.8552 90.2348 20.4356 90.3348 21.0457 90.2186C21.5798 90.1165 22.1089 89.9867 22.6391 89.8633C23.042 89.7689 23.3717 89.5441 23.6328 89.2328C23.9147 88.8964 24.1708 88.5392 24.4421 88.1943C25.1784 87.2564 26.1818 86.9696 27.3159 87.064C27.6786 87.0943 28.0324 87.2353 28.4412 87.3386C28.4544 87.3252 28.5124 87.2746 28.5619 87.2171C28.9304 86.7867 29.404 86.5896 29.9519 86.7116C30.4282 86.8178 30.8912 86.9926 31.3496 87.1663C31.7223 87.3078 32.078 87.4925 32.4413 87.6578C33.0084 87.9167 33.6151 88.0445 34.2264 88.0222C34.9668 87.9957 35.6509 88.1494 36.3121 88.4519C36.6297 88.5973 36.94 88.6181 37.2721 88.4948C37.717 88.3294 38.1599 88.3578 38.5877 88.5719C38.8851 88.721 39.1813 88.8741 39.4837 89.0112C40.2336 89.3519 40.9973 89.259 41.74 89.0114C41.9754 88.9325 42.184 88.7208 42.3596 88.5279C42.6428 88.2172 42.9766 88.0157 43.3849 87.9626C43.9373 87.8904 44.495 87.8594 45.0477 87.7891C45.5483 87.7254 46.0517 87.6593 46.5423 87.5428C46.852 87.4689 47.1154 87.2695 47.3151 87.0042C47.6934 86.5013 47.9976 85.9577 48.2358 85.3752C48.3549 85.0839 48.4043 84.7882 48.3303 84.478C48.2505 84.1423 48.1675 83.8071 48.0876 83.4707C47.967 82.9643 47.9945 82.4686 48.2 81.9873C48.5121 81.2579 48.9905 80.6347 49.4607 80.0051C49.8191 79.5252 50.1722 79.0411 50.5114 78.5484C50.9338 77.9351 50.7929 77.281 50.624 76.6274C50.4845 76.0873 50.3555 75.5441 50.2184 75.0037C50.1158 74.598 50.2157 74.2393 50.4671 73.9174C50.6391 73.6973 50.8084 73.473 50.9997 73.2702C51.3009 72.9505 51.3717 72.5743 51.3087 72.1616C51.246 71.754 51.1744 71.3473 51.0972 70.9423C51.0247 70.5637 51.0587 70.196 51.2229 69.8513C51.3539 69.5761 51.4982 69.3024 51.6723 69.054C51.8547 68.7936 52.088 68.6041 52.41 68.4787C52.8128 68.3214 53.1926 68.0793 53.5413 67.8186C54.066 67.4267 54.2466 66.8635 54.1521 66.2259C54.0501 65.5389 54.272 64.9749 54.7294 64.4742C54.9887 64.1898 55.2396 63.8946 55.4633 63.5815C55.6153 63.3694 55.7123 63.1185 55.8432 62.868C55.3383 61.6904 54.859 60.5258 54.3365 59.3806C54.1909 59.0624 53.936 58.787 53.7005 58.5185C53.4202 58.1989 53.1122 57.9024 52.8051 57.6077C52.643 57.4522 52.4597 57.3166 52.2796 57.1805C52.0545 57.0101 51.7976 56.9649 51.5226 57.0151C51.3264 57.0513 51.1274 57.0795 50.9355 57.1331C50.5257 57.2468 50.2067 57.0932 49.9253 56.8147C49.5523 56.4454 49.3405 55.9773 49.2577 55.4791C49.0982 54.5232 48.9935 53.5576 48.8712 52.5957C48.8347 52.3061 48.7926 52.015 48.7911 51.725C48.7874 51.0609 49.0305 50.4515 49.2382 49.8329C49.3861 49.393 49.546 48.9478 49.6098 48.4917C49.7325 47.6174 49.5463 46.7676 49.214 45.9618C49.0176 45.4858 48.7467 45.0399 48.4932 44.5896C48.3195 44.2809 48.0233 44.1719 47.6816 44.1755C47.456 44.178 47.2308 44.194 47.0051 44.1926C46.8341 44.1918 46.6632 44.1735 46.5358 44.1656C46.3227 44.034 46.2975 43.8593 46.2915 43.6864C46.272 43.1166 46.27 42.5463 46.2442 41.9769C46.2182 41.407 46.2189 40.8297 46.1226 40.2696C45.9512 39.273 45.4725 38.4147 44.737 37.7197C43.8882 36.9175 42.8539 36.6501 41.7151 36.7928C41.0421 36.8774 40.3772 37.0255 39.7067 37.131C39.3794 37.1827 39.048 37.2189 38.7167 37.2337C38.399 37.248 38.2777 37.154 38.2242 36.8382C38.1428 36.3547 38.0998 35.8644 38.0258 35.3789C37.9522 34.8921 37.8654 34.4069 37.7761 33.9229C37.7073 33.5508 37.7876 33.2132 37.9674 32.8871C38.1326 32.5883 38.3707 32.3895 38.7104 32.3415C39.1845 32.2747 39.4723 31.9898 39.5379 31.5438C39.7365 30.1906 40.4421 29.0581 41.0541 27.8781C41.359 27.2909 41.6002 26.6669 41.8238 26.0429C42.0762 25.3397 41.9728 24.6484 41.5735 24.0208C41.2886 23.5729 40.9548 23.157 40.6576 22.717C39.9583 21.6811 39.2572 20.6462 38.5766 19.5986C37.9013 18.5591 37.2224 17.5248 36.2676 16.7109C35.4032 15.9745 34.4558 15.3995 33.2998 15.259C32.2713 15.1341 31.3464 15.3803 30.5555 16.0617C30.1668 16.397 29.7395 16.6061 29.2147 16.5702C28.9858 16.5544 28.7952 16.6623 28.7426 16.8638C28.5809 17.4853 28.1034 17.5799 27.578 17.6285C27.2213 17.6614 26.8625 17.6895 26.5104 17.7514C24.7261 18.0641 22.9437 18.3829 21.162 18.71C20.7053 18.7938 20.2548 18.9129 19.8037 19.0249C19.436 19.1162 19.1521 18.9881 18.9163 18.7145C18.7772 18.5529 18.6409 18.3895 18.5012 18.2287C18.2937 17.9896 18.0322 17.8848 17.7173 17.9265C17.546 17.9492 17.3737 17.974 17.2062 18.0148C16.3673 18.2185 15.5299 18.4303 14.6903 18.6335C14.4834 18.6832 14.2707 18.7074 14.0612 18.7453C13.7422 18.8039 13.455 18.7304 13.19 18.5483C13.0584 18.4581 12.9282 18.3617 12.7854 18.293C12.4569 18.1332 12.1167 18.2294 11.906 18.5279C11.8675 18.5821 11.8289 18.639 11.8067 18.7007C11.6725 19.0712 11.4304 19.2513 11.0175 19.2273C10.7182 19.2104 10.5816 19.3483 10.5033 19.6784C10.4269 20.0017 10.3845 20.3332 10.302 20.6549C10.1833 21.1162 9.948 21.3093 9.52982 21.3324C9.23262 21.3488 9.02905 21.1831 8.84582 20.982C8.46352 20.5636 8.20688 20.0665 7.98269 19.5545C7.71053 18.9335 7.46663 18.2997 7.37915 17.6212C7.33088 17.2474 7.15399 16.9503 6.89935 16.6801C6.64472 16.4098 6.35549 16.1496 6.18487 15.8293C6.00159 15.4854 5.89908 15.0842 5.83131 14.6956C5.66765 13.7567 5.39974 12.8636 4.91422 12.0364C4.57973 11.4668 4.57033 10.8731 4.9022 10.2914C5.08645 9.96848 5.29577 9.65859 5.47357 9.33223C5.84815 8.64367 6.23232 7.95794 6.56915 7.25077C6.87379 6.611 7.31614 6.12464 7.93589 5.79567C8.40664 5.54578 8.77568 5.19516 9.05793 4.74375C9.2275 4.47338 9.4175 4.21562 9.59956 3.95342C9.87381 3.55927 10.2158 3.26475 10.6994 3.14956C11.2019 3.03037 11.5493 2.74073 11.6933 2.22105C11.8197 1.76619 12.1322 1.50677 12.6046 1.44162C12.7759 1.41832 12.9444 1.37602 13.1155 1.3482C13.4621 1.29177 13.7421 1.16345 13.8793 0.798854C13.9686 0.559631 14.1879 0.426506 14.4346 0.388509C15.0908 0.286778 15.7497 0.200152 16.4093 0.117302C16.4951 0.106594 16.5937 0.138416 16.6756 0.175148C16.8205 0.240937 16.9621 0.317691 17.0957 0.404305C17.9073 0.931348 18.7956 1.11946 19.7568 1.07001C20.5389 1.02965 21.3275 1.01802 22.0959 1.21448C22.43 1.29986 22.7592 1.41209 23.0813 1.53596C23.8602 1.83509 24.6603 1.91035 25.472 1.74008C25.9837 1.63289 26.4652 1.61545 26.945 1.86256C27.274 2.03197 27.6432 2.02931 28.0014 2.00523C28.6641 1.96145 29.3252 1.9017 29.9863 1.8387C30.8865 1.75333 31.7851 1.65916 32.6849 1.56802C32.8572 1.55038 33.0304 1.53777 33.1993 1.50514C33.5348 1.44095 33.8511 1.4951 34.0972 1.72468C34.5569 2.15456 35.1127 2.21156 35.6955 2.19692C36.0932 2.1866 36.4911 2.1665 36.8894 2.15996C37.0345 2.15753 37.1818 2.17485 37.326 2.19661C37.891 2.28315 38.2295 2.61966 38.361 3.16567C38.4882 3.6949 38.6106 4.2263 38.7229 4.75885C38.7964 5.10676 38.9354 5.42095 39.1868 5.66907C39.4419 5.92041 39.7075 6.16471 39.9928 6.38083C40.6308 6.86341 41.1542 7.4287 41.4617 8.18235C41.6116 8.55044 41.8081 8.89984 41.9828 9.25768C42.2624 9.83255 42.6649 10.3025 43.188 10.6685C43.5952 10.9532 43.8273 11.345 43.867 11.8352C43.9015 12.2595 44.0967 12.5897 44.3835 12.8841C44.9651 13.4806 45.6253 13.9677 46.3805 14.3204C46.7184 14.4778 47.0597 14.6288 47.4047 14.768C48.1948 15.0866 48.8694 15.5705 49.4823 16.1568C50.0302 16.6808 50.5957 17.1866 51.1572 17.6958C52.0121 18.4703 53.0434 18.9291 54.104 19.3365C54.7371 19.5797 55.3684 19.8311 55.9887 20.1045C56.9895 20.5447 57.8106 21.246 58.6117 21.9703C59.1544 22.4614 59.6794 22.9732 60.2327 23.4513C60.6725 23.8308 60.9506 24.2956 61.1218 24.8417C61.4369 25.8472 61.9375 26.7483 62.7021 27.4823C62.9685 27.7382 63.2609 27.9797 63.5751 28.1725C64.3103 28.6241 64.772 29.2919 65.1433 30.0394C65.4564 30.6713 65.7423 31.3223 66.2591 31.8212C66.6411 32.1903 67.0527 32.5287 67.4491 32.8835C68.1028 33.4691 68.729 34.0901 69.4134 34.6365C70.3159 35.3571 71.3391 35.8212 72.5326 35.7486C72.9947 35.7204 73.3088 35.8723 73.4468 36.3269C73.5432 36.6461 73.7471 36.8871 73.9975 37.0931C74.5217 37.5239 75.0422 37.9598 75.5769 38.3764C76.5646 39.1454 77.6971 39.6466 78.852 40.099C79.4965 40.3512 80.1431 40.5973 80.7942 40.8321C81.979 41.259 82.9825 41.9668 83.9213 42.7894C85.2975 43.9964 86.2315 45.4938 86.8267 47.2045C87.1934 48.2586 87.4373 49.3423 87.5395 50.4649C87.6078 51.215 87.5529 51.9181 87.2784 52.6142C87.2009 52.8104 87.164 53.0234 87.1151 53.2308C87.0305 53.588 87.092 53.9231 87.3158 54.2131C87.7634 54.7945 87.9187 55.4635 87.9862 56.1793C88.0278 56.6251 88.1484 57.0659 88.2573 57.503C88.391 58.0395 88.5147 58.5603 88.1734 59.0774C87.92 59.4613 87.9964 59.9093 88.0639 60.3219C88.1531 60.8709 88.3162 61.4087 88.4483 61.9507C88.4921 62.1312 88.5509 62.3084 88.5846 62.4907C88.9318 64.389 89.2296 66.2981 89.6368 68.1831C89.857 69.2023 89.6352 70.0669 89.1357 70.9224C88.9087 71.3121 88.7082 71.7191 88.5157 72.1272C88.3535 72.4716 88.3064 72.8351 88.3911 73.2168C88.4719 73.5802 88.5153 73.9517 88.5937 74.3163C88.6448 74.5526 88.6272 74.757 88.4726 74.9546C88.3853 75.0662 88.3356 75.2068 88.255 75.3601C88.8252 76.302 89.6096 77.0267 90.4176 77.7349C90.5542 77.7106 90.6598 77.6685 90.7599 77.6799C90.8984 77.6949 91.0592 77.7156 91.1643 77.795C91.4718 78.0266 91.7537 78.2927 92.0513 78.5378C92.4661 78.8796 92.6029 79.3019 92.4504 79.8186C92.2701 80.4304 92.0946 81.044 91.9143 81.6558C91.8592 81.8428 91.744 81.9802 91.5616 82.0652C91.4296 82.1269 91.3141 82.226 91.1795 82.2805C90.6952 82.4757 90.4591 82.887 90.2417 83.3198C90.0266 83.7469 89.8224 84.1805 89.5871 84.5963C89.3709 84.9776 89.0259 85.1564 88.582 85.0931C88.2008 85.0389 87.8216 84.9706 87.4418 84.9063C86.7451 84.788 86.4396 84.9656 86.2811 85.6567C86.1746 86.121 86.1141 86.5992 86.0701 87.0752C86.0044 87.7835 85.7228 88.3847 85.2208 88.8758C84.6415 89.443 84.0511 89.9992 83.4501 90.5436C82.7994 91.1333 82.1224 91.6919 81.6098 92.4192C81.1475 93.0747 80.769 93.7737 80.4171 94.4913C80.2007 94.933 79.9745 95.3712 79.741 95.8042C79.2749 96.6687 78.5256 97.2739 77.8052 97.9065C77.2366 98.4062 76.665 98.9038 76.1116 99.4197C75.8118 99.6989 75.636 100.066 75.5943 100.474C75.5352 101.049 75.2236 101.393 74.6919 101.57C74.5532 101.617 74.4204 101.68 74.2811 101.723C73.8144 101.864 73.4426 102.144 73.1896 102.548C72.7519 103.247 72.3403 103.962 71.9281 104.676C71.6093 105.228 71.3225 105.801 70.9921 106.346C70.62 106.961 70.1255 107.421 69.3549 107.479C69.0773 107.5 68.8032 107.573 68.5249 107.59C67.7801 107.636 67.1923 107.289 66.6689 106.805C66.3758 106.533 66.093 106.251 65.7984 105.982C65.3889 105.608 64.9124 105.351 64.3787 105.199C64.033 105.1 63.6891 104.996 63.3432 104.899C62.7157 104.725 62.1605 104.43 61.6975 103.964C61.4254 103.69 61.1313 103.439 60.8537 103.171C60.5785 102.906 60.262 102.726 59.89 102.632C59.4752 102.528 59.1118 102.366 59.0168 101.872C58.9984 101.776 58.8465 101.663 58.7359 101.633C58.1589 101.475 57.6705 101.147 57.2048 100.804C55.966 99.8905 54.6427 99.1856 53.1018 98.9447C52.6254 98.8704 52.1496 98.8543 51.6738 98.9369C50.9912 99.055 50.3044 99.1531 49.6299 99.3055C49.0748 99.4314 48.5729 99.3233 48.0873 99.0805C47.894 98.9837 47.7155 98.9589 47.5125 99.0119C47.3579 99.0524 47.1995 99.0747 47.0435 99.1108C46.8064 99.166 46.5901 99.1187 46.4038 98.9694C45.976 98.628 45.4968 98.5671 44.9723 98.6571C44.1452 98.7989 43.33 98.9822 42.529 99.2343C42.3038 99.3055 42.0595 99.3197 41.8231 99.3533C41.5075 99.3977 41.1893 99.4238 40.8763 99.4794C40.6269 99.5237 40.4511 99.6894 40.322 99.9026C40.2256 100.062 40.1417 100.229 40.0401 100.385C39.5946 101.069 38.9422 101.353 38.1446 101.358C37.6877 101.361 37.3621 101.137 37.1153 100.776C36.7948 100.307 36.4316 100.211 35.8821 100.395C35.2113 100.619 34.7219 101.079 34.2446 101.565C33.9002 101.916 33.5667 102.284 33.1861 102.591C32.9463 102.784 32.6407 102.926 32.3419 103.01C31.8724 103.142 31.5913 103.001 31.3372 102.58C31.2139 102.376 31.1035 102.161 31.016 101.939C30.6243 100.945 29.8855 100.272 28.9773 99.7788C28.4898 99.5142 27.9604 99.3207 27.4381 99.1273C27.0069 98.9676 26.5761 98.8026 26.296 98.4291C25.8022 97.7709 25.1403 97.5815 24.3631 97.6353C24.1386 97.6512 23.9078 97.6721 23.6877 97.6398C23.3128 97.585 23.0576 97.7206 22.8339 98.0156C22.4809 98.4821 22.0126 98.8076 21.457 98.9966C21.294 99.0522 21.1224 99.0807 20.955 99.1222C20.5556 99.2217 20.1533 99.3121 19.7576 99.4246C19.5393 99.4868 19.3345 99.5882 19.211 99.7997C19.0157 100.134 18.6967 100.298 18.3424 100.385C17.9949 100.469 17.638 100.515 17.2085 100.591L17.2093 100.592Z" fill="#353C4C"/>
</g>
<defs>
<filter id="filter0_d_683_680" x="0.660156" y="0.115234" width="95.8516" height="115.479" filterUnits="userSpaceOnUse" color-interpolation-filters="sRGB">
<feFlood flood-opacity="0" result="BackgroundImageFix"/>
<feColorMatrix in="SourceAlpha" type="matrix" values="0 0 0 0 0 0 0 0 0 0 0 0 0 0 0 0 0 0 127 0" result="hardAlpha"/>
<feOffset dy="4"/>
<feGaussianBlur stdDeviation="2"/>
<feComposite in2="hardAlpha" operator="out"/>
<feColorMatrix type="matrix" values="0 0 0 0 0 0 0 0 0 0 0 0 0 0 0 0 0 0 0.25 0"/>
<feBlend mode="normal" in2="BackgroundImageFix" result="effect1_dropShadow_683_680"/>
<feBlend mode="normal" in="SourceGraphic" in2="effect1_dropShadow_683_680" result="shape"/>
</filter>
</defs>
</svg>
