<svg width="60" height="60" viewBox="0 0 60 60" fill="none" xmlns="http://www.w3.org/2000/svg">
<g clip-path="url(#clip0_939_1465)">
<rect width="60" height="60" rx="13.28" fill="url(#paint0_linear_939_1465)"/>
<path d="M19.7659 47.9336L19.0675 47.5243L18.281 47.7159L10.9341 49.5063L12.8239 42.4277L13.0438 41.604L12.6018 40.875C10.4115 37.2621 9.37867 33.0378 9.6849 28.7778C10.0594 23.5684 12.4081 18.6984 16.2515 15.1619C20.095 11.6255 25.1433 9.68947 30.3658 9.749C35.5884 9.80854 40.5912 11.8592 44.353 15.4823C48.1149 19.1054 50.352 24.0278 50.6076 29.2444C50.8632 34.461 49.1181 39.5784 45.7285 43.552C42.3389 47.5255 37.5605 50.0554 32.3688 50.6253C27.9673 51.1084 23.5501 50.1518 19.7659 47.9336Z" stroke="white" stroke-width="4"/>
<path d="M26.288 24.7153L25.0721 21.0675C24.8093 20.2792 24.0716 19.7476 23.2407 19.7476C22.1965 19.7476 21.132 20.043 20.4433 20.8279C19.422 21.9917 19.132 23.2247 19.1321 24.7476C19.1321 30.2476 28.6321 40.2476 35.6321 40.7476C38.3136 40.9391 40.5957 39.9893 41.407 36.5718C41.5946 35.7819 41.1665 34.9936 40.4538 34.6049L37.5541 33.0232C36.725 32.571 35.6925 32.7604 35.0779 33.4774L33.5616 35.2464C33.3011 35.5504 32.8826 35.6724 32.5057 35.5374C29.2615 34.3751 27.5414 32.5386 25.0412 28.8559C24.7966 28.4956 24.8169 28.0166 25.089 27.6765L25.9524 26.5972C26.3762 26.0674 26.5025 25.3589 26.288 24.7153Z" fill="white"/>
</g>
<defs>
<linearGradient id="paint0_linear_939_1465" x1="30" y1="0" x2="30" y2="60" gradientUnits="userSpaceOnUse">
<stop stop-color="#00FF68"/>
<stop offset="1" stop-color="#00D624"/>
</linearGradient>
<clipPath id="clip0_939_1465">
<rect width="60" height="60" rx="13.28" fill="white"/>
</clipPath>
</defs>
</svg>
